%TF.GenerationSoftware,Altium Limited,Altium Designer,23.0.1 (38)*%
G04 Layer_Color=16711935*
%FSLAX45Y45*%
%MOMM*%
%TF.SameCoordinates,E21AF8FC-8B61-408E-9598-FC2968858709*%
%TF.FilePolarity,Negative*%
%TF.FileFunction,Soldermask,Bot*%
%TF.Part,Single*%
G01*
G75*
%TA.AperFunction,ComponentPad*%
%ADD17R,1.20000X1.20000*%
%ADD18C,1.20000*%
%ADD19C,1.37160*%
%ADD20R,1.37160X1.37160*%
%ADD25C,1.72720*%
%ADD26R,1.72720X1.72720*%
%ADD37R,1.40320X1.40320*%
%ADD38C,1.40320*%
%ADD39C,2.00320*%
%ADD40R,2.00320X2.00320*%
%ADD41C,1.80820*%
%ADD42R,1.80820X1.80820*%
%TA.AperFunction,ViaPad*%
%ADD43C,1.47320*%
D17*
X4900200Y8966200D02*
D03*
X6892100D02*
D03*
D18*
X4650200D02*
D03*
X6392100D02*
D03*
D19*
X7073900Y9664700D02*
D03*
X5600700D02*
D03*
Y5461000D02*
D03*
X5905500D02*
D03*
D20*
Y9664700D02*
D03*
X4432300D02*
D03*
Y5461000D02*
D03*
X7073900D02*
D03*
D25*
X9029700Y9156700D02*
D03*
D26*
Y5981700D02*
D03*
D37*
X6125000D02*
D03*
D38*
X5305000D02*
D03*
D39*
X8158100Y5537200D02*
D03*
X7624000Y9613900D02*
D03*
D40*
X7658100Y5537200D02*
D03*
X8124000Y9613900D02*
D03*
D41*
X8140700Y7442200D02*
D03*
Y6680200D02*
D03*
Y7188200D02*
D03*
Y6934200D02*
D03*
Y7696200D02*
D03*
Y8204200D02*
D03*
Y7950200D02*
D03*
D42*
Y8458200D02*
D03*
D43*
Y6388100D02*
D03*
X5930900Y8356600D02*
D03*
X4648200Y6756400D02*
D03*
X6096000Y9029700D02*
D03*
X5918200Y6769100D02*
D03*
X4102100Y8724900D02*
D03*
X3886200Y8343900D02*
D03*
X5130800Y8737600D02*
D03*
X5372100D02*
D03*
X7188200Y6756400D02*
D03*
X7518400Y7556500D02*
D03*
X3378200Y6756400D02*
D03*
X7188200Y8763000D02*
D03*
X3390900Y8343900D02*
D03*
X5283200Y8940800D02*
D03*
%TF.MD5,7ac86f1282ab3f04156ad6be1e850798*%
M02*
