%TF.GenerationSoftware,Altium Limited,Altium Designer,23.0.1 (38)*%
G04 Layer_Color=65535*
%FSLAX45Y45*%
%MOMM*%
%TF.SameCoordinates,E21AF8FC-8B61-408E-9598-FC2968858709*%
%TF.FilePolarity,Positive*%
%TF.FileFunction,Legend,Top*%
%TF.Part,Single*%
G01*
G75*
%TA.AperFunction,NonConductor*%
%ADD29C,0.20000*%
%ADD30C,0.25000*%
%ADD31C,0.12700*%
%ADD32C,0.15240*%
%ADD33C,0.25400*%
D29*
X2886700Y6337500D02*
G03*
X2886700Y6337500I-10000J0D01*
G01*
X6255000Y5981700D02*
G03*
X6255000Y5981700I-10000J0D01*
G01*
X7283100Y5537200D02*
G03*
X7283100Y5537200I-10000J0D01*
G01*
X8150700Y8660200D02*
G03*
X8150700Y8660200I-10000J0D01*
G01*
X8519000Y9613900D02*
G03*
X8519000Y9613900I-10000J0D01*
G01*
X5591952Y8800300D02*
X5871952D01*
X5591952Y9140300D02*
X5871952D01*
X4955200Y8841200D02*
Y8868700D01*
Y9063700D02*
Y9091200D01*
X4595200D02*
X4955200D01*
X4595200Y8841200D02*
Y8868700D01*
Y9063700D02*
Y9091200D01*
Y8841200D02*
X4955200D01*
X6842100D02*
Y8868700D01*
Y9063700D02*
Y9091200D01*
X6442100D02*
X6842100D01*
X6442100Y8841200D02*
Y8868700D01*
Y9063700D02*
Y9091200D01*
Y8841200D02*
X6842100D01*
D30*
X5987262Y8872800D02*
G03*
X5987262Y8872800I-12500J0D01*
G01*
D31*
X7814700Y8606500D02*
X7839700D01*
Y7922500D02*
Y8606500D01*
Y6506500D02*
Y7190500D01*
X7814700Y6506500D02*
X7839700D01*
X2739700Y8606500D02*
X2764700D01*
X2739700Y7956500D02*
Y8606500D01*
X2609700Y7956500D02*
X2739700D01*
X2609700Y7156500D02*
X2739700D01*
X2609700D02*
Y7956500D01*
X2739700Y6506500D02*
X2764700D01*
X2739700D02*
Y7156500D01*
X5915000Y5981700D02*
Y6081700D01*
Y5881700D02*
Y5981700D01*
X5515000Y5881700D02*
X5915000D01*
X5515000D02*
Y5981700D01*
Y6081700D01*
X5915000D01*
X5397000Y5981700D02*
X5515000D01*
X5915000D02*
X6033000D01*
X5836532Y5882351D02*
Y6080471D01*
X7348100Y5127200D02*
X7408100D01*
X7348100D02*
Y5947200D01*
X7408100D01*
Y5127200D02*
Y5947200D01*
X8408100Y5127200D02*
Y5947200D01*
X7408100Y5127200D02*
X8408100D01*
X7408100Y5947200D02*
X8408100D01*
X8015700Y6553200D02*
Y8585200D01*
X8265700D01*
X8015700Y6553200D02*
X8265700D01*
Y8585200D01*
X7374000Y9203900D02*
X8374000D01*
X7374000D02*
Y10023900D01*
X8374000D01*
Y9203900D02*
Y10023900D01*
X8434000Y9203900D02*
Y10023900D01*
X8374000D02*
X8434000D01*
X8374000Y9203900D02*
X8434000D01*
D32*
X6136640Y9521190D02*
Y9808210D01*
X6842760D01*
Y9521190D02*
Y9808210D01*
X6136640Y9521190D02*
X6842760D01*
X4663440D02*
Y9808210D01*
X5369560D01*
Y9521190D02*
Y9808210D01*
X4663440Y9521190D02*
X5369560D01*
X4663440Y5317490D02*
Y5604510D01*
X5369560D01*
Y5317490D02*
Y5604510D01*
X4663440Y5317490D02*
X5369560D01*
X6136640Y5604510D02*
X6842760D01*
X6136640Y5317490D02*
Y5604510D01*
Y5317490D02*
X6842760D01*
Y5604510D01*
X8578850Y6362700D02*
X9480550D01*
X8578850D02*
Y8775700D01*
X9480550D01*
Y6362700D02*
Y8775700D01*
D33*
X9055075Y10020251D02*
X9004292D01*
X8978900Y9994859D01*
Y9893292D01*
X9004292Y9867900D01*
X9055075D01*
X9080467Y9893292D01*
Y9994859D01*
X9055075Y10020251D01*
X9131251D02*
Y9893292D01*
X9156643Y9867900D01*
X9207426D01*
X9232818Y9893292D01*
Y10020251D01*
X9283601D02*
X9385169D01*
X9334385D01*
Y9867900D01*
X8928100Y5321251D02*
X8978883D01*
X8953492D01*
Y5168900D01*
X8928100D01*
X8978883D01*
X9055059D02*
Y5321251D01*
X9156626Y5168900D01*
Y5321251D01*
X5080033Y6299175D02*
Y6146825D01*
X5156208D01*
X5181600Y6172217D01*
Y6273783D01*
X5156208Y6299175D01*
X5080033D01*
X5232384Y6146825D02*
X5283167D01*
X5257776D01*
Y6299175D01*
X5232384Y6273783D01*
X2755941Y8889975D02*
Y8763017D01*
X2781333Y8737625D01*
X2832117D01*
X2857508Y8763017D01*
Y8889975D01*
X3009859Y8737625D02*
X2908292D01*
X3009859Y8839192D01*
Y8864583D01*
X2984467Y8889975D01*
X2933684D01*
X2908292Y8864583D01*
X5537200Y9377631D02*
Y9250672D01*
X5562592Y9225280D01*
X5613375D01*
X5638767Y9250672D01*
Y9377631D01*
X5689551Y9225280D02*
X5740334D01*
X5714943D01*
Y9377631D01*
X5689551Y9352239D01*
X5824220Y9911080D02*
Y10063431D01*
X5900395D01*
X5925787Y10038039D01*
Y9987255D01*
X5900395Y9961863D01*
X5824220D01*
X5875003D02*
X5925787Y9911080D01*
X6078138Y10063431D02*
X5976571D01*
Y9987255D01*
X6027354Y10012647D01*
X6052746D01*
X6078138Y9987255D01*
Y9936472D01*
X6052746Y9911080D01*
X6001963D01*
X5976571Y9936472D01*
X4351020Y9911080D02*
Y10063431D01*
X4427195D01*
X4452587Y10038039D01*
Y9987255D01*
X4427195Y9961863D01*
X4351020D01*
X4401803D02*
X4452587Y9911080D01*
X4579546D02*
Y10063431D01*
X4503371Y9987255D01*
X4604938D01*
X4673641Y5676925D02*
Y5829275D01*
X4749817D01*
X4775208Y5803883D01*
Y5753100D01*
X4749817Y5727708D01*
X4673641D01*
X4724425D02*
X4775208Y5676925D01*
X4825992Y5803883D02*
X4851384Y5829275D01*
X4902167D01*
X4927559Y5803883D01*
Y5778492D01*
X4902167Y5753100D01*
X4876775D01*
X4902167D01*
X4927559Y5727708D01*
Y5702317D01*
X4902167Y5676925D01*
X4851384D01*
X4825992Y5702317D01*
X6146841Y5676925D02*
Y5829275D01*
X6223017D01*
X6248408Y5803883D01*
Y5753100D01*
X6223017Y5727708D01*
X6146841D01*
X6197625D02*
X6248408Y5676925D01*
X6400759D02*
X6299192D01*
X6400759Y5778492D01*
Y5803883D01*
X6375367Y5829275D01*
X6324584D01*
X6299192Y5803883D01*
X8580120Y9357360D02*
Y9509711D01*
X8656295D01*
X8681687Y9484319D01*
Y9433535D01*
X8656295Y9408143D01*
X8580120D01*
X8630903D02*
X8681687Y9357360D01*
X8732471D02*
X8783254D01*
X8757863D01*
Y9509711D01*
X8732471Y9484319D01*
X4147787Y9311591D02*
X4097003D01*
X4122395D01*
Y9184632D01*
X4097003Y9159240D01*
X4071612D01*
X4046220Y9184632D01*
X4198571Y9286199D02*
X4223963Y9311591D01*
X4274746D01*
X4300138Y9286199D01*
Y9260807D01*
X4274746Y9235415D01*
X4249354D01*
X4274746D01*
X4300138Y9210023D01*
Y9184632D01*
X4274746Y9159240D01*
X4223963D01*
X4198571Y9184632D01*
X8636008Y10020275D02*
X8585225D01*
X8610617D01*
Y9893317D01*
X8585225Y9867925D01*
X8559833D01*
X8534441Y9893317D01*
X8788359Y9867925D02*
X8686792D01*
X8788359Y9969492D01*
Y9994883D01*
X8762967Y10020275D01*
X8712184D01*
X8686792Y9994883D01*
X8623300Y5321275D02*
X8572517D01*
X8597908D01*
Y5194317D01*
X8572517Y5168925D01*
X8547125D01*
X8521733Y5194317D01*
X8674084Y5168925D02*
X8724867D01*
X8699476D01*
Y5321275D01*
X8674084Y5295883D01*
X4696427Y9314139D02*
X4671035Y9339531D01*
X4620252D01*
X4594860Y9314139D01*
Y9212572D01*
X4620252Y9187180D01*
X4671035D01*
X4696427Y9212572D01*
X4848778Y9187180D02*
X4747211D01*
X4848778Y9288747D01*
Y9314139D01*
X4823386Y9339531D01*
X4772603D01*
X4747211Y9314139D01*
X6438867D02*
X6413475Y9339531D01*
X6362692D01*
X6337300Y9314139D01*
Y9212572D01*
X6362692Y9187180D01*
X6413475D01*
X6438867Y9212572D01*
X6489651Y9187180D02*
X6540434D01*
X6515043D01*
Y9339531D01*
X6489651Y9314139D01*
%TF.MD5,027e4a36c28aa7089c5992459e341e46*%
M02*
