M48
;Layer_Color=9474304
;FILE_FORMAT=2:5
INCH,LZ
;TYPE=PLATED
T1F00S00C0.01575
T2F00S00C0.02756
T3F00S00C0.03150
T4F00S00C0.03400
T5F00S00C0.04213
T6F00S00C0.04724
T7F00S00C0.04800
%
T01
X0183Y0271
X0233256Y0270756
X0283Y02705
X0293Y02975
X0133Y0271
X01335Y0324
X0153339Y0325925
X01735Y0347
X01825
X0221Y03455
X02385Y03535
X02445Y03515
X0233425Y03255
X02935Y03235
X02835Y0348
T02
X0175Y0352579
Y0362421
X0196Y0368342
Y0348657
T03
X0205858Y02175
X0238142
T04
X01705Y0233
X02165
X02285
X02745
X02785Y03805
X02325
X02205
X01745
T05
X03205Y0263
Y0273
Y0283
Y0293
Y0303
Y0313
Y0323
Y0333
T06
X03225Y0222
X0302815
X0300315Y03745
X032
T07
X0354Y02335
Y03585
M30
