%TF.GenerationSoftware,Altium Limited,Altium Designer,23.0.1 (38)*%
G04 Layer_Physical_Order=2*
G04 Layer_Color=16711680*
%FSLAX45Y45*%
%MOMM*%
%TF.SameCoordinates,E21AF8FC-8B61-408E-9598-FC2968858709*%
%TF.FilePolarity,Positive*%
%TF.FileFunction,Copper,L2,Bot,Signal*%
%TF.Part,Single*%
G01*
G75*
%TA.AperFunction,Conductor*%
%ADD16C,0.25400*%
%TA.AperFunction,ComponentPad*%
%ADD17R,1.20000X1.20000*%
%ADD18C,1.20000*%
%ADD19C,1.37160*%
%ADD20R,1.37160X1.37160*%
%ADD21C,1.80000*%
%ADD22R,1.80000X1.80000*%
%ADD23C,1.60500*%
%ADD24R,1.60500X1.60500*%
%ADD25C,1.72720*%
%ADD26R,1.72720X1.72720*%
%TA.AperFunction,ViaPad*%
%ADD27C,1.27000*%
%TA.AperFunction,Conductor*%
%ADD28C,2.50000*%
G36*
X9537700Y5041900D02*
X2679700D01*
Y10172700D01*
X9537700D01*
Y5041900D01*
D02*
G37*
%LPC*%
G36*
X7111400Y9751568D02*
Y9702200D01*
X7160768D01*
X7149103Y9722405D01*
X7131605Y9739903D01*
X7111400Y9751568D01*
D02*
G37*
G36*
X7036400D02*
X7016195Y9739903D01*
X6998697Y9722405D01*
X6987032Y9702200D01*
X7036400D01*
Y9751568D01*
D02*
G37*
G36*
X7661500Y9723322D02*
Y9651400D01*
X7733422D01*
X7731535Y9658443D01*
X7716343Y9684757D01*
X7694857Y9706243D01*
X7668543Y9721435D01*
X7661500Y9723322D01*
D02*
G37*
G36*
X7586500D02*
X7579457Y9721435D01*
X7553143Y9706243D01*
X7531657Y9684757D01*
X7516465Y9658443D01*
X7514578Y9651400D01*
X7586500D01*
Y9723322D01*
D02*
G37*
G36*
X7160768Y9627200D02*
X7111400D01*
Y9577832D01*
X7131605Y9589497D01*
X7149103Y9606995D01*
X7160768Y9627200D01*
D02*
G37*
G36*
X7036400D02*
X6987032D01*
X6998697Y9606995D01*
X7016195Y9589497D01*
X7036400Y9577832D01*
Y9627200D01*
D02*
G37*
G36*
X5999480Y9758680D02*
X5811520D01*
Y9570720D01*
X5999480D01*
Y9758680D01*
D02*
G37*
G36*
X5613073D02*
X5588327D01*
X5564425Y9752275D01*
X5542995Y9739903D01*
X5525497Y9722405D01*
X5513125Y9700975D01*
X5506720Y9677073D01*
Y9652327D01*
X5513125Y9628425D01*
X5525497Y9606995D01*
X5542995Y9589497D01*
X5564425Y9577125D01*
X5588327Y9570720D01*
X5613073D01*
X5636975Y9577125D01*
X5658405Y9589497D01*
X5675903Y9606995D01*
X5688275Y9628425D01*
X5694680Y9652327D01*
Y9677073D01*
X5688275Y9700975D01*
X5675903Y9722405D01*
X5658405Y9739903D01*
X5636975Y9752275D01*
X5613073Y9758680D01*
D02*
G37*
G36*
X4526280D02*
X4338320D01*
Y9570720D01*
X4526280D01*
Y9758680D01*
D02*
G37*
G36*
X7733422Y9576400D02*
X7661500D01*
Y9504478D01*
X7668543Y9506365D01*
X7694857Y9521557D01*
X7716343Y9543043D01*
X7731535Y9569357D01*
X7733422Y9576400D01*
D02*
G37*
G36*
X7586500D02*
X7514578D01*
X7516465Y9569357D01*
X7531657Y9543043D01*
X7553143Y9521557D01*
X7579457Y9506365D01*
X7586500Y9504478D01*
Y9576400D01*
D02*
G37*
G36*
X6133500Y9110702D02*
Y9067200D01*
X6177002D01*
X6167138Y9084286D01*
X6150586Y9100838D01*
X6133500Y9110702D01*
D02*
G37*
G36*
X6058500D02*
X6041414Y9100838D01*
X6024862Y9084286D01*
X6014998Y9067200D01*
X6058500D01*
Y9110702D01*
D02*
G37*
G36*
X8124000Y9765028D02*
X8094516Y9762124D01*
X8066166Y9753524D01*
X8040038Y9739558D01*
X8027538Y9729300D01*
X8008600D01*
Y9710362D01*
X7998342Y9697862D01*
X7984376Y9671734D01*
X7975776Y9643384D01*
X7972872Y9613900D01*
X7975776Y9584416D01*
X7984376Y9556066D01*
X7998342Y9529938D01*
X8008600Y9517438D01*
Y9498500D01*
X8025673D01*
X8474337Y9049837D01*
X8497238Y9031042D01*
X8523366Y9017076D01*
X8551716Y9008476D01*
X8581200Y9005572D01*
X9029700D01*
X9059184Y9008476D01*
X9087534Y9017076D01*
X9113662Y9031042D01*
X9136563Y9049837D01*
X9155358Y9072738D01*
X9169324Y9098866D01*
X9177924Y9127216D01*
X9180828Y9156700D01*
X9177924Y9186184D01*
X9169324Y9214534D01*
X9155358Y9240662D01*
X9136563Y9263563D01*
X9113662Y9282358D01*
X9087534Y9296324D01*
X9059184Y9304924D01*
X9029700Y9307828D01*
X8643799D01*
X8239400Y9712227D01*
Y9729300D01*
X8220462D01*
X8207962Y9739558D01*
X8181834Y9753524D01*
X8153484Y9762124D01*
X8124000Y9765028D01*
D02*
G37*
G36*
X4687700Y9043160D02*
Y9003700D01*
X4727160D01*
X4718537Y9018637D01*
X4702637Y9034537D01*
X4687700Y9043160D01*
D02*
G37*
G36*
X4612700D02*
X4597763Y9034537D01*
X4581863Y9018637D01*
X4573240Y9003700D01*
X4612700D01*
Y9043160D01*
D02*
G37*
G36*
X6977500Y9051600D02*
X6806700D01*
Y9005047D01*
X6530834D01*
X6515968Y9002089D01*
X6503366Y8993669D01*
X6489667Y8979970D01*
X6475742Y8984005D01*
X6471680Y8999163D01*
X6460437Y9018637D01*
X6444537Y9034537D01*
X6425063Y9045780D01*
X6403343Y9051600D01*
X6380857D01*
X6359137Y9045780D01*
X6339663Y9034537D01*
X6323763Y9018637D01*
X6312520Y8999163D01*
X6306700Y8977443D01*
Y8954957D01*
X6310762Y8939799D01*
X6147409Y8776447D01*
X5452325D01*
X5443238Y8792186D01*
X5426686Y8808738D01*
X5406414Y8820442D01*
X5383804Y8826500D01*
X5360396D01*
X5337786Y8820442D01*
X5322047Y8811354D01*
X5309347Y8817368D01*
Y8855770D01*
X5317514Y8857958D01*
X5337786Y8869662D01*
X5354338Y8886214D01*
X5366042Y8906486D01*
X5372100Y8929096D01*
Y8952504D01*
X5366042Y8975114D01*
X5354338Y8995386D01*
X5337786Y9011938D01*
X5317514Y9023642D01*
X5294904Y9029700D01*
X5271496D01*
X5248886Y9023642D01*
X5228614Y9011938D01*
X5212062Y8995386D01*
X5200358Y8975114D01*
X5194300Y8952504D01*
Y8929096D01*
X5200358Y8906486D01*
X5212062Y8886214D01*
X5228614Y8869662D01*
X5231653Y8867907D01*
Y8753762D01*
X5218953Y8752090D01*
X5213642Y8771914D01*
X5201938Y8792186D01*
X5185386Y8808738D01*
X5165114Y8820442D01*
X5142504Y8826500D01*
X5119096D01*
X5096486Y8820442D01*
X5076214Y8808738D01*
X5059662Y8792186D01*
X5047958Y8771914D01*
X5047471Y8770097D01*
X4178659D01*
X4173238Y8779486D01*
X4156686Y8796038D01*
X4136414Y8807742D01*
X4113804Y8813800D01*
X4090396D01*
X4067786Y8807742D01*
X4047514Y8796038D01*
X4030962Y8779486D01*
X4019258Y8759214D01*
X4013200Y8736604D01*
Y8713196D01*
X4019258Y8690586D01*
X4030962Y8670314D01*
X4047514Y8653762D01*
X4067786Y8642058D01*
X4090396Y8636000D01*
X4113804D01*
X4136414Y8642058D01*
X4156686Y8653762D01*
X4173238Y8670314D01*
X4184942Y8690586D01*
X4185429Y8692403D01*
X5054241D01*
X5059662Y8683014D01*
X5076214Y8666462D01*
X5096486Y8654758D01*
X5119096Y8648700D01*
X5142504D01*
X5165114Y8654758D01*
X5185386Y8666462D01*
X5201938Y8683014D01*
X5213642Y8703286D01*
X5218953Y8723110D01*
X5231653Y8721438D01*
Y8695516D01*
X5234611Y8680650D01*
X5243031Y8668047D01*
X5302547Y8608531D01*
X5315150Y8600111D01*
X5330016Y8597153D01*
X6200634D01*
X6215500Y8600111D01*
X6228103Y8608531D01*
X6546925Y8927353D01*
X6806700D01*
Y8880800D01*
X6977500D01*
Y9051600D01*
D02*
G37*
G36*
X6177002Y8992200D02*
X6133500D01*
Y8948698D01*
X6150586Y8958562D01*
X6167138Y8975114D01*
X6177002Y8992200D01*
D02*
G37*
G36*
X6058500D02*
X6014998D01*
X6024862Y8975114D01*
X6041414Y8958562D01*
X6058500Y8948698D01*
Y8992200D01*
D02*
G37*
G36*
X4727160Y8928700D02*
X4687700D01*
Y8889240D01*
X4702637Y8897863D01*
X4718537Y8913763D01*
X4727160Y8928700D01*
D02*
G37*
G36*
X4612700D02*
X4573240D01*
X4581863Y8913763D01*
X4597763Y8897863D01*
X4612700Y8889240D01*
Y8928700D01*
D02*
G37*
G36*
X4985600Y9051600D02*
X4814800D01*
Y8880800D01*
X4985600D01*
Y9051600D01*
D02*
G37*
G36*
X7225700Y8844002D02*
Y8800500D01*
X7269202D01*
X7259338Y8817586D01*
X7242786Y8834138D01*
X7225700Y8844002D01*
D02*
G37*
G36*
X7150700D02*
X7133614Y8834138D01*
X7117062Y8817586D01*
X7107198Y8800500D01*
X7150700D01*
Y8844002D01*
D02*
G37*
G36*
X7269202Y8725500D02*
X7225700D01*
Y8681998D01*
X7242786Y8691862D01*
X7259338Y8708414D01*
X7269202Y8725500D01*
D02*
G37*
G36*
X7150700D02*
X7107198D01*
X7117062Y8708414D01*
X7133614Y8691862D01*
X7150700Y8681998D01*
Y8725500D01*
D02*
G37*
G36*
X5968400Y8437602D02*
Y8394100D01*
X6011902D01*
X6002038Y8411186D01*
X5985486Y8427738D01*
X5968400Y8437602D01*
D02*
G37*
G36*
X5893400D02*
X5876314Y8427738D01*
X5859762Y8411186D01*
X5849898Y8394100D01*
X5893400D01*
Y8437602D01*
D02*
G37*
G36*
X3428400Y8424902D02*
Y8381400D01*
X3471902D01*
X3462038Y8398486D01*
X3445486Y8415038D01*
X3428400Y8424902D01*
D02*
G37*
G36*
X3353400D02*
X3336314Y8415038D01*
X3319762Y8398486D01*
X3309898Y8381400D01*
X3353400D01*
Y8424902D01*
D02*
G37*
G36*
X6011902Y8319100D02*
X5968400D01*
Y8275598D01*
X5985486Y8285462D01*
X6002038Y8302014D01*
X6011902Y8319100D01*
D02*
G37*
G36*
X5893400D02*
X5849898D01*
X5859762Y8302014D01*
X5876314Y8285462D01*
X5893400Y8275598D01*
Y8319100D01*
D02*
G37*
G36*
X3471902Y8306400D02*
X3428400D01*
Y8262898D01*
X3445486Y8272762D01*
X3462038Y8289314D01*
X3471902Y8306400D01*
D02*
G37*
G36*
X3353400D02*
X3309898D01*
X3319762Y8289314D01*
X3336314Y8272762D01*
X3353400Y8262898D01*
Y8306400D01*
D02*
G37*
G36*
X8246350Y8563850D02*
X8035050D01*
Y8352550D01*
X8101853D01*
Y8339850D01*
X8104811Y8324984D01*
X8109274Y8318304D01*
X8104742Y8303942D01*
X8099921Y8302650D01*
X8075829Y8288741D01*
X8056159Y8269071D01*
X8042250Y8244979D01*
X8035050Y8218109D01*
Y8190291D01*
X8042250Y8163421D01*
X8056159Y8139329D01*
X8075829Y8119659D01*
X8099921Y8105750D01*
X8126791Y8098550D01*
X8154609D01*
X8181479Y8105750D01*
X8205571Y8119659D01*
X8208470Y8122559D01*
X8220204Y8117698D01*
Y8036702D01*
X8208470Y8031841D01*
X8205571Y8034741D01*
X8181479Y8048650D01*
X8154609Y8055850D01*
X8126791D01*
X8099921Y8048650D01*
X8075829Y8034741D01*
X8056159Y8015071D01*
X8042250Y7990979D01*
X8035050Y7964109D01*
Y7936291D01*
X8042250Y7909421D01*
X8056159Y7885329D01*
X8075829Y7865659D01*
X8099921Y7851750D01*
X8126791Y7844550D01*
X8154609D01*
X8181479Y7851750D01*
X8205571Y7865659D01*
X8208470Y7868559D01*
X8220204Y7863698D01*
Y7782702D01*
X8208470Y7777841D01*
X8205571Y7780741D01*
X8181479Y7794650D01*
X8154609Y7801850D01*
X8126791D01*
X8099921Y7794650D01*
X8075829Y7780741D01*
X8056159Y7761071D01*
X8042250Y7736979D01*
X8035050Y7710109D01*
Y7682291D01*
X8042250Y7655421D01*
X8056159Y7631329D01*
X8075829Y7611659D01*
X8099921Y7597750D01*
X8126791Y7590550D01*
X8154609D01*
X8181479Y7597750D01*
X8205571Y7611659D01*
X8208470Y7614559D01*
X8220204Y7609698D01*
Y7528702D01*
X8208470Y7523841D01*
X8205571Y7526741D01*
X8181479Y7540650D01*
X8154609Y7547850D01*
X8126791D01*
X8099921Y7540650D01*
X8075829Y7526741D01*
X8056159Y7507071D01*
X8042250Y7482979D01*
X8035050Y7456109D01*
Y7428291D01*
X8042250Y7401421D01*
X8056159Y7377329D01*
X8075829Y7357659D01*
X8099921Y7343750D01*
X8126791Y7336550D01*
X8154609D01*
X8181479Y7343750D01*
X8205571Y7357659D01*
X8208470Y7360559D01*
X8220204Y7355698D01*
Y7274702D01*
X8208470Y7269841D01*
X8205571Y7272741D01*
X8181479Y7286650D01*
X8154609Y7293850D01*
X8126791D01*
X8099921Y7286650D01*
X8075829Y7272741D01*
X8056159Y7253071D01*
X8042250Y7228979D01*
X8035050Y7202109D01*
Y7174291D01*
X8042250Y7147421D01*
X8056159Y7123329D01*
X8075829Y7103659D01*
X8099921Y7089750D01*
X8126791Y7082550D01*
X8154609D01*
X8181479Y7089750D01*
X8205571Y7103659D01*
X8208470Y7106559D01*
X8220204Y7101698D01*
Y7020702D01*
X8208470Y7015841D01*
X8205571Y7018741D01*
X8181479Y7032650D01*
X8178200Y7033529D01*
Y6934200D01*
Y6834871D01*
X8181479Y6835750D01*
X8205571Y6849659D01*
X8208470Y6852559D01*
X8220204Y6847698D01*
Y6814641D01*
X8183212Y6777650D01*
X8181479Y6778650D01*
X8154609Y6785850D01*
X8126791D01*
X8099921Y6778650D01*
X8075829Y6764741D01*
X8056159Y6745071D01*
X8042250Y6720979D01*
X8035050Y6694109D01*
Y6666291D01*
X8042250Y6639421D01*
X8056159Y6615329D01*
X8075829Y6595659D01*
X8099921Y6581750D01*
X8126791Y6574550D01*
X8154609D01*
X8181479Y6581750D01*
X8205571Y6595659D01*
X8225241Y6615329D01*
X8239150Y6639421D01*
X8246350Y6666291D01*
Y6694109D01*
X8239150Y6720979D01*
X8238150Y6722712D01*
X8286519Y6771081D01*
X8294939Y6783684D01*
X8297897Y6798550D01*
Y8253222D01*
X8294939Y8268088D01*
X8286519Y8280691D01*
X8227359Y8339850D01*
X8232620Y8352550D01*
X8246350D01*
Y8563850D01*
D02*
G37*
G36*
X7555900Y7637502D02*
Y7594000D01*
X7599402D01*
X7589538Y7611086D01*
X7572986Y7627638D01*
X7555900Y7637502D01*
D02*
G37*
G36*
X7480900D02*
X7463814Y7627638D01*
X7447262Y7611086D01*
X7437398Y7594000D01*
X7480900D01*
Y7637502D01*
D02*
G37*
G36*
X7599402Y7519000D02*
X7555900D01*
Y7475498D01*
X7572986Y7485362D01*
X7589538Y7501914D01*
X7599402Y7519000D01*
D02*
G37*
G36*
X7480900D02*
X7437398D01*
X7447262Y7501914D01*
X7463814Y7485362D01*
X7480900Y7475498D01*
Y7519000D01*
D02*
G37*
G36*
X8103200Y7033529D02*
X8099921Y7032650D01*
X8075829Y7018741D01*
X8056159Y6999071D01*
X8042250Y6974979D01*
X8041371Y6971700D01*
X8103200D01*
Y7033529D01*
D02*
G37*
G36*
Y6896700D02*
X8041371D01*
X8042250Y6893421D01*
X8056159Y6869329D01*
X8075829Y6849659D01*
X8099921Y6835750D01*
X8103200Y6834871D01*
Y6896700D01*
D02*
G37*
G36*
X5955700Y6850102D02*
Y6806600D01*
X5999202D01*
X5989338Y6823686D01*
X5972786Y6840238D01*
X5955700Y6850102D01*
D02*
G37*
G36*
X5880700D02*
X5863614Y6840238D01*
X5847062Y6823686D01*
X5837198Y6806600D01*
X5880700D01*
Y6850102D01*
D02*
G37*
G36*
X7225700Y6837402D02*
Y6793900D01*
X7269202D01*
X7259338Y6810986D01*
X7242786Y6827538D01*
X7225700Y6837402D01*
D02*
G37*
G36*
X7150700D02*
X7133614Y6827538D01*
X7117062Y6810986D01*
X7107198Y6793900D01*
X7150700D01*
Y6837402D01*
D02*
G37*
G36*
X4685700D02*
Y6793900D01*
X4729202D01*
X4719338Y6810986D01*
X4702786Y6827538D01*
X4685700Y6837402D01*
D02*
G37*
G36*
X4610700D02*
X4593614Y6827538D01*
X4577062Y6810986D01*
X4567198Y6793900D01*
X4610700D01*
Y6837402D01*
D02*
G37*
G36*
X3415700D02*
Y6793900D01*
X3459202D01*
X3449338Y6810986D01*
X3432786Y6827538D01*
X3415700Y6837402D01*
D02*
G37*
G36*
X3340700D02*
X3323614Y6827538D01*
X3307062Y6810986D01*
X3297198Y6793900D01*
X3340700D01*
Y6837402D01*
D02*
G37*
G36*
X5999202Y6731600D02*
X5955700D01*
Y6688098D01*
X5972786Y6697962D01*
X5989338Y6714514D01*
X5999202Y6731600D01*
D02*
G37*
G36*
X5880700D02*
X5837198D01*
X5847062Y6714514D01*
X5863614Y6697962D01*
X5880700Y6688098D01*
Y6731600D01*
D02*
G37*
G36*
X7269202Y6718900D02*
X7225700D01*
Y6675398D01*
X7242786Y6685262D01*
X7259338Y6701814D01*
X7269202Y6718900D01*
D02*
G37*
G36*
X7150700D02*
X7107198D01*
X7117062Y6701814D01*
X7133614Y6685262D01*
X7150700Y6675398D01*
Y6718900D01*
D02*
G37*
G36*
X4729202D02*
X4685700D01*
Y6675398D01*
X4702786Y6685262D01*
X4719338Y6701814D01*
X4729202Y6718900D01*
D02*
G37*
G36*
X4610700D02*
X4567198D01*
X4577062Y6701814D01*
X4593614Y6685262D01*
X4610700Y6675398D01*
Y6718900D01*
D02*
G37*
G36*
X3459202D02*
X3415700D01*
Y6675398D01*
X3432786Y6685262D01*
X3449338Y6701814D01*
X3459202Y6718900D01*
D02*
G37*
G36*
X3340700D02*
X3297198D01*
X3307062Y6701814D01*
X3323614Y6685262D01*
X3340700Y6675398D01*
Y6718900D01*
D02*
G37*
G36*
X3897904Y8432800D02*
X3874496D01*
X3851886Y8426742D01*
X3831614Y8415038D01*
X3815062Y8398486D01*
X3803358Y8378214D01*
X3797300Y8355604D01*
Y8332196D01*
X3803358Y8309586D01*
X3815062Y8289314D01*
X3831614Y8272762D01*
X3851886Y8261058D01*
X3874496Y8255000D01*
X3897904D01*
X3915459Y8259704D01*
X5814531Y6360631D01*
X5827134Y6352211D01*
X5842000Y6349253D01*
X8060475D01*
X8069562Y6333514D01*
X8086114Y6316962D01*
X8106386Y6305258D01*
X8128996Y6299200D01*
X8152404D01*
X8175014Y6305258D01*
X8195286Y6316962D01*
X8211838Y6333514D01*
X8223542Y6353786D01*
X8229600Y6376396D01*
Y6399804D01*
X8223542Y6422414D01*
X8211838Y6442686D01*
X8195286Y6459238D01*
X8175014Y6470942D01*
X8152404Y6477000D01*
X8128996D01*
X8106386Y6470942D01*
X8086114Y6459238D01*
X8069562Y6442686D01*
X8060475Y6426947D01*
X5858091D01*
X3970396Y8314641D01*
X3975100Y8332196D01*
Y8355604D01*
X3969042Y8378214D01*
X3957338Y8398486D01*
X3940786Y8415038D01*
X3920514Y8426742D01*
X3897904Y8432800D01*
D02*
G37*
G36*
X5342501Y6058660D02*
Y6019200D01*
X5381961D01*
X5373337Y6034137D01*
X5357437Y6050037D01*
X5342501Y6058660D01*
D02*
G37*
G36*
X5267501Y6058661D02*
X5252563Y6050037D01*
X5236663Y6034137D01*
X5228040Y6019200D01*
X5267501D01*
Y6058661D01*
D02*
G37*
G36*
X5381961Y5944200D02*
X5342501D01*
Y5904740D01*
X5357437Y5913363D01*
X5373337Y5929263D01*
X5381961Y5944200D01*
D02*
G37*
G36*
X5267501D02*
X5228040D01*
X5236663Y5929263D01*
X5252563Y5913363D01*
X5267501Y5904739D01*
Y5944200D01*
D02*
G37*
G36*
X6210400Y6067100D02*
X6039600D01*
Y5896300D01*
X6210400D01*
Y6067100D01*
D02*
G37*
G36*
X8195600Y5646622D02*
Y5574700D01*
X8267522D01*
X8265635Y5581743D01*
X8250443Y5608057D01*
X8228957Y5629543D01*
X8202643Y5644735D01*
X8195600Y5646622D01*
D02*
G37*
G36*
X8120600D02*
X8113557Y5644735D01*
X8087243Y5629543D01*
X8065757Y5608057D01*
X8050565Y5581743D01*
X8048678Y5574700D01*
X8120600D01*
Y5646622D01*
D02*
G37*
G36*
X4526280Y5554980D02*
X4469800D01*
Y5498500D01*
X4526280D01*
Y5554980D01*
D02*
G37*
G36*
X4394800D02*
X4338320D01*
Y5498500D01*
X4394800D01*
Y5554980D01*
D02*
G37*
G36*
X8267522Y5499700D02*
X8195600D01*
Y5427778D01*
X8202643Y5429665D01*
X8228957Y5444857D01*
X8250443Y5466343D01*
X8265635Y5492657D01*
X8267522Y5499700D01*
D02*
G37*
G36*
X8120600D02*
X8048678D01*
X8050565Y5492657D01*
X8065757Y5466343D01*
X8087243Y5444857D01*
X8113557Y5429665D01*
X8120600Y5427778D01*
Y5499700D01*
D02*
G37*
G36*
X9029700Y6132828D02*
X8085846D01*
X8056363Y6129924D01*
X8028012Y6121324D01*
X8001884Y6107358D01*
X7978983Y6088563D01*
X7551237Y5660817D01*
X7544493Y5652600D01*
X7542700D01*
Y5650415D01*
X7532442Y5637916D01*
X7518476Y5611788D01*
X7509876Y5583437D01*
X7506972Y5553954D01*
Y5537200D01*
X7509876Y5507716D01*
X7518476Y5479366D01*
X7532442Y5453238D01*
X7542700Y5440738D01*
Y5421800D01*
X7561638D01*
X7574138Y5411542D01*
X7600266Y5397576D01*
X7628616Y5388976D01*
X7658100Y5386072D01*
X7687584Y5388976D01*
X7715934Y5397576D01*
X7742062Y5411542D01*
X7754562Y5421800D01*
X7773500D01*
Y5440738D01*
X7783758Y5453238D01*
X7797724Y5479366D01*
X7797935Y5480062D01*
X8148445Y5830572D01*
X9029700D01*
X9059184Y5833476D01*
X9087534Y5842076D01*
X9113662Y5856042D01*
X9130597Y5869940D01*
X9141460D01*
Y5880803D01*
X9155358Y5897738D01*
X9169324Y5923866D01*
X9177924Y5952216D01*
X9180828Y5981700D01*
X9177924Y6011184D01*
X9169324Y6039534D01*
X9155358Y6065662D01*
X9141460Y6082597D01*
Y6093460D01*
X9130597D01*
X9113662Y6107358D01*
X9087534Y6121324D01*
X9059184Y6129924D01*
X9029700Y6132828D01*
D02*
G37*
G36*
X7167880Y5554980D02*
X6979920D01*
Y5367020D01*
X7167880D01*
Y5554980D01*
D02*
G37*
G36*
X5917873D02*
X5893127D01*
X5869225Y5548575D01*
X5847795Y5536203D01*
X5830297Y5518705D01*
X5817925Y5497275D01*
X5811520Y5473373D01*
Y5448627D01*
X5817925Y5424725D01*
X5830297Y5403295D01*
X5847795Y5385797D01*
X5869225Y5373425D01*
X5893127Y5367020D01*
X5917873D01*
X5941775Y5373425D01*
X5963205Y5385797D01*
X5980703Y5403295D01*
X5993075Y5424725D01*
X5999480Y5448627D01*
Y5473373D01*
X5993075Y5497275D01*
X5980703Y5518705D01*
X5963205Y5536203D01*
X5941775Y5548575D01*
X5917873Y5554980D01*
D02*
G37*
G36*
X5613073D02*
X5588327D01*
X5564425Y5548575D01*
X5542995Y5536203D01*
X5525497Y5518705D01*
X5513125Y5497275D01*
X5506720Y5473373D01*
Y5448627D01*
X5513125Y5424725D01*
X5525497Y5403295D01*
X5542995Y5385797D01*
X5564425Y5373425D01*
X5588327Y5367020D01*
X5613073D01*
X5636975Y5373425D01*
X5658405Y5385797D01*
X5675903Y5403295D01*
X5688275Y5424725D01*
X5694680Y5448627D01*
Y5473373D01*
X5688275Y5497275D01*
X5675903Y5518705D01*
X5658405Y5536203D01*
X5636975Y5548575D01*
X5613073Y5554980D01*
D02*
G37*
G36*
X4526280Y5423500D02*
X4469800D01*
Y5367020D01*
X4526280D01*
Y5423500D01*
D02*
G37*
G36*
X4394800D02*
X4338320D01*
Y5367020D01*
X4394800D01*
Y5423500D01*
D02*
G37*
%LPD*%
G36*
X6372461Y8878902D02*
X6375992Y8866295D01*
X6184544Y8674847D01*
X5451868D01*
X5445854Y8687547D01*
X5452325Y8698753D01*
X6163500D01*
X6178366Y8701711D01*
X6190969Y8710131D01*
X6362376Y8881539D01*
X6372461Y8878902D01*
D02*
G37*
D16*
X5330016Y8636000D02*
X6200634D01*
X4108450Y8731250D02*
X5124450D01*
X8140700Y8339850D02*
X8158000Y8322550D01*
X5372100Y8737600D02*
X6163500D01*
X8259050Y6798550D02*
Y8253222D01*
X5270500Y8695516D02*
X5330016Y8636000D01*
X5270500Y8928100D02*
X5283200Y8940800D01*
X4102100Y8724900D02*
X4108450Y8731250D01*
X8140700Y8339850D02*
Y8458200D01*
X6163500Y8737600D02*
X6392100Y8966200D01*
X8189722Y8322550D02*
X8259050Y8253222D01*
X6200634Y8636000D02*
X6530834Y8966200D01*
X3886200Y8343900D02*
X5842000Y6388100D01*
X5270500Y8695516D02*
Y8928100D01*
X5124450Y8731250D02*
X5130800Y8737600D01*
X5842000Y6388100D02*
X8140700D01*
X8158000Y8322550D02*
X8189722D01*
X6530834Y8966200D02*
X6892100D01*
X8140700Y6680200D02*
X8259050Y6798550D01*
D17*
X6125000Y5981700D02*
D03*
X4900200Y8966200D02*
D03*
X6892100D02*
D03*
D18*
X5305000Y5981700D02*
D03*
X4650200Y8966200D02*
D03*
X6392100D02*
D03*
D19*
X7073900Y9664700D02*
D03*
X5600700D02*
D03*
Y5461000D02*
D03*
X5905500D02*
D03*
D20*
Y9664700D02*
D03*
X4432300D02*
D03*
Y5461000D02*
D03*
X7073900D02*
D03*
D21*
X8158100Y5537200D02*
D03*
X7624000Y9613900D02*
D03*
D22*
X7658100Y5537200D02*
D03*
X8124000Y9613900D02*
D03*
D23*
X8140700Y7442200D02*
D03*
Y6680200D02*
D03*
Y7188200D02*
D03*
Y6934200D02*
D03*
Y7696200D02*
D03*
Y8204200D02*
D03*
Y7950200D02*
D03*
D24*
Y8458200D02*
D03*
D25*
X9029700Y9156700D02*
D03*
D26*
Y5981700D02*
D03*
D27*
X8140700Y6388100D02*
D03*
X5930900Y8356600D02*
D03*
X4648200Y6756400D02*
D03*
X6096000Y9029700D02*
D03*
X5918200Y6769100D02*
D03*
X4102100Y8724900D02*
D03*
X3886200Y8343900D02*
D03*
X5130800Y8737600D02*
D03*
X5372100D02*
D03*
X7188200Y6756400D02*
D03*
X7518400Y7556500D02*
D03*
X3378200Y6756400D02*
D03*
X7188200Y8763000D02*
D03*
X3390900Y8343900D02*
D03*
X5283200Y8940800D02*
D03*
D28*
X8124000Y9613900D02*
X8581200Y9156700D01*
X8085846Y5981700D02*
X9029700D01*
X7658100Y5553954D02*
X8085846Y5981700D01*
X8581200Y9156700D02*
X9029700D01*
X7658100Y5537200D02*
Y5553954D01*
%TF.MD5,f118e9ae179a6a209211ef949fc89c5a*%
M02*
