G04*
G04 #@! TF.GenerationSoftware,Altium Limited,Altium Designer,23.0.1 (38)*
G04*
G04 Layer_Color=8388736*
%FSLAX25Y25*%
%MOIN*%
G70*
G04*
G04 #@! TF.SameCoordinates,BC8FEE28-448D-4E3F-B38E-86C11A945C97*
G04*
G04*
G04 #@! TF.FilePolarity,Negative*
G04*
G01*
G75*
G04:AMPARAMS|DCode=16|XSize=59.06mil|YSize=15.35mil|CornerRadius=7.68mil|HoleSize=0mil|Usage=FLASHONLY|Rotation=180.000|XOffset=0mil|YOffset=0mil|HoleType=Round|Shape=RoundedRectangle|*
%AMROUNDEDRECTD16*
21,1,0.05906,0.00000,0,0,180.0*
21,1,0.04370,0.01535,0,0,180.0*
1,1,0.01535,-0.02185,0.00000*
1,1,0.01535,0.02185,0.00000*
1,1,0.01535,0.02185,0.00000*
1,1,0.01535,-0.02185,0.00000*
%
%ADD16ROUNDEDRECTD16*%
%ADD17R,0.05906X0.01535*%
%ADD19R,0.02800X0.01800*%
%ADD20C,0.07119*%
%ADD21R,0.07119X0.07119*%
%ADD22C,0.04724*%
%ADD23R,0.04724X0.04724*%
%ADD24C,0.07887*%
%ADD25R,0.07887X0.07887*%
%ADD26R,0.05400X0.05400*%
%ADD27C,0.06800*%
%ADD28R,0.06800X0.06800*%
%ADD29C,0.05400*%
%ADD30R,0.05524X0.05524*%
%ADD31C,0.05524*%
%ADD32C,0.03950*%
G36*
X138480Y385952D02*
X137649D01*
Y386689D01*
X138480D01*
Y385952D01*
D02*
G37*
G36*
X134128Y385449D02*
X134179D01*
X134238Y385442D01*
X134383Y385420D01*
X134544Y385391D01*
X134711Y385340D01*
X134872Y385267D01*
X135018Y385172D01*
X135025D01*
X135032Y385158D01*
X135076Y385121D01*
X135134Y385056D01*
X135200Y384976D01*
X135265Y384866D01*
X135324Y384735D01*
X135368Y384582D01*
X135375Y384494D01*
X135382Y384407D01*
Y382978D01*
X135542D01*
X135586Y382971D01*
X135637Y382963D01*
X135761Y382934D01*
X135819Y382912D01*
X135863Y382876D01*
X135871Y382869D01*
X135878Y382861D01*
X135900Y382840D01*
X135922Y382810D01*
X135958Y382730D01*
X135965Y382686D01*
X135972Y382628D01*
Y382621D01*
Y382606D01*
X135965Y382577D01*
X135958Y382541D01*
X135943Y382504D01*
X135929Y382460D01*
X135900Y382417D01*
X135863Y382380D01*
X135856Y382373D01*
X135841Y382366D01*
X135812Y382351D01*
X135776Y382337D01*
X135725Y382315D01*
X135666Y382300D01*
X135586Y382293D01*
X135499Y382285D01*
X134689D01*
Y382446D01*
X134675Y382439D01*
X134646Y382424D01*
X134587Y382402D01*
X134522Y382366D01*
X134434Y382337D01*
X134332Y382300D01*
X134223Y382271D01*
X134106Y382242D01*
X134092D01*
X134055Y382235D01*
X133997Y382220D01*
X133917Y382213D01*
X133829Y382198D01*
X133735Y382184D01*
X133530Y382176D01*
X133479D01*
X133436Y382184D01*
X133392D01*
X133334Y382191D01*
X133210Y382213D01*
X133064Y382249D01*
X132918Y382300D01*
X132765Y382373D01*
X132626Y382468D01*
X132619D01*
X132612Y382482D01*
X132575Y382519D01*
X132517Y382577D01*
X132451Y382657D01*
X132386Y382759D01*
X132335Y382869D01*
X132291Y382993D01*
X132284Y383058D01*
X132276Y383124D01*
Y383131D01*
Y383146D01*
Y383168D01*
X132284Y383197D01*
X132298Y383277D01*
X132335Y383386D01*
X132386Y383510D01*
X132422Y383576D01*
X132466Y383642D01*
X132517Y383714D01*
X132575Y383787D01*
X132641Y383853D01*
X132721Y383926D01*
X132729Y383933D01*
X132743Y383940D01*
X132765Y383962D01*
X132801Y383984D01*
X132845Y384013D01*
X132903Y384042D01*
X132969Y384079D01*
X133042Y384115D01*
X133122Y384152D01*
X133217Y384188D01*
X133319Y384217D01*
X133428Y384246D01*
X133545Y384268D01*
X133676Y384290D01*
X133807Y384298D01*
X133953Y384305D01*
X134077D01*
X134165Y384298D01*
X134274Y384290D01*
X134398Y384276D01*
X134536Y384254D01*
X134689Y384232D01*
Y384400D01*
Y384407D01*
Y384429D01*
X134682Y384458D01*
X134675Y384494D01*
X134653Y384531D01*
X134631Y384582D01*
X134595Y384618D01*
X134551Y384662D01*
X134544Y384669D01*
X134522Y384677D01*
X134493Y384691D01*
X134442Y384713D01*
X134369Y384735D01*
X134281Y384750D01*
X134172Y384757D01*
X134041Y384764D01*
X133982D01*
X133917Y384757D01*
X133829Y384750D01*
X133713Y384735D01*
X133574Y384713D01*
X133414Y384684D01*
X133239Y384640D01*
X133231D01*
X133210Y384633D01*
X133173Y384626D01*
X133137Y384618D01*
X133042Y384604D01*
X132998Y384596D01*
X132933D01*
X132903Y384604D01*
X132874Y384611D01*
X132801Y384640D01*
X132758Y384662D01*
X132721Y384691D01*
X132714Y384699D01*
X132707Y384713D01*
X132692Y384735D01*
X132677Y384764D01*
X132641Y384844D01*
X132634Y384888D01*
X132626Y384946D01*
Y384954D01*
Y384961D01*
X132634Y384997D01*
X132641Y385048D01*
X132656Y385100D01*
X132663Y385114D01*
X132685Y385136D01*
X132714Y385172D01*
X132750Y385202D01*
X132765Y385209D01*
X132780Y385216D01*
X132809Y385231D01*
X132845Y385245D01*
X132889Y385260D01*
X132940Y385274D01*
X133005Y385296D01*
X133020D01*
X133049Y385311D01*
X133100Y385326D01*
X133166Y385340D01*
X133246Y385355D01*
X133334Y385377D01*
X133530Y385413D01*
X133545D01*
X133574Y385420D01*
X133625Y385427D01*
X133691Y385435D01*
X133771Y385442D01*
X133851Y385449D01*
X134019Y385457D01*
X134077D01*
X134128Y385449D01*
D02*
G37*
G36*
X115014Y386390D02*
X115065Y386383D01*
X115189Y386353D01*
X115247Y386332D01*
X115291Y386295D01*
X115298Y386288D01*
X115305Y386280D01*
X115327Y386259D01*
X115349Y386229D01*
X115386Y386149D01*
X115393Y386105D01*
X115400Y386047D01*
Y386040D01*
Y386025D01*
X115393Y385996D01*
X115386Y385960D01*
X115371Y385923D01*
X115356Y385879D01*
X115327Y385836D01*
X115291Y385799D01*
X115284Y385792D01*
X115269Y385785D01*
X115240Y385770D01*
X115203Y385756D01*
X115152Y385734D01*
X115094Y385719D01*
X115014Y385712D01*
X114926Y385704D01*
X114518D01*
Y383590D01*
Y383583D01*
Y383576D01*
Y383554D01*
Y383525D01*
X114511Y383452D01*
X114504Y383364D01*
X114482Y383262D01*
X114460Y383160D01*
X114423Y383051D01*
X114380Y382956D01*
Y382949D01*
X114372Y382942D01*
X114343Y382898D01*
X114292Y382832D01*
X114226Y382745D01*
X114146Y382657D01*
X114044Y382563D01*
X113928Y382468D01*
X113789Y382380D01*
X113782D01*
X113775Y382373D01*
X113753Y382358D01*
X113724Y382351D01*
X113651Y382315D01*
X113549Y382278D01*
X113425Y382242D01*
X113293Y382205D01*
X113140Y382184D01*
X112987Y382176D01*
X112929D01*
X112885Y382184D01*
X112834Y382191D01*
X112761Y382198D01*
X112688Y382213D01*
X112593Y382235D01*
X112499Y382256D01*
X112382Y382285D01*
X112266Y382329D01*
X112127Y382373D01*
X111988Y382424D01*
X111835Y382482D01*
X111675Y382555D01*
X111500Y382635D01*
Y383780D01*
Y383795D01*
Y383824D01*
X111507Y383868D01*
X111515Y383918D01*
X111544Y384035D01*
X111566Y384093D01*
X111595Y384137D01*
X111602Y384144D01*
X111609Y384152D01*
X111631Y384174D01*
X111660Y384195D01*
X111741Y384232D01*
X111792Y384239D01*
X111843Y384246D01*
X111872D01*
X111894Y384239D01*
X111930Y384232D01*
X111974Y384217D01*
X112010Y384203D01*
X112054Y384174D01*
X112091Y384137D01*
X112098Y384130D01*
X112105Y384115D01*
X112120Y384086D01*
X112142Y384050D01*
X112163Y383999D01*
X112178Y383940D01*
X112185Y383860D01*
X112193Y383773D01*
Y383095D01*
X112200D01*
X112214Y383087D01*
X112236Y383073D01*
X112273Y383058D01*
X112317Y383044D01*
X112360Y383022D01*
X112470Y382985D01*
X112601Y382942D01*
X112739Y382905D01*
X112878Y382876D01*
X113009Y382869D01*
X113038D01*
X113075Y382876D01*
X113126D01*
X113177Y382891D01*
X113242Y382905D01*
X113308Y382920D01*
X113381Y382949D01*
X113388Y382956D01*
X113410Y382963D01*
X113446Y382978D01*
X113490Y383007D01*
X113585Y383066D01*
X113636Y383102D01*
X113672Y383146D01*
X113680Y383153D01*
X113687Y383168D01*
X113709Y383190D01*
X113731Y383219D01*
X113775Y383292D01*
X113804Y383379D01*
X113811Y383394D01*
Y383408D01*
X113818Y383437D01*
Y383474D01*
X113826Y383525D01*
Y383590D01*
Y383671D01*
Y385704D01*
X112936D01*
X112892Y385712D01*
X112834Y385719D01*
X112710Y385748D01*
X112659Y385770D01*
X112608Y385799D01*
X112601Y385807D01*
X112593Y385814D01*
X112579Y385836D01*
X112557Y385865D01*
X112521Y385945D01*
X112513Y385996D01*
X112506Y386047D01*
Y386054D01*
Y386076D01*
X112513Y386098D01*
X112521Y386135D01*
X112550Y386215D01*
X112572Y386259D01*
X112608Y386295D01*
X112615Y386302D01*
X112630Y386310D01*
X112659Y386324D01*
X112696Y386346D01*
X112747Y386368D01*
X112812Y386383D01*
X112892Y386390D01*
X112980Y386397D01*
X114970D01*
X115014Y386390D01*
D02*
G37*
G36*
X138575Y382978D02*
X139450D01*
X139494Y382971D01*
X139545Y382963D01*
X139669Y382934D01*
X139727Y382912D01*
X139771Y382876D01*
X139778Y382869D01*
X139785Y382861D01*
X139807Y382840D01*
X139829Y382810D01*
X139865Y382730D01*
X139873Y382686D01*
X139880Y382628D01*
Y382621D01*
Y382606D01*
X139873Y382577D01*
X139865Y382541D01*
X139851Y382504D01*
X139836Y382460D01*
X139807Y382417D01*
X139771Y382380D01*
X139763Y382373D01*
X139749Y382366D01*
X139720Y382351D01*
X139683Y382337D01*
X139632Y382315D01*
X139574Y382300D01*
X139494Y382293D01*
X139406Y382285D01*
X137008D01*
X136964Y382293D01*
X136906Y382300D01*
X136782Y382329D01*
X136731Y382351D01*
X136680Y382380D01*
X136672Y382388D01*
X136665Y382395D01*
X136651Y382417D01*
X136629Y382446D01*
X136592Y382526D01*
X136585Y382577D01*
X136578Y382628D01*
Y382635D01*
Y382657D01*
X136585Y382679D01*
X136592Y382716D01*
X136621Y382796D01*
X136643Y382840D01*
X136680Y382876D01*
X136687Y382883D01*
X136702Y382891D01*
X136731Y382905D01*
X136767Y382927D01*
X136818Y382949D01*
X136884Y382963D01*
X136964Y382971D01*
X137051Y382978D01*
X137882D01*
Y384677D01*
X137277D01*
X137234Y384684D01*
X137175Y384691D01*
X137051Y384720D01*
X137000Y384742D01*
X136949Y384771D01*
X136942Y384779D01*
X136935Y384786D01*
X136920Y384808D01*
X136898Y384837D01*
X136862Y384917D01*
X136855Y384968D01*
X136847Y385019D01*
Y385027D01*
Y385048D01*
X136855Y385070D01*
X136862Y385107D01*
X136891Y385187D01*
X136913Y385231D01*
X136949Y385267D01*
X136957Y385274D01*
X136971Y385282D01*
X137000Y385296D01*
X137037Y385318D01*
X137088Y385340D01*
X137153Y385355D01*
X137234Y385362D01*
X137321Y385369D01*
X138575D01*
Y382978D01*
D02*
G37*
G36*
X129805Y386390D02*
X129864D01*
X129929Y386383D01*
X130017Y386375D01*
X130119Y386361D01*
X130228Y386339D01*
X130345Y386310D01*
X130469Y386266D01*
X130476D01*
X130483Y386259D01*
X130527Y386244D01*
X130585Y386215D01*
X130658Y386178D01*
X130746Y386135D01*
X130833Y386076D01*
X130921Y386018D01*
X131001Y385945D01*
X131008Y385938D01*
X131030Y385916D01*
X131059Y385887D01*
X131096Y385843D01*
X131139Y385785D01*
X131190Y385712D01*
X131249Y385632D01*
X131307Y385544D01*
X131314Y385530D01*
X131336Y385500D01*
X131365Y385449D01*
X131402Y385384D01*
X131438Y385311D01*
X131482Y385223D01*
X131518Y385136D01*
X131555Y385041D01*
X131562Y385027D01*
X131569Y384997D01*
X131584Y384946D01*
X131598Y384874D01*
X131613Y384786D01*
X131628Y384677D01*
X131642Y384560D01*
Y384429D01*
Y384093D01*
Y384086D01*
Y384072D01*
Y384050D01*
Y384021D01*
X131635Y383940D01*
X131620Y383831D01*
X131606Y383714D01*
X131577Y383583D01*
X131540Y383445D01*
X131489Y383313D01*
Y383306D01*
X131482Y383299D01*
X131460Y383255D01*
X131431Y383197D01*
X131380Y383117D01*
X131322Y383029D01*
X131256Y382934D01*
X131176Y382840D01*
X131088Y382752D01*
X131081Y382745D01*
X131044Y382716D01*
X131001Y382679D01*
X130942Y382635D01*
X130869Y382584D01*
X130797Y382533D01*
X130709Y382482D01*
X130629Y382439D01*
X130622D01*
X130614Y382431D01*
X130593Y382424D01*
X130571Y382417D01*
X130498Y382388D01*
X130396Y382366D01*
X130264Y382337D01*
X130119Y382307D01*
X129944Y382293D01*
X129747Y382285D01*
X128296D01*
X128252Y382293D01*
X128194Y382300D01*
X128070Y382329D01*
X128019Y382351D01*
X127968Y382380D01*
X127961Y382388D01*
X127954Y382395D01*
X127939Y382417D01*
X127917Y382446D01*
X127881Y382526D01*
X127873Y382577D01*
X127866Y382628D01*
Y382635D01*
Y382657D01*
X127873Y382679D01*
X127881Y382716D01*
X127910Y382796D01*
X127932Y382840D01*
X127968Y382876D01*
X127975Y382883D01*
X127990Y382891D01*
X128019Y382905D01*
X128056Y382927D01*
X128107Y382949D01*
X128172Y382963D01*
X128252Y382971D01*
X128340Y382978D01*
Y385704D01*
X128296D01*
X128252Y385712D01*
X128194Y385719D01*
X128070Y385748D01*
X128019Y385770D01*
X127968Y385799D01*
X127961Y385807D01*
X127954Y385814D01*
X127939Y385836D01*
X127917Y385865D01*
X127881Y385945D01*
X127873Y385996D01*
X127866Y386047D01*
Y386054D01*
Y386076D01*
X127873Y386098D01*
X127881Y386135D01*
X127910Y386215D01*
X127932Y386259D01*
X127968Y386295D01*
X127975Y386302D01*
X127990Y386310D01*
X128019Y386324D01*
X128056Y386346D01*
X128107Y386368D01*
X128172Y386383D01*
X128252Y386390D01*
X128340Y386397D01*
X129805Y386390D01*
D02*
G37*
G36*
X121633Y385449D02*
X121735Y385435D01*
X121852Y385420D01*
X121983Y385391D01*
X122122Y385355D01*
X122253Y385304D01*
X122260D01*
X122267Y385296D01*
X122311Y385282D01*
X122377Y385245D01*
X122457Y385209D01*
X122537Y385165D01*
X122632Y385107D01*
X122712Y385048D01*
X122785Y384983D01*
X122792Y384968D01*
X122829Y384939D01*
X122872Y384881D01*
X122923Y384808D01*
X122989Y384720D01*
X123055Y384611D01*
X123120Y384494D01*
X123186Y384363D01*
X123193Y384349D01*
X123201Y384319D01*
X123222Y384261D01*
X123244Y384188D01*
X123259Y384101D01*
X123281Y383999D01*
X123288Y383889D01*
X123295Y383765D01*
X123302Y383474D01*
X120445D01*
X120452Y383459D01*
X120467Y383430D01*
X120489Y383379D01*
X120532Y383313D01*
X120583Y383241D01*
X120649Y383168D01*
X120729Y383095D01*
X120824Y383029D01*
X120838Y383022D01*
X120875Y383007D01*
X120933Y382978D01*
X121021Y382949D01*
X121130Y382920D01*
X121261Y382891D01*
X121407Y382876D01*
X121575Y382869D01*
X121648D01*
X121684Y382876D01*
X121728D01*
X121786Y382883D01*
X121852Y382891D01*
X121917Y382898D01*
X121998Y382905D01*
X122173Y382934D01*
X122377Y382978D01*
X122603Y383029D01*
X122617D01*
X122646Y383044D01*
X122690Y383051D01*
X122748Y383066D01*
X122865Y383087D01*
X122923Y383102D01*
X122989D01*
X123018Y383095D01*
X123047Y383087D01*
X123127Y383058D01*
X123164Y383036D01*
X123201Y383000D01*
X123208Y382993D01*
X123215Y382985D01*
X123230Y382963D01*
X123251Y382934D01*
X123288Y382854D01*
X123295Y382810D01*
X123302Y382752D01*
Y382745D01*
Y382730D01*
X123295Y382708D01*
X123288Y382672D01*
X123259Y382599D01*
X123237Y382563D01*
X123201Y382526D01*
X123193Y382519D01*
X123171Y382504D01*
X123127Y382482D01*
X123069Y382453D01*
X122975Y382417D01*
X122923Y382395D01*
X122865Y382373D01*
X122792Y382351D01*
X122719Y382329D01*
X122632Y382307D01*
X122537Y382285D01*
X122530D01*
X122515Y382278D01*
X122486D01*
X122450Y382271D01*
X122399Y382264D01*
X122347Y382249D01*
X122282Y382242D01*
X122216Y382235D01*
X122056Y382213D01*
X121888Y382191D01*
X121706Y382184D01*
X121524Y382176D01*
X121444D01*
X121385Y382184D01*
X121312Y382191D01*
X121232Y382198D01*
X121145Y382213D01*
X121043Y382235D01*
X120831Y382293D01*
X120722Y382329D01*
X120613Y382373D01*
X120503Y382424D01*
X120394Y382490D01*
X120284Y382563D01*
X120190Y382643D01*
X120182Y382650D01*
X120168Y382665D01*
X120146Y382694D01*
X120109Y382730D01*
X120073Y382774D01*
X120037Y382832D01*
X119986Y382891D01*
X119942Y382963D01*
X119898Y383044D01*
X119854Y383131D01*
X119774Y383335D01*
X119738Y383437D01*
X119716Y383554D01*
X119701Y383678D01*
X119694Y383802D01*
Y383809D01*
Y383831D01*
X119701Y383875D01*
Y383926D01*
X119709Y383984D01*
X119723Y384057D01*
X119738Y384137D01*
X119760Y384225D01*
X119789Y384319D01*
X119825Y384414D01*
X119869Y384516D01*
X119920Y384618D01*
X119986Y384720D01*
X120059Y384815D01*
X120139Y384910D01*
X120233Y384997D01*
X120241Y385005D01*
X120255Y385019D01*
X120284Y385041D01*
X120328Y385070D01*
X120379Y385107D01*
X120445Y385143D01*
X120510Y385187D01*
X120591Y385231D01*
X120678Y385267D01*
X120773Y385311D01*
X120984Y385384D01*
X121101Y385413D01*
X121225Y385435D01*
X121349Y385449D01*
X121480Y385457D01*
X121553D01*
X121633Y385449D01*
D02*
G37*
G36*
X117507D02*
X117558Y385442D01*
X117675Y385427D01*
X117813Y385398D01*
X117966Y385355D01*
X118127Y385296D01*
X118294Y385216D01*
X118302D01*
X118316Y385209D01*
X118338Y385194D01*
X118367Y385172D01*
X118447Y385121D01*
X118542Y385048D01*
X118651Y384961D01*
X118768Y384852D01*
X118870Y384728D01*
X118965Y384582D01*
Y384575D01*
X118972Y384567D01*
X118987Y384545D01*
X119001Y384516D01*
X119038Y384436D01*
X119082Y384334D01*
X119118Y384210D01*
X119155Y384072D01*
X119184Y383918D01*
X119191Y383765D01*
Y383758D01*
Y383751D01*
Y383729D01*
Y383700D01*
X119176Y383620D01*
X119162Y383518D01*
X119133Y383401D01*
X119096Y383270D01*
X119038Y383131D01*
X118965Y382985D01*
Y382978D01*
X118958Y382971D01*
X118921Y382927D01*
X118870Y382854D01*
X118797Y382774D01*
X118710Y382679D01*
X118593Y382577D01*
X118455Y382482D01*
X118302Y382395D01*
X118294D01*
X118280Y382388D01*
X118258Y382373D01*
X118229Y382358D01*
X118185Y382344D01*
X118141Y382329D01*
X118025Y382285D01*
X117886Y382249D01*
X117733Y382213D01*
X117558Y382184D01*
X117383Y382176D01*
X117303D01*
X117259Y382184D01*
X117208Y382191D01*
X117091Y382205D01*
X116953Y382227D01*
X116800Y382264D01*
X116639Y382315D01*
X116472Y382388D01*
X116464D01*
X116450Y382395D01*
X116428Y382410D01*
X116399Y382431D01*
X116326Y382475D01*
X116231Y382548D01*
X116122Y382628D01*
X116013Y382730D01*
X115910Y382854D01*
X115816Y382985D01*
Y382993D01*
X115808Y383000D01*
X115794Y383022D01*
X115779Y383051D01*
X115743Y383124D01*
X115706Y383226D01*
X115663Y383343D01*
X115626Y383481D01*
X115597Y383620D01*
X115590Y383773D01*
Y383780D01*
Y383795D01*
Y383816D01*
X115597Y383846D01*
X115604Y383926D01*
X115619Y384028D01*
X115648Y384152D01*
X115684Y384290D01*
X115743Y384436D01*
X115816Y384589D01*
Y384596D01*
X115830Y384604D01*
X115838Y384626D01*
X115859Y384655D01*
X115910Y384728D01*
X115983Y384822D01*
X116078Y384917D01*
X116195Y385027D01*
X116326Y385129D01*
X116479Y385223D01*
X116486D01*
X116501Y385231D01*
X116523Y385245D01*
X116552Y385260D01*
X116596Y385274D01*
X116639Y385296D01*
X116756Y385340D01*
X116895Y385384D01*
X117048Y385420D01*
X117208Y385449D01*
X117383Y385457D01*
X117463D01*
X117507Y385449D01*
D02*
G37*
G36*
X113651Y381157D02*
X113731Y381150D01*
X113826Y381142D01*
X114015Y381106D01*
X114030D01*
X114059Y381099D01*
X114110Y381084D01*
X114175Y381062D01*
X114248Y381040D01*
X114336Y381011D01*
X114511Y380931D01*
X114518Y380938D01*
X114533Y380953D01*
X114562Y380975D01*
X114598Y380997D01*
X114686Y381040D01*
X114729Y381055D01*
X114780Y381062D01*
X114810D01*
X114831Y381055D01*
X114868Y381048D01*
X114912Y381033D01*
X114948Y381018D01*
X114992Y380989D01*
X115028Y380953D01*
X115036Y380946D01*
X115043Y380931D01*
X115058Y380909D01*
X115079Y380873D01*
X115094Y380822D01*
X115109Y380756D01*
X115116Y380683D01*
X115123Y380596D01*
Y380144D01*
Y380136D01*
Y380100D01*
X115116Y380056D01*
X115109Y380005D01*
X115079Y379889D01*
X115058Y379830D01*
X115021Y379786D01*
X115014Y379779D01*
X115006Y379772D01*
X114985Y379757D01*
X114955Y379735D01*
X114875Y379699D01*
X114831Y379692D01*
X114773Y379684D01*
X114751D01*
X114729Y379692D01*
X114708D01*
X114635Y379714D01*
X114569Y379757D01*
X114555Y379772D01*
X114547Y379786D01*
X114525Y379808D01*
X114511Y379838D01*
X114489Y379874D01*
X114467Y379925D01*
X114452Y379983D01*
Y379991D01*
X114445Y380012D01*
X114438Y380042D01*
X114423Y380078D01*
X114394Y380158D01*
X114372Y380188D01*
X114350Y380217D01*
X114343Y380224D01*
X114336Y380231D01*
X114307Y380253D01*
X114278Y380275D01*
X114226Y380304D01*
X114175Y380333D01*
X114102Y380362D01*
X114022Y380392D01*
X114015Y380399D01*
X113979Y380406D01*
X113935Y380421D01*
X113869Y380435D01*
X113789Y380450D01*
X113702Y380457D01*
X113607Y380472D01*
X113425D01*
X113352Y380465D01*
X113250Y380450D01*
X113140Y380428D01*
X113016Y380399D01*
X112892Y380355D01*
X112776Y380297D01*
X112768Y380290D01*
X112739Y380275D01*
X112696Y380239D01*
X112645Y380195D01*
X112579Y380136D01*
X112513Y380064D01*
X112448Y379969D01*
X112375Y379859D01*
X112367Y379845D01*
X112346Y379808D01*
X112317Y379743D01*
X112287Y379655D01*
X112251Y379553D01*
X112222Y379444D01*
X112200Y379313D01*
X112193Y379181D01*
Y378671D01*
Y378664D01*
Y378649D01*
Y378620D01*
X112200Y378576D01*
Y378533D01*
X112207Y378482D01*
X112236Y378358D01*
X112273Y378219D01*
X112331Y378073D01*
X112411Y377942D01*
X112455Y377876D01*
X112513Y377818D01*
X112521D01*
X112528Y377804D01*
X112550Y377789D01*
X112579Y377775D01*
X112608Y377753D01*
X112652Y377731D01*
X112703Y377702D01*
X112768Y377680D01*
X112834Y377651D01*
X112907Y377621D01*
X112995Y377600D01*
X113089Y377578D01*
X113191Y377563D01*
X113301Y377549D01*
X113417Y377534D01*
X113629D01*
X113672Y377541D01*
X113724D01*
X113840Y377556D01*
X113979Y377578D01*
X114124Y377607D01*
X114278Y377651D01*
X114431Y377709D01*
Y378212D01*
X113680D01*
X113636Y378219D01*
X113578Y378226D01*
X113454Y378256D01*
X113403Y378277D01*
X113352Y378307D01*
X113344Y378314D01*
X113337Y378321D01*
X113322Y378343D01*
X113301Y378372D01*
X113264Y378452D01*
X113257Y378503D01*
X113250Y378555D01*
Y378562D01*
Y378584D01*
X113257Y378606D01*
X113264Y378642D01*
X113293Y378722D01*
X113315Y378766D01*
X113352Y378802D01*
X113359Y378810D01*
X113373Y378817D01*
X113403Y378832D01*
X113439Y378853D01*
X113490Y378875D01*
X113556Y378890D01*
X113636Y378897D01*
X113724Y378904D01*
X115145D01*
X115167Y378897D01*
X115196Y378890D01*
X115276Y378861D01*
X115313Y378839D01*
X115356Y378802D01*
X115364Y378795D01*
X115371Y378788D01*
X115393Y378766D01*
X115415Y378737D01*
X115451Y378657D01*
X115459Y378613D01*
X115466Y378555D01*
Y378547D01*
Y378533D01*
X115459Y378503D01*
X115451Y378467D01*
X115437Y378431D01*
X115422Y378387D01*
X115393Y378343D01*
X115356Y378307D01*
X115349Y378299D01*
X115334Y378292D01*
X115313Y378277D01*
X115284Y378263D01*
X115211Y378226D01*
X115167Y378219D01*
X115123Y378212D01*
Y377279D01*
X115116D01*
X115101Y377272D01*
X115079Y377257D01*
X115043Y377235D01*
X115006Y377220D01*
X114955Y377191D01*
X114846Y377140D01*
X114715Y377082D01*
X114584Y377024D01*
X114445Y376973D01*
X114314Y376936D01*
X114299Y376929D01*
X114256Y376922D01*
X114190Y376907D01*
X114102Y376892D01*
X113993Y376870D01*
X113876Y376856D01*
X113738Y376849D01*
X113600Y376841D01*
X113512D01*
X113461Y376849D01*
X113410D01*
X113279Y376863D01*
X113126Y376878D01*
X112958Y376907D01*
X112783Y376943D01*
X112608Y376994D01*
X112601D01*
X112593Y377002D01*
X112550Y377016D01*
X112484Y377045D01*
X112404Y377082D01*
X112317Y377126D01*
X112222Y377177D01*
X112127Y377235D01*
X112047Y377301D01*
X112039Y377308D01*
X112010Y377337D01*
X111974Y377381D01*
X111923Y377439D01*
X111864Y377519D01*
X111799Y377614D01*
X111733Y377724D01*
X111668Y377855D01*
Y377862D01*
X111660Y377869D01*
X111653Y377891D01*
X111638Y377920D01*
X111617Y377993D01*
X111588Y378095D01*
X111551Y378219D01*
X111529Y378358D01*
X111507Y378511D01*
X111500Y378678D01*
Y379174D01*
Y379181D01*
Y379203D01*
Y379240D01*
X111507Y379291D01*
X111515Y379356D01*
X111522Y379422D01*
X111536Y379502D01*
X111551Y379590D01*
X111602Y379786D01*
X111638Y379889D01*
X111682Y379998D01*
X111726Y380100D01*
X111784Y380209D01*
X111850Y380319D01*
X111923Y380421D01*
X111930Y380428D01*
X111952Y380450D01*
X111981Y380486D01*
X112025Y380537D01*
X112083Y380596D01*
X112156Y380654D01*
X112236Y380727D01*
X112331Y380792D01*
X112433Y380865D01*
X112550Y380931D01*
X112681Y380989D01*
X112820Y381048D01*
X112965Y381099D01*
X113126Y381135D01*
X113293Y381157D01*
X113476Y381164D01*
X113578D01*
X113651Y381157D01*
D02*
G37*
G36*
X122778Y380115D02*
X122843Y380107D01*
X122931Y380093D01*
X123033Y380056D01*
X123142Y380012D01*
X123259Y379954D01*
X123383Y379867D01*
X123390Y379859D01*
X123419Y379838D01*
X123456Y379801D01*
X123492Y379757D01*
X123536Y379706D01*
X123565Y379648D01*
X123594Y379582D01*
X123601Y379517D01*
Y379509D01*
Y379495D01*
X123594Y379466D01*
X123587Y379429D01*
X123572Y379393D01*
X123558Y379349D01*
X123529Y379313D01*
X123492Y379269D01*
X123485Y379262D01*
X123477Y379254D01*
X123456Y379240D01*
X123426Y379218D01*
X123346Y379181D01*
X123295Y379174D01*
X123244Y379167D01*
X123222D01*
X123193Y379174D01*
X123164Y379181D01*
X123120Y379196D01*
X123069Y379225D01*
X123018Y379254D01*
X122967Y379298D01*
X122960Y379305D01*
X122945Y379320D01*
X122916Y379342D01*
X122887Y379364D01*
X122807Y379407D01*
X122763Y379422D01*
X122719Y379429D01*
X122690D01*
X122661Y379422D01*
X122610Y379407D01*
X122552Y379386D01*
X122471Y379349D01*
X122384Y379305D01*
X122282Y379240D01*
X122267Y379233D01*
X122231Y379203D01*
X122165Y379160D01*
X122085Y379101D01*
X121976Y379028D01*
X121852Y378934D01*
X121713Y378824D01*
X121560Y378693D01*
Y377643D01*
X122595D01*
X122639Y377636D01*
X122690Y377629D01*
X122814Y377600D01*
X122872Y377578D01*
X122916Y377541D01*
X122923Y377534D01*
X122931Y377527D01*
X122953Y377505D01*
X122975Y377476D01*
X123011Y377395D01*
X123018Y377352D01*
X123026Y377293D01*
Y377286D01*
Y377272D01*
X123018Y377242D01*
X123011Y377206D01*
X122996Y377169D01*
X122982Y377126D01*
X122953Y377082D01*
X122916Y377045D01*
X122909Y377038D01*
X122894Y377031D01*
X122865Y377016D01*
X122829Y377002D01*
X122778Y376980D01*
X122719Y376965D01*
X122639Y376958D01*
X122552Y376951D01*
X120408D01*
X120365Y376958D01*
X120306Y376965D01*
X120182Y376994D01*
X120131Y377016D01*
X120080Y377045D01*
X120073Y377053D01*
X120066Y377060D01*
X120051Y377082D01*
X120029Y377111D01*
X119993Y377191D01*
X119986Y377242D01*
X119978Y377293D01*
Y377301D01*
Y377323D01*
X119986Y377344D01*
X119993Y377381D01*
X120022Y377461D01*
X120044Y377505D01*
X120080Y377541D01*
X120088Y377549D01*
X120102Y377556D01*
X120131Y377570D01*
X120168Y377592D01*
X120219Y377614D01*
X120284Y377629D01*
X120365Y377636D01*
X120452Y377643D01*
X120868D01*
Y379342D01*
X120576D01*
X120532Y379349D01*
X120474Y379356D01*
X120350Y379386D01*
X120299Y379407D01*
X120248Y379437D01*
X120241Y379444D01*
X120233Y379451D01*
X120219Y379473D01*
X120197Y379502D01*
X120160Y379582D01*
X120153Y379633D01*
X120146Y379684D01*
Y379692D01*
Y379714D01*
X120153Y379735D01*
X120160Y379772D01*
X120190Y379852D01*
X120212Y379896D01*
X120248Y379932D01*
X120255Y379940D01*
X120270Y379947D01*
X120299Y379961D01*
X120335Y379983D01*
X120387Y380005D01*
X120452Y380020D01*
X120532Y380027D01*
X120620Y380034D01*
X121560D01*
Y379597D01*
X121567Y379604D01*
X121582Y379612D01*
X121604Y379626D01*
X121633Y379648D01*
X121713Y379699D01*
X121808Y379765D01*
X121917Y379838D01*
X122034Y379903D01*
X122143Y379969D01*
X122246Y380012D01*
X122260Y380020D01*
X122289Y380027D01*
X122340Y380049D01*
X122399Y380071D01*
X122471Y380085D01*
X122552Y380107D01*
X122639Y380115D01*
X122719Y380122D01*
X122734D01*
X122778Y380115D01*
D02*
G37*
G36*
X117602D02*
X117653D01*
X117711Y380107D01*
X117857Y380085D01*
X118017Y380056D01*
X118185Y380005D01*
X118345Y379932D01*
X118491Y379838D01*
X118498D01*
X118506Y379823D01*
X118549Y379786D01*
X118608Y379721D01*
X118673Y379641D01*
X118739Y379531D01*
X118797Y379400D01*
X118841Y379247D01*
X118848Y379160D01*
X118856Y379072D01*
Y377643D01*
X119016D01*
X119060Y377636D01*
X119111Y377629D01*
X119235Y377600D01*
X119293Y377578D01*
X119337Y377541D01*
X119344Y377534D01*
X119351Y377527D01*
X119373Y377505D01*
X119395Y377476D01*
X119431Y377395D01*
X119439Y377352D01*
X119446Y377293D01*
Y377286D01*
Y377272D01*
X119439Y377242D01*
X119431Y377206D01*
X119417Y377169D01*
X119402Y377126D01*
X119373Y377082D01*
X119337Y377045D01*
X119330Y377038D01*
X119315Y377031D01*
X119286Y377016D01*
X119249Y377002D01*
X119198Y376980D01*
X119140Y376965D01*
X119060Y376958D01*
X118972Y376951D01*
X118163D01*
Y377111D01*
X118149Y377104D01*
X118119Y377089D01*
X118061Y377067D01*
X117995Y377031D01*
X117908Y377002D01*
X117806Y376965D01*
X117696Y376936D01*
X117580Y376907D01*
X117565D01*
X117529Y376900D01*
X117471Y376885D01*
X117390Y376878D01*
X117303Y376863D01*
X117208Y376849D01*
X117004Y376841D01*
X116953D01*
X116909Y376849D01*
X116865D01*
X116807Y376856D01*
X116683Y376878D01*
X116537Y376914D01*
X116392Y376965D01*
X116238Y377038D01*
X116100Y377133D01*
X116093D01*
X116085Y377148D01*
X116049Y377184D01*
X115991Y377242D01*
X115925Y377323D01*
X115859Y377425D01*
X115808Y377534D01*
X115765Y377658D01*
X115757Y377724D01*
X115750Y377789D01*
Y377796D01*
Y377811D01*
Y377833D01*
X115757Y377862D01*
X115772Y377942D01*
X115808Y378051D01*
X115859Y378175D01*
X115896Y378241D01*
X115940Y378307D01*
X115991Y378380D01*
X116049Y378452D01*
X116115Y378518D01*
X116195Y378591D01*
X116202Y378598D01*
X116217Y378606D01*
X116238Y378627D01*
X116275Y378649D01*
X116319Y378678D01*
X116377Y378708D01*
X116443Y378744D01*
X116516Y378781D01*
X116596Y378817D01*
X116691Y378853D01*
X116793Y378883D01*
X116902Y378912D01*
X117018Y378934D01*
X117150Y378956D01*
X117281Y378963D01*
X117427Y378970D01*
X117551D01*
X117638Y378963D01*
X117747Y378956D01*
X117871Y378941D01*
X118010Y378919D01*
X118163Y378897D01*
Y379065D01*
Y379072D01*
Y379094D01*
X118156Y379123D01*
X118149Y379160D01*
X118127Y379196D01*
X118105Y379247D01*
X118068Y379283D01*
X118025Y379327D01*
X118017Y379334D01*
X117995Y379342D01*
X117966Y379356D01*
X117915Y379378D01*
X117842Y379400D01*
X117755Y379415D01*
X117646Y379422D01*
X117514Y379429D01*
X117456D01*
X117390Y379422D01*
X117303Y379415D01*
X117186Y379400D01*
X117048Y379378D01*
X116887Y379349D01*
X116712Y379305D01*
X116705D01*
X116683Y379298D01*
X116647Y379291D01*
X116610Y379283D01*
X116516Y379269D01*
X116472Y379262D01*
X116406D01*
X116377Y379269D01*
X116348Y379276D01*
X116275Y379305D01*
X116231Y379327D01*
X116195Y379356D01*
X116188Y379364D01*
X116180Y379378D01*
X116166Y379400D01*
X116151Y379429D01*
X116115Y379509D01*
X116107Y379553D01*
X116100Y379612D01*
Y379619D01*
Y379626D01*
X116107Y379663D01*
X116115Y379714D01*
X116129Y379765D01*
X116136Y379779D01*
X116158Y379801D01*
X116188Y379838D01*
X116224Y379867D01*
X116238Y379874D01*
X116253Y379881D01*
X116282Y379896D01*
X116319Y379910D01*
X116362Y379925D01*
X116413Y379940D01*
X116479Y379961D01*
X116494D01*
X116523Y379976D01*
X116574Y379991D01*
X116639Y380005D01*
X116720Y380020D01*
X116807Y380042D01*
X117004Y380078D01*
X117018D01*
X117048Y380085D01*
X117099Y380093D01*
X117164Y380100D01*
X117245Y380107D01*
X117325Y380115D01*
X117492Y380122D01*
X117551D01*
X117602Y380115D01*
D02*
G37*
G36*
X127553Y380027D02*
X127604Y380020D01*
X127727Y379991D01*
X127786Y379969D01*
X127830Y379932D01*
X127837Y379925D01*
X127844Y379918D01*
X127866Y379896D01*
X127888Y379867D01*
X127924Y379786D01*
X127932Y379743D01*
X127939Y379684D01*
Y379677D01*
Y379663D01*
X127932Y379633D01*
X127924Y379597D01*
X127910Y379560D01*
X127895Y379517D01*
X127866Y379473D01*
X127830Y379437D01*
X127822Y379429D01*
X127808Y379422D01*
X127779Y379407D01*
X127742Y379393D01*
X127691Y379371D01*
X127633Y379356D01*
X127553Y379349D01*
X127465Y379342D01*
X125861Y376192D01*
X126386D01*
X126393Y376185D01*
X126423Y376163D01*
X126459Y376127D01*
X126496Y376076D01*
X126539Y376025D01*
X126568Y375967D01*
X126598Y375908D01*
X126605Y375850D01*
Y375843D01*
Y375828D01*
X126598Y375799D01*
X126590Y375762D01*
X126576Y375726D01*
X126561Y375682D01*
X126532Y375639D01*
X126496Y375602D01*
X126488Y375595D01*
X126474Y375588D01*
X126444Y375573D01*
X126408Y375551D01*
X126357Y375529D01*
X126291Y375515D01*
X126218Y375507D01*
X126124Y375500D01*
X124352D01*
X124309Y375507D01*
X124250Y375515D01*
X124126Y375544D01*
X124075Y375566D01*
X124024Y375602D01*
X124017Y375609D01*
X124010Y375617D01*
X123995Y375639D01*
X123973Y375668D01*
X123937Y375748D01*
X123929Y375799D01*
X123922Y375850D01*
Y375857D01*
Y375879D01*
X123929Y375901D01*
X123937Y375937D01*
X123966Y376018D01*
X123988Y376061D01*
X124024Y376098D01*
X124031Y376105D01*
X124046Y376112D01*
X124075Y376127D01*
X124112Y376149D01*
X124163Y376163D01*
X124228Y376178D01*
X124309Y376185D01*
X124396Y376192D01*
X125089D01*
X125482Y376965D01*
X124272Y379342D01*
X124228D01*
X124185Y379349D01*
X124134Y379356D01*
X124010Y379386D01*
X123951Y379407D01*
X123908Y379437D01*
X123900Y379444D01*
X123893Y379451D01*
X123878Y379473D01*
X123856Y379502D01*
X123820Y379582D01*
X123813Y379633D01*
X123805Y379684D01*
Y379692D01*
Y379714D01*
X123813Y379735D01*
X123820Y379772D01*
X123849Y379852D01*
X123871Y379896D01*
X123908Y379932D01*
X123915Y379940D01*
X123929Y379947D01*
X123959Y379961D01*
X123995Y379983D01*
X124046Y380005D01*
X124104Y380020D01*
X124185Y380027D01*
X124272Y380034D01*
X125096D01*
X125140Y380027D01*
X125191Y380020D01*
X125315Y379991D01*
X125373Y379969D01*
X125417Y379932D01*
X125424Y379925D01*
X125431Y379918D01*
X125453Y379896D01*
X125475Y379867D01*
X125511Y379786D01*
X125519Y379743D01*
X125526Y379684D01*
Y379677D01*
Y379663D01*
X125519Y379633D01*
X125511Y379597D01*
X125497Y379560D01*
X125482Y379517D01*
X125453Y379473D01*
X125417Y379437D01*
X125409Y379429D01*
X125395Y379422D01*
X125366Y379407D01*
X125329Y379393D01*
X125278Y379371D01*
X125220Y379356D01*
X125140Y379349D01*
X125052Y379342D01*
X125869Y377731D01*
X126685Y379342D01*
X126641D01*
X126598Y379349D01*
X126547Y379356D01*
X126423Y379386D01*
X126364Y379407D01*
X126321Y379437D01*
X126313Y379444D01*
X126306Y379451D01*
X126291Y379473D01*
X126269Y379502D01*
X126233Y379582D01*
X126226Y379633D01*
X126218Y379684D01*
Y379692D01*
Y379714D01*
X126226Y379735D01*
X126233Y379772D01*
X126262Y379852D01*
X126284Y379896D01*
X126321Y379932D01*
X126328Y379940D01*
X126342Y379947D01*
X126372Y379961D01*
X126408Y379983D01*
X126459Y380005D01*
X126517Y380020D01*
X126598Y380027D01*
X126685Y380034D01*
X127509D01*
X127553Y380027D01*
D02*
G37*
G36*
X148205Y377643D02*
X148249D01*
X148293Y377636D01*
X148344Y377629D01*
X148468Y377600D01*
X148526Y377578D01*
X148570Y377541D01*
X148577Y377534D01*
X148584Y377527D01*
X148606Y377505D01*
X148628Y377476D01*
X148664Y377395D01*
X148672Y377352D01*
X148679Y377293D01*
Y377286D01*
Y377272D01*
X148672Y377242D01*
X148664Y377206D01*
X148650Y377169D01*
X148635Y377126D01*
X148606Y377082D01*
X148570Y377045D01*
X148562Y377038D01*
X148548Y377031D01*
X148519Y377016D01*
X148482Y377002D01*
X148431Y376980D01*
X148373Y376965D01*
X148293Y376958D01*
X148205Y376951D01*
X147513D01*
Y377111D01*
X147498Y377104D01*
X147462Y377089D01*
X147403Y377067D01*
X147323Y377031D01*
X147236Y377002D01*
X147141Y376965D01*
X146937Y376907D01*
X146922D01*
X146893Y376900D01*
X146842Y376885D01*
X146769Y376878D01*
X146689Y376863D01*
X146601Y376849D01*
X146419Y376841D01*
X146361D01*
X146295Y376849D01*
X146215Y376856D01*
X146120Y376878D01*
X146025Y376900D01*
X145923Y376936D01*
X145821Y376980D01*
X145814Y376987D01*
X145778Y377009D01*
X145734Y377038D01*
X145683Y377082D01*
X145617Y377140D01*
X145552Y377213D01*
X145486Y377293D01*
X145428Y377381D01*
X145420Y377388D01*
X145413Y377417D01*
X145398Y377454D01*
X145377Y377505D01*
X145355Y377570D01*
X145340Y377651D01*
X145333Y377738D01*
X145326Y377840D01*
Y379342D01*
X145165D01*
X145122Y379349D01*
X145063Y379356D01*
X144939Y379386D01*
X144888Y379407D01*
X144837Y379437D01*
X144830Y379444D01*
X144823Y379451D01*
X144808Y379473D01*
X144786Y379502D01*
X144750Y379582D01*
X144742Y379633D01*
X144735Y379684D01*
Y379692D01*
Y379714D01*
X144742Y379735D01*
X144750Y379772D01*
X144779Y379852D01*
X144801Y379896D01*
X144837Y379932D01*
X144844Y379940D01*
X144859Y379947D01*
X144888Y379961D01*
X144925Y379983D01*
X144976Y380005D01*
X145041Y380020D01*
X145122Y380027D01*
X145209Y380034D01*
X146018D01*
Y377957D01*
Y377949D01*
Y377920D01*
X146025Y377884D01*
X146033Y377833D01*
X146062Y377731D01*
X146084Y377680D01*
X146120Y377636D01*
X146127Y377629D01*
X146142Y377621D01*
X146164Y377607D01*
X146200Y377585D01*
X146251Y377563D01*
X146302Y377549D01*
X146368Y377541D01*
X146448Y377534D01*
X146485D01*
X146528Y377541D01*
X146587D01*
X146652Y377556D01*
X146725Y377570D01*
X146813Y377585D01*
X146900Y377614D01*
X146915Y377621D01*
X146944Y377629D01*
X146995Y377651D01*
X147068Y377680D01*
X147155Y377724D01*
X147265Y377775D01*
X147381Y377840D01*
X147513Y377913D01*
Y379342D01*
X147221D01*
X147177Y379349D01*
X147119Y379356D01*
X146995Y379386D01*
X146944Y379407D01*
X146893Y379437D01*
X146886Y379444D01*
X146878Y379451D01*
X146864Y379473D01*
X146842Y379502D01*
X146806Y379582D01*
X146798Y379633D01*
X146791Y379684D01*
Y379692D01*
Y379714D01*
X146798Y379735D01*
X146806Y379772D01*
X146835Y379852D01*
X146856Y379896D01*
X146893Y379932D01*
X146900Y379940D01*
X146915Y379947D01*
X146944Y379961D01*
X146980Y379983D01*
X147031Y380005D01*
X147097Y380020D01*
X147177Y380027D01*
X147265Y380034D01*
X148205D01*
Y377643D01*
D02*
G37*
G36*
X137664Y379867D02*
X137671Y379874D01*
X137700Y379889D01*
X137744Y379910D01*
X137795Y379940D01*
X137861Y379969D01*
X137934Y379998D01*
X138094Y380056D01*
X138101D01*
X138130Y380064D01*
X138181Y380078D01*
X138240Y380093D01*
X138305Y380100D01*
X138385Y380115D01*
X138553Y380122D01*
X138611D01*
X138684Y380115D01*
X138765Y380107D01*
X138867Y380093D01*
X138976Y380071D01*
X139085Y380042D01*
X139195Y379998D01*
X139209Y379991D01*
X139246Y379976D01*
X139297Y379947D01*
X139362Y379903D01*
X139435Y379852D01*
X139508Y379786D01*
X139588Y379706D01*
X139661Y379612D01*
X139669Y379597D01*
X139690Y379568D01*
X139720Y379509D01*
X139756Y379429D01*
X139793Y379334D01*
X139822Y379218D01*
X139843Y379094D01*
X139851Y378948D01*
Y377643D01*
X139938D01*
X139989Y377636D01*
X140099Y377614D01*
X140142Y377600D01*
X140179Y377578D01*
X140186Y377570D01*
X140201Y377556D01*
X140223Y377527D01*
X140252Y377490D01*
X140303Y377403D01*
X140317Y377352D01*
X140325Y377293D01*
Y377286D01*
Y377272D01*
X140317Y377242D01*
X140310Y377206D01*
X140296Y377169D01*
X140281Y377126D01*
X140252Y377082D01*
X140215Y377045D01*
X140208Y377038D01*
X140193Y377031D01*
X140164Y377016D01*
X140128Y377002D01*
X140077Y376980D01*
X140018Y376965D01*
X139938Y376958D01*
X139851Y376951D01*
X139114D01*
X139071Y376958D01*
X139013Y376965D01*
X138889Y376994D01*
X138838Y377016D01*
X138786Y377045D01*
X138779Y377053D01*
X138772Y377060D01*
X138757Y377082D01*
X138735Y377111D01*
X138699Y377191D01*
X138692Y377242D01*
X138684Y377293D01*
Y377301D01*
Y377323D01*
X138692Y377352D01*
X138699Y377388D01*
X138721Y377432D01*
X138743Y377476D01*
X138779Y377527D01*
X138823Y377578D01*
X138830D01*
X138838Y377585D01*
X138859Y377600D01*
X138896Y377614D01*
X138940Y377621D01*
X138998Y377636D01*
X139071Y377643D01*
X139158D01*
Y378904D01*
Y378919D01*
Y378948D01*
X139151Y378992D01*
X139144Y379050D01*
X139129Y379116D01*
X139107Y379174D01*
X139078Y379233D01*
X139034Y379276D01*
X139027Y379283D01*
X139005Y379298D01*
X138969Y379327D01*
X138918Y379356D01*
X138845Y379378D01*
X138765Y379407D01*
X138670Y379422D01*
X138553Y379429D01*
X138517D01*
X138473Y379422D01*
X138415Y379415D01*
X138356Y379407D01*
X138284Y379393D01*
X138218Y379364D01*
X138145Y379334D01*
X138138Y379327D01*
X138109Y379320D01*
X138072Y379291D01*
X138014Y379254D01*
X137948Y379203D01*
X137868Y379138D01*
X137773Y379050D01*
X137664Y378948D01*
Y377643D01*
X137751D01*
X137802Y377636D01*
X137912Y377614D01*
X137955Y377600D01*
X137992Y377578D01*
X137999Y377570D01*
X138014Y377556D01*
X138036Y377527D01*
X138065Y377490D01*
X138116Y377403D01*
X138130Y377352D01*
X138138Y377293D01*
Y377286D01*
Y377272D01*
X138130Y377242D01*
X138123Y377206D01*
X138109Y377169D01*
X138094Y377126D01*
X138065Y377082D01*
X138028Y377045D01*
X138021Y377038D01*
X138006Y377031D01*
X137977Y377016D01*
X137941Y377002D01*
X137890Y376980D01*
X137831Y376965D01*
X137751Y376958D01*
X137664Y376951D01*
X136927D01*
X136884Y376958D01*
X136826Y376965D01*
X136702Y376994D01*
X136651Y377016D01*
X136600Y377045D01*
X136592Y377053D01*
X136585Y377060D01*
X136570Y377082D01*
X136548Y377111D01*
X136512Y377191D01*
X136505Y377242D01*
X136497Y377293D01*
Y377301D01*
Y377323D01*
X136505Y377352D01*
X136512Y377388D01*
X136534Y377432D01*
X136556Y377476D01*
X136592Y377527D01*
X136636Y377578D01*
X136643D01*
X136651Y377585D01*
X136672Y377600D01*
X136709Y377614D01*
X136753Y377621D01*
X136811Y377636D01*
X136884Y377643D01*
X136971D01*
Y380661D01*
X136811D01*
X136767Y380669D01*
X136709Y380676D01*
X136585Y380705D01*
X136534Y380727D01*
X136483Y380756D01*
X136476Y380763D01*
X136468Y380771D01*
X136454Y380792D01*
X136432Y380822D01*
X136395Y380902D01*
X136388Y380953D01*
X136381Y381004D01*
Y381011D01*
Y381033D01*
X136388Y381055D01*
X136395Y381091D01*
X136425Y381172D01*
X136446Y381215D01*
X136483Y381252D01*
X136490Y381259D01*
X136505Y381266D01*
X136534Y381281D01*
X136570Y381303D01*
X136621Y381325D01*
X136687Y381339D01*
X136767Y381347D01*
X136855Y381354D01*
X137664D01*
Y379867D01*
D02*
G37*
G36*
X135659Y380384D02*
X133523Y377643D01*
X135112D01*
Y378161D01*
Y378175D01*
Y378205D01*
X135120Y378248D01*
X135127Y378299D01*
X135156Y378423D01*
X135178Y378482D01*
X135207Y378525D01*
X135214Y378533D01*
X135222Y378540D01*
X135243Y378562D01*
X135273Y378584D01*
X135353Y378620D01*
X135404Y378627D01*
X135455Y378635D01*
X135484D01*
X135506Y378627D01*
X135542Y378620D01*
X135586Y378606D01*
X135623Y378591D01*
X135666Y378562D01*
X135703Y378525D01*
X135710Y378518D01*
X135717Y378503D01*
X135732Y378474D01*
X135754Y378438D01*
X135776Y378387D01*
X135790Y378328D01*
X135798Y378248D01*
X135805Y378161D01*
Y376951D01*
X132641D01*
Y377643D01*
X134755Y380370D01*
X133479D01*
Y379874D01*
Y379859D01*
Y379830D01*
X133472Y379786D01*
X133465Y379728D01*
X133436Y379604D01*
X133414Y379553D01*
X133377Y379502D01*
X133370Y379495D01*
X133363Y379488D01*
X133341Y379473D01*
X133312Y379451D01*
X133231Y379415D01*
X133188Y379407D01*
X133129Y379400D01*
X133108D01*
X133078Y379407D01*
X133042Y379415D01*
X132962Y379444D01*
X132918Y379466D01*
X132882Y379502D01*
X132874Y379509D01*
X132867Y379524D01*
X132852Y379553D01*
X132838Y379590D01*
X132816Y379641D01*
X132801Y379706D01*
X132794Y379786D01*
X132787Y379874D01*
Y381062D01*
X135659D01*
Y380384D01*
D02*
G37*
G36*
X142679Y380115D02*
X142730Y380107D01*
X142847Y380093D01*
X142985Y380064D01*
X143139Y380020D01*
X143299Y379961D01*
X143467Y379881D01*
X143474D01*
X143489Y379874D01*
X143510Y379859D01*
X143540Y379838D01*
X143620Y379786D01*
X143714Y379714D01*
X143824Y379626D01*
X143940Y379517D01*
X144043Y379393D01*
X144137Y379247D01*
Y379240D01*
X144145Y379233D01*
X144159Y379211D01*
X144174Y379181D01*
X144210Y379101D01*
X144254Y378999D01*
X144290Y378875D01*
X144327Y378737D01*
X144356Y378584D01*
X144363Y378431D01*
Y378423D01*
Y378416D01*
Y378394D01*
Y378365D01*
X144349Y378285D01*
X144334Y378183D01*
X144305Y378066D01*
X144269Y377935D01*
X144210Y377796D01*
X144137Y377651D01*
Y377643D01*
X144130Y377636D01*
X144094Y377592D01*
X144043Y377519D01*
X143970Y377439D01*
X143882Y377344D01*
X143765Y377242D01*
X143627Y377148D01*
X143474Y377060D01*
X143467D01*
X143452Y377053D01*
X143430Y377038D01*
X143401Y377024D01*
X143357Y377009D01*
X143314Y376994D01*
X143197Y376951D01*
X143058Y376914D01*
X142905Y376878D01*
X142730Y376849D01*
X142555Y376841D01*
X142475D01*
X142431Y376849D01*
X142380Y376856D01*
X142264Y376870D01*
X142125Y376892D01*
X141972Y376929D01*
X141812Y376980D01*
X141644Y377053D01*
X141637D01*
X141622Y377060D01*
X141600Y377075D01*
X141571Y377097D01*
X141498Y377140D01*
X141404Y377213D01*
X141294Y377293D01*
X141185Y377395D01*
X141083Y377519D01*
X140988Y377651D01*
Y377658D01*
X140981Y377665D01*
X140966Y377687D01*
X140952Y377716D01*
X140915Y377789D01*
X140879Y377891D01*
X140835Y378008D01*
X140798Y378146D01*
X140769Y378285D01*
X140762Y378438D01*
Y378445D01*
Y378460D01*
Y378482D01*
X140769Y378511D01*
X140777Y378591D01*
X140791Y378693D01*
X140820Y378817D01*
X140857Y378956D01*
X140915Y379101D01*
X140988Y379254D01*
Y379262D01*
X141003Y379269D01*
X141010Y379291D01*
X141032Y379320D01*
X141083Y379393D01*
X141156Y379488D01*
X141251Y379582D01*
X141367Y379692D01*
X141498Y379794D01*
X141651Y379889D01*
X141659D01*
X141673Y379896D01*
X141695Y379910D01*
X141724Y379925D01*
X141768Y379940D01*
X141812Y379961D01*
X141929Y380005D01*
X142067Y380049D01*
X142220Y380085D01*
X142380Y380115D01*
X142555Y380122D01*
X142636D01*
X142679Y380115D01*
D02*
G37*
G36*
X306457Y342379D02*
X306508Y342369D01*
X306557Y342353D01*
X306603Y342330D01*
X306646Y342301D01*
X306684Y342267D01*
X306718Y342228D01*
X306747Y342185D01*
X306770Y342139D01*
X306787Y342090D01*
X306797Y342040D01*
X306800Y341988D01*
Y332539D01*
Y332539D01*
Y332539D01*
X306800Y332333D01*
X306797Y332281D01*
X306797Y332281D01*
X306743Y331872D01*
X306741Y331862D01*
X306733Y331821D01*
X306626Y331423D01*
X306618Y331398D01*
X306609Y331374D01*
X306451Y330992D01*
X306429Y330946D01*
X306222Y330589D01*
X306193Y330546D01*
X305942Y330218D01*
X305908Y330179D01*
X305616Y329887D01*
X305577Y329853D01*
X305250Y329602D01*
X305235Y329592D01*
X305207Y329573D01*
X304849Y329367D01*
X304826Y329356D01*
X304803Y329344D01*
X304421Y329186D01*
X304408Y329181D01*
X304373Y329169D01*
X303974Y329063D01*
X303933Y329054D01*
X303923Y329052D01*
X303514Y328999D01*
X303462Y328995D01*
X303462D01*
D01*
X303049D01*
D01*
X303049D01*
X302998Y328999D01*
X302589Y329052D01*
X302572Y329056D01*
X302538Y329063D01*
X302139Y329169D01*
X302115Y329178D01*
X302090Y329186D01*
X301709Y329344D01*
X301663Y329367D01*
X301305Y329573D01*
X301262Y329602D01*
X300935Y329853D01*
X300896Y329887D01*
X300604Y330179D01*
X300570Y330218D01*
X300319Y330546D01*
X300309Y330560D01*
X300290Y330589D01*
X300083Y330946D01*
X300072Y330969D01*
X300061Y330992D01*
X299903Y331374D01*
X299898Y331388D01*
X299886Y331423D01*
X299779Y331821D01*
X299771Y331862D01*
X299769Y331872D01*
X299715Y332281D01*
X299712Y332333D01*
Y332333D01*
D01*
Y332539D01*
Y341988D01*
X299715Y342040D01*
X299725Y342090D01*
X299742Y342139D01*
X299765Y342185D01*
X299793Y342228D01*
X299827Y342267D01*
X299866Y342301D01*
X299909Y342330D01*
X299955Y342353D01*
X300004Y342369D01*
X300055Y342379D01*
X300106Y342383D01*
X306405D01*
X306457Y342379D01*
D02*
G37*
G36*
X296457D02*
X296508Y342369D01*
X296556Y342353D01*
X296603Y342330D01*
X296646Y342301D01*
X296685Y342267D01*
X296719Y342228D01*
X296747Y342185D01*
X296770Y342139D01*
X296787Y342090D01*
X296797Y342040D01*
X296800Y341988D01*
Y332539D01*
Y332539D01*
Y332539D01*
X296800Y332333D01*
X296797Y332281D01*
X296797Y332281D01*
X296743Y331872D01*
X296741Y331862D01*
X296733Y331821D01*
X296626Y331423D01*
X296618Y331398D01*
X296609Y331374D01*
X296451Y330992D01*
X296428Y330946D01*
X296222Y330589D01*
X296193Y330546D01*
X295942Y330218D01*
X295908Y330179D01*
X295616Y329887D01*
X295577Y329853D01*
X295250Y329602D01*
X295235Y329592D01*
X295207Y329573D01*
X294849Y329367D01*
X294826Y329356D01*
X294803Y329344D01*
X294422Y329186D01*
X294408Y329181D01*
X294373Y329169D01*
X293974Y329063D01*
X293933Y329054D01*
X293923Y329052D01*
X293514Y328999D01*
X293462Y328995D01*
X293462D01*
D01*
X293050D01*
D01*
X293050D01*
X292998Y328999D01*
X292589Y329052D01*
X292572Y329056D01*
X292538Y329063D01*
X292139Y329169D01*
X292115Y329178D01*
X292090Y329186D01*
X291709Y329344D01*
X291663Y329367D01*
X291305Y329573D01*
X291262Y329602D01*
X290935Y329853D01*
X290896Y329887D01*
X290604Y330179D01*
X290570Y330218D01*
X290318Y330546D01*
X290309Y330560D01*
X290290Y330589D01*
X290083Y330946D01*
X290072Y330969D01*
X290060Y330992D01*
X289903Y331374D01*
X289898Y331388D01*
X289886Y331423D01*
X289779Y331821D01*
X289771Y331862D01*
X289769Y331872D01*
X289715Y332281D01*
X289712Y332333D01*
Y332333D01*
D01*
Y332539D01*
Y341988D01*
X289715Y342040D01*
X289725Y342090D01*
X289742Y342139D01*
X289765Y342185D01*
X289793Y342228D01*
X289827Y342267D01*
X289866Y342301D01*
X289909Y342330D01*
X289955Y342353D01*
X290004Y342369D01*
X290055Y342379D01*
X290106Y342383D01*
X296406D01*
X296457Y342379D01*
D02*
G37*
G36*
X286457D02*
X286508Y342369D01*
X286557Y342353D01*
X286603Y342330D01*
X286646Y342301D01*
X286684Y342267D01*
X286719Y342228D01*
X286747Y342185D01*
X286770Y342139D01*
X286787Y342090D01*
X286797Y342040D01*
X286800Y341988D01*
Y330650D01*
Y330525D01*
X286799Y330513D01*
Y330500D01*
X286797Y330487D01*
X286797Y330474D01*
X286794Y330461D01*
X286792Y330449D01*
X286744Y330205D01*
X286741Y330193D01*
X286738Y330180D01*
X286734Y330168D01*
X286731Y330155D01*
X286726Y330143D01*
X286722Y330131D01*
X286627Y329902D01*
X286621Y329890D01*
X286616Y329878D01*
X286610Y329867D01*
X286604Y329856D01*
X286597Y329845D01*
X286590Y329834D01*
X286452Y329627D01*
X286444Y329617D01*
X286437Y329606D01*
X286429Y329597D01*
X286421Y329586D01*
X286412Y329577D01*
X286403Y329568D01*
X286228Y329392D01*
X286218Y329383D01*
X286209Y329374D01*
X286199Y329367D01*
X286189Y329358D01*
X286178Y329351D01*
X286168Y329343D01*
X285962Y329205D01*
X285950Y329199D01*
X285940Y329191D01*
X285928Y329186D01*
X285917Y329179D01*
X285905Y329174D01*
X285893Y329169D01*
X285664Y329074D01*
X285652Y329069D01*
X285640Y329065D01*
X285628Y329061D01*
X285615Y329057D01*
X285603Y329055D01*
X285590Y329051D01*
X285347Y329003D01*
X285334Y329001D01*
X285321Y328999D01*
X285308Y328998D01*
X285296Y328996D01*
X285283D01*
X285270Y328995D01*
X281242D01*
X281229Y328996D01*
X281216D01*
X281203Y328998D01*
X281191Y328999D01*
X281178Y329001D01*
X281165Y329003D01*
X280922Y329051D01*
X280909Y329055D01*
X280896Y329057D01*
X280884Y329061D01*
X280872Y329065D01*
X280860Y329069D01*
X280848Y329074D01*
X280618Y329169D01*
X280607Y329174D01*
X280595Y329179D01*
X280584Y329186D01*
X280572Y329191D01*
X280561Y329199D01*
X280550Y329205D01*
X280344Y329343D01*
X280334Y329351D01*
X280323Y329358D01*
X280313Y329366D01*
X280303Y329374D01*
X280294Y329383D01*
X280284Y329392D01*
X280109Y329568D01*
X280100Y329577D01*
X280091Y329586D01*
X280083Y329596D01*
X280075Y329606D01*
X280067Y329617D01*
X280060Y329627D01*
X279922Y329834D01*
X279915Y329845D01*
X279908Y329856D01*
X279902Y329867D01*
X279896Y329878D01*
X279891Y329890D01*
X279885Y329902D01*
X279790Y330131D01*
X279786Y330143D01*
X279781Y330155D01*
X279778Y330168D01*
X279774Y330180D01*
X279771Y330193D01*
X279768Y330205D01*
X279719Y330449D01*
X279718Y330461D01*
X279715Y330474D01*
X279714Y330487D01*
X279713Y330500D01*
Y330513D01*
X279712Y330525D01*
Y330650D01*
Y341988D01*
X279715Y342040D01*
X279725Y342090D01*
X279742Y342139D01*
X279765Y342185D01*
X279793Y342228D01*
X279827Y342267D01*
X279866Y342301D01*
X279909Y342330D01*
X279955Y342353D01*
X280004Y342369D01*
X280055Y342379D01*
X280106Y342383D01*
X286405D01*
X286457Y342379D01*
D02*
G37*
G36*
X276457D02*
X276508Y342369D01*
X276556Y342353D01*
X276603Y342330D01*
X276646Y342301D01*
X276684Y342267D01*
X276718Y342228D01*
X276747Y342185D01*
X276770Y342139D01*
X276787Y342090D01*
X276797Y342040D01*
X276800Y341988D01*
Y332539D01*
Y332539D01*
Y332539D01*
X276800Y332333D01*
X276797Y332281D01*
X276797Y332281D01*
X276743Y331872D01*
X276741Y331862D01*
X276733Y331821D01*
X276626Y331423D01*
X276618Y331398D01*
X276609Y331374D01*
X276451Y330992D01*
X276429Y330946D01*
X276222Y330589D01*
X276193Y330546D01*
X275942Y330218D01*
X275908Y330179D01*
X275616Y329887D01*
X275577Y329853D01*
X275250Y329602D01*
X275235Y329592D01*
X275207Y329573D01*
X274849Y329367D01*
X274826Y329356D01*
X274803Y329344D01*
X274422Y329186D01*
X274408Y329181D01*
X274373Y329169D01*
X273974Y329063D01*
X273933Y329054D01*
X273923Y329052D01*
X273514Y328999D01*
X273462Y328995D01*
X273462D01*
D01*
X273049D01*
D01*
X273049D01*
X272998Y328999D01*
X272589Y329052D01*
X272572Y329056D01*
X272538Y329063D01*
X272139Y329169D01*
X272115Y329178D01*
X272090Y329186D01*
X271709Y329344D01*
X271663Y329367D01*
X271305Y329573D01*
X271262Y329602D01*
X270935Y329853D01*
X270896Y329887D01*
X270604Y330179D01*
X270570Y330218D01*
X270319Y330546D01*
X270309Y330560D01*
X270290Y330589D01*
X270083Y330946D01*
X270072Y330969D01*
X270060Y330992D01*
X269903Y331374D01*
X269898Y331388D01*
X269886Y331423D01*
X269779Y331821D01*
X269771Y331862D01*
X269769Y331872D01*
X269715Y332281D01*
X269712Y332333D01*
Y332333D01*
D01*
Y332539D01*
Y341988D01*
X269715Y342040D01*
X269725Y342090D01*
X269742Y342139D01*
X269765Y342185D01*
X269793Y342228D01*
X269827Y342267D01*
X269866Y342301D01*
X269909Y342330D01*
X269955Y342353D01*
X270004Y342369D01*
X270055Y342379D01*
X270106Y342383D01*
X276406D01*
X276457Y342379D01*
D02*
G37*
G36*
X266457D02*
X266508Y342369D01*
X266557Y342353D01*
X266603Y342330D01*
X266646Y342301D01*
X266685Y342267D01*
X266719Y342228D01*
X266747Y342185D01*
X266770Y342139D01*
X266787Y342090D01*
X266797Y342040D01*
X266800Y341988D01*
Y332539D01*
Y332539D01*
Y332539D01*
X266800Y332333D01*
X266797Y332281D01*
X266797Y332281D01*
X266743Y331872D01*
X266741Y331862D01*
X266733Y331821D01*
X266626Y331423D01*
X266618Y331398D01*
X266609Y331374D01*
X266451Y330992D01*
X266428Y330946D01*
X266222Y330589D01*
X266193Y330546D01*
X265942Y330218D01*
X265908Y330179D01*
X265616Y329887D01*
X265577Y329853D01*
X265250Y329602D01*
X265235Y329592D01*
X265207Y329573D01*
X264849Y329367D01*
X264826Y329356D01*
X264803Y329344D01*
X264422Y329186D01*
X264408Y329181D01*
X264373Y329169D01*
X263974Y329063D01*
X263933Y329054D01*
X263923Y329052D01*
X263514Y328999D01*
X263462Y328995D01*
X263462D01*
D01*
X263050D01*
D01*
X263050D01*
X262998Y328999D01*
X262589Y329052D01*
X262572Y329056D01*
X262538Y329063D01*
X262139Y329169D01*
X262115Y329178D01*
X262090Y329186D01*
X261709Y329344D01*
X261663Y329367D01*
X261305Y329573D01*
X261262Y329602D01*
X260935Y329853D01*
X260896Y329887D01*
X260604Y330179D01*
X260570Y330218D01*
X260318Y330546D01*
X260309Y330560D01*
X260290Y330589D01*
X260083Y330946D01*
X260072Y330969D01*
X260061Y330992D01*
X259903Y331374D01*
X259898Y331388D01*
X259886Y331423D01*
X259779Y331821D01*
X259771Y331862D01*
X259769Y331872D01*
X259715Y332281D01*
X259712Y332333D01*
Y332333D01*
D01*
Y332539D01*
Y341988D01*
X259715Y342040D01*
X259725Y342090D01*
X259742Y342139D01*
X259765Y342185D01*
X259793Y342228D01*
X259827Y342267D01*
X259866Y342301D01*
X259909Y342330D01*
X259955Y342353D01*
X260004Y342369D01*
X260055Y342379D01*
X260106Y342383D01*
X266406D01*
X266457Y342379D01*
D02*
G37*
G36*
X256457D02*
X256508Y342369D01*
X256557Y342353D01*
X256603Y342330D01*
X256646Y342301D01*
X256684Y342267D01*
X256718Y342228D01*
X256747Y342185D01*
X256770Y342139D01*
X256787Y342090D01*
X256797Y342040D01*
X256800Y341988D01*
Y332539D01*
Y332539D01*
Y332539D01*
X256800Y332333D01*
X256797Y332281D01*
X256797Y332281D01*
X256743Y331872D01*
X256741Y331862D01*
X256733Y331821D01*
X256626Y331423D01*
X256618Y331398D01*
X256609Y331374D01*
X256451Y330992D01*
X256429Y330946D01*
X256222Y330589D01*
X256193Y330546D01*
X255942Y330218D01*
X255908Y330179D01*
X255616Y329887D01*
X255577Y329853D01*
X255250Y329602D01*
X255235Y329592D01*
X255207Y329573D01*
X254849Y329367D01*
X254826Y329356D01*
X254803Y329344D01*
X254421Y329186D01*
X254408Y329181D01*
X254373Y329169D01*
X253974Y329063D01*
X253933Y329054D01*
X253923Y329052D01*
X253514Y328999D01*
X253462Y328995D01*
X253462D01*
D01*
X253049D01*
D01*
X253049D01*
X252998Y328999D01*
X252589Y329052D01*
X252572Y329056D01*
X252538Y329063D01*
X252139Y329169D01*
X252115Y329178D01*
X252090Y329186D01*
X251709Y329344D01*
X251663Y329367D01*
X251305Y329573D01*
X251262Y329602D01*
X250935Y329853D01*
X250896Y329887D01*
X250604Y330179D01*
X250570Y330218D01*
X250319Y330546D01*
X250309Y330560D01*
X250290Y330589D01*
X250083Y330946D01*
X250072Y330969D01*
X250061Y330992D01*
X249903Y331374D01*
X249898Y331388D01*
X249886Y331423D01*
X249779Y331821D01*
X249771Y331862D01*
X249769Y331872D01*
X249715Y332281D01*
X249712Y332333D01*
Y332333D01*
D01*
Y332539D01*
Y341988D01*
X249715Y342040D01*
X249725Y342090D01*
X249742Y342139D01*
X249765Y342185D01*
X249793Y342228D01*
X249827Y342267D01*
X249866Y342301D01*
X249909Y342330D01*
X249955Y342353D01*
X250004Y342369D01*
X250055Y342379D01*
X250106Y342383D01*
X256405D01*
X256457Y342379D01*
D02*
G37*
G36*
X246457D02*
X246508Y342369D01*
X246556Y342353D01*
X246603Y342330D01*
X246646Y342301D01*
X246685Y342267D01*
X246719Y342228D01*
X246747Y342185D01*
X246770Y342139D01*
X246787Y342090D01*
X246797Y342040D01*
X246800Y341988D01*
Y332539D01*
Y332539D01*
Y332539D01*
X246800Y332333D01*
X246797Y332281D01*
X246797Y332281D01*
X246743Y331872D01*
X246741Y331862D01*
X246733Y331821D01*
X246626Y331423D01*
X246618Y331398D01*
X246609Y331374D01*
X246451Y330992D01*
X246428Y330946D01*
X246222Y330589D01*
X246193Y330546D01*
X245942Y330218D01*
X245908Y330179D01*
X245616Y329887D01*
X245577Y329853D01*
X245250Y329602D01*
X245235Y329592D01*
X245207Y329573D01*
X244849Y329367D01*
X244826Y329356D01*
X244803Y329344D01*
X244422Y329186D01*
X244408Y329181D01*
X244373Y329169D01*
X243974Y329063D01*
X243933Y329054D01*
X243923Y329052D01*
X243514Y328999D01*
X243462Y328995D01*
X243462D01*
D01*
X243050D01*
D01*
X243050D01*
X242998Y328999D01*
X242589Y329052D01*
X242572Y329056D01*
X242538Y329063D01*
X242139Y329169D01*
X242115Y329178D01*
X242090Y329186D01*
X241709Y329344D01*
X241663Y329367D01*
X241305Y329573D01*
X241262Y329602D01*
X240935Y329853D01*
X240896Y329887D01*
X240604Y330179D01*
X240570Y330218D01*
X240318Y330546D01*
X240309Y330560D01*
X240290Y330589D01*
X240083Y330946D01*
X240072Y330969D01*
X240060Y330992D01*
X239903Y331374D01*
X239898Y331388D01*
X239886Y331423D01*
X239779Y331821D01*
X239771Y331862D01*
X239769Y331872D01*
X239715Y332281D01*
X239712Y332333D01*
Y332333D01*
D01*
Y332539D01*
Y341988D01*
X239715Y342040D01*
X239725Y342090D01*
X239742Y342139D01*
X239765Y342185D01*
X239793Y342228D01*
X239827Y342267D01*
X239866Y342301D01*
X239909Y342330D01*
X239955Y342353D01*
X240004Y342369D01*
X240055Y342379D01*
X240106Y342383D01*
X246406D01*
X246457Y342379D01*
D02*
G37*
G36*
X236457D02*
X236508Y342369D01*
X236557Y342353D01*
X236603Y342330D01*
X236646Y342301D01*
X236684Y342267D01*
X236719Y342228D01*
X236747Y342185D01*
X236770Y342139D01*
X236787Y342090D01*
X236797Y342040D01*
X236800Y341988D01*
Y330650D01*
Y330525D01*
X236799Y330513D01*
Y330500D01*
X236797Y330487D01*
X236797Y330474D01*
X236794Y330461D01*
X236792Y330449D01*
X236744Y330205D01*
X236741Y330193D01*
X236738Y330180D01*
X236734Y330168D01*
X236731Y330155D01*
X236726Y330143D01*
X236722Y330131D01*
X236627Y329902D01*
X236621Y329890D01*
X236616Y329878D01*
X236610Y329867D01*
X236604Y329856D01*
X236597Y329845D01*
X236590Y329834D01*
X236452Y329627D01*
X236444Y329617D01*
X236437Y329606D01*
X236429Y329597D01*
X236421Y329586D01*
X236412Y329577D01*
X236403Y329568D01*
X236228Y329392D01*
X236218Y329383D01*
X236209Y329374D01*
X236199Y329367D01*
X236189Y329358D01*
X236178Y329351D01*
X236168Y329343D01*
X235962Y329205D01*
X235950Y329199D01*
X235940Y329191D01*
X235928Y329186D01*
X235917Y329179D01*
X235905Y329174D01*
X235893Y329169D01*
X235664Y329074D01*
X235652Y329069D01*
X235640Y329065D01*
X235628Y329061D01*
X235615Y329057D01*
X235603Y329055D01*
X235590Y329051D01*
X235347Y329003D01*
X235334Y329001D01*
X235321Y328999D01*
X235308Y328998D01*
X235296Y328996D01*
X235283D01*
X235270Y328995D01*
X231242D01*
X231229Y328996D01*
X231216D01*
X231203Y328998D01*
X231191Y328999D01*
X231178Y329001D01*
X231165Y329003D01*
X230922Y329051D01*
X230909Y329055D01*
X230896Y329057D01*
X230884Y329061D01*
X230872Y329065D01*
X230860Y329069D01*
X230848Y329074D01*
X230618Y329169D01*
X230607Y329174D01*
X230595Y329179D01*
X230584Y329186D01*
X230572Y329191D01*
X230561Y329199D01*
X230550Y329205D01*
X230344Y329343D01*
X230334Y329351D01*
X230323Y329358D01*
X230313Y329366D01*
X230303Y329374D01*
X230294Y329383D01*
X230284Y329392D01*
X230109Y329568D01*
X230100Y329577D01*
X230091Y329586D01*
X230083Y329596D01*
X230075Y329606D01*
X230067Y329617D01*
X230060Y329627D01*
X229922Y329834D01*
X229915Y329845D01*
X229908Y329856D01*
X229902Y329867D01*
X229896Y329878D01*
X229891Y329890D01*
X229885Y329902D01*
X229790Y330131D01*
X229786Y330143D01*
X229781Y330155D01*
X229778Y330168D01*
X229774Y330180D01*
X229771Y330193D01*
X229768Y330205D01*
X229719Y330449D01*
X229718Y330461D01*
X229715Y330474D01*
X229714Y330487D01*
X229713Y330500D01*
Y330513D01*
X229712Y330525D01*
Y330650D01*
Y341988D01*
X229715Y342040D01*
X229725Y342090D01*
X229742Y342139D01*
X229765Y342185D01*
X229793Y342228D01*
X229827Y342267D01*
X229866Y342301D01*
X229909Y342330D01*
X229955Y342353D01*
X230004Y342369D01*
X230055Y342379D01*
X230106Y342383D01*
X236405D01*
X236457Y342379D01*
D02*
G37*
G36*
X226457D02*
X226508Y342369D01*
X226556Y342353D01*
X226603Y342330D01*
X226646Y342301D01*
X226684Y342267D01*
X226718Y342228D01*
X226747Y342185D01*
X226770Y342139D01*
X226787Y342090D01*
X226797Y342040D01*
X226800Y341988D01*
Y332539D01*
Y332539D01*
Y332539D01*
X226800Y332333D01*
X226797Y332281D01*
X226797Y332281D01*
X226743Y331872D01*
X226741Y331862D01*
X226733Y331821D01*
X226626Y331423D01*
X226618Y331398D01*
X226609Y331374D01*
X226451Y330992D01*
X226429Y330946D01*
X226222Y330589D01*
X226193Y330546D01*
X225942Y330218D01*
X225908Y330179D01*
X225616Y329887D01*
X225577Y329853D01*
X225250Y329602D01*
X225235Y329592D01*
X225207Y329573D01*
X224849Y329367D01*
X224826Y329356D01*
X224803Y329344D01*
X224422Y329186D01*
X224408Y329181D01*
X224373Y329169D01*
X223974Y329063D01*
X223933Y329054D01*
X223923Y329052D01*
X223514Y328999D01*
X223462Y328995D01*
X223462D01*
D01*
X223049D01*
D01*
X223049D01*
X222998Y328999D01*
X222589Y329052D01*
X222572Y329056D01*
X222538Y329063D01*
X222139Y329169D01*
X222115Y329178D01*
X222090Y329186D01*
X221709Y329344D01*
X221663Y329367D01*
X221305Y329573D01*
X221262Y329602D01*
X220935Y329853D01*
X220896Y329887D01*
X220604Y330179D01*
X220570Y330218D01*
X220319Y330546D01*
X220309Y330560D01*
X220290Y330589D01*
X220083Y330946D01*
X220072Y330969D01*
X220060Y330992D01*
X219903Y331374D01*
X219898Y331388D01*
X219886Y331423D01*
X219779Y331821D01*
X219771Y331862D01*
X219769Y331872D01*
X219715Y332281D01*
X219712Y332333D01*
Y332333D01*
D01*
Y332539D01*
Y341988D01*
X219715Y342040D01*
X219725Y342090D01*
X219742Y342139D01*
X219765Y342185D01*
X219793Y342228D01*
X219827Y342267D01*
X219866Y342301D01*
X219909Y342330D01*
X219955Y342353D01*
X220004Y342369D01*
X220055Y342379D01*
X220106Y342383D01*
X226406D01*
X226457Y342379D01*
D02*
G37*
G36*
X216457D02*
X216508Y342369D01*
X216557Y342353D01*
X216603Y342330D01*
X216646Y342301D01*
X216685Y342267D01*
X216719Y342228D01*
X216747Y342185D01*
X216770Y342139D01*
X216787Y342090D01*
X216797Y342040D01*
X216800Y341988D01*
Y332539D01*
Y332539D01*
Y332539D01*
X216800Y332333D01*
X216797Y332281D01*
X216797Y332281D01*
X216743Y331872D01*
X216741Y331862D01*
X216733Y331821D01*
X216626Y331423D01*
X216618Y331398D01*
X216609Y331374D01*
X216451Y330992D01*
X216428Y330946D01*
X216222Y330589D01*
X216193Y330546D01*
X215942Y330218D01*
X215908Y330179D01*
X215616Y329887D01*
X215577Y329853D01*
X215250Y329602D01*
X215235Y329592D01*
X215207Y329573D01*
X214849Y329367D01*
X214826Y329356D01*
X214803Y329344D01*
X214422Y329186D01*
X214408Y329181D01*
X214373Y329169D01*
X213974Y329063D01*
X213933Y329054D01*
X213923Y329052D01*
X213514Y328999D01*
X213462Y328995D01*
X213462D01*
D01*
X213050D01*
D01*
X213050D01*
X212998Y328999D01*
X212589Y329052D01*
X212572Y329056D01*
X212538Y329063D01*
X212139Y329169D01*
X212115Y329178D01*
X212090Y329186D01*
X211709Y329344D01*
X211663Y329367D01*
X211305Y329573D01*
X211262Y329602D01*
X210935Y329853D01*
X210896Y329887D01*
X210604Y330179D01*
X210570Y330218D01*
X210318Y330546D01*
X210309Y330560D01*
X210290Y330589D01*
X210083Y330946D01*
X210072Y330969D01*
X210061Y330992D01*
X209903Y331374D01*
X209898Y331388D01*
X209886Y331423D01*
X209779Y331821D01*
X209771Y331862D01*
X209769Y331872D01*
X209715Y332281D01*
X209712Y332333D01*
Y332333D01*
D01*
Y332539D01*
Y341988D01*
X209715Y342040D01*
X209725Y342090D01*
X209742Y342139D01*
X209765Y342185D01*
X209793Y342228D01*
X209827Y342267D01*
X209866Y342301D01*
X209909Y342330D01*
X209955Y342353D01*
X210004Y342369D01*
X210055Y342379D01*
X210106Y342383D01*
X216406D01*
X216457Y342379D01*
D02*
G37*
G36*
X206457D02*
X206508Y342369D01*
X206557Y342353D01*
X206603Y342330D01*
X206646Y342301D01*
X206684Y342267D01*
X206718Y342228D01*
X206747Y342185D01*
X206770Y342139D01*
X206787Y342090D01*
X206797Y342040D01*
X206800Y341988D01*
Y332539D01*
Y332539D01*
Y332539D01*
X206800Y332333D01*
X206797Y332281D01*
X206797Y332281D01*
X206743Y331872D01*
X206741Y331862D01*
X206733Y331821D01*
X206626Y331423D01*
X206618Y331398D01*
X206609Y331374D01*
X206451Y330992D01*
X206429Y330946D01*
X206222Y330589D01*
X206193Y330546D01*
X205942Y330218D01*
X205908Y330179D01*
X205616Y329887D01*
X205577Y329853D01*
X205250Y329602D01*
X205235Y329592D01*
X205207Y329573D01*
X204849Y329367D01*
X204826Y329356D01*
X204803Y329344D01*
X204421Y329186D01*
X204408Y329181D01*
X204373Y329169D01*
X203974Y329063D01*
X203933Y329054D01*
X203923Y329052D01*
X203514Y328999D01*
X203462Y328995D01*
X203462D01*
D01*
X203049D01*
D01*
X203049D01*
X202998Y328999D01*
X202589Y329052D01*
X202572Y329056D01*
X202538Y329063D01*
X202139Y329169D01*
X202115Y329178D01*
X202090Y329186D01*
X201709Y329344D01*
X201663Y329367D01*
X201305Y329573D01*
X201262Y329602D01*
X200935Y329853D01*
X200896Y329887D01*
X200604Y330179D01*
X200570Y330218D01*
X200319Y330546D01*
X200309Y330560D01*
X200290Y330589D01*
X200083Y330946D01*
X200072Y330969D01*
X200061Y330992D01*
X199902Y331374D01*
X199898Y331388D01*
X199886Y331423D01*
X199779Y331821D01*
X199771Y331862D01*
X199769Y331872D01*
X199715Y332281D01*
X199712Y332333D01*
Y332333D01*
D01*
Y332539D01*
Y341988D01*
X199715Y342040D01*
X199725Y342090D01*
X199742Y342139D01*
X199765Y342185D01*
X199793Y342228D01*
X199827Y342267D01*
X199866Y342301D01*
X199909Y342330D01*
X199955Y342353D01*
X200004Y342369D01*
X200055Y342379D01*
X200106Y342383D01*
X206405D01*
X206457Y342379D01*
D02*
G37*
G36*
X196457D02*
X196508Y342369D01*
X196556Y342353D01*
X196603Y342330D01*
X196646Y342301D01*
X196685Y342267D01*
X196719Y342228D01*
X196747Y342185D01*
X196770Y342139D01*
X196787Y342090D01*
X196797Y342040D01*
X196800Y341988D01*
Y332539D01*
Y332539D01*
Y332539D01*
X196800Y332333D01*
X196797Y332281D01*
X196797Y332281D01*
X196743Y331872D01*
X196741Y331862D01*
X196733Y331821D01*
X196626Y331423D01*
X196618Y331398D01*
X196609Y331374D01*
X196451Y330992D01*
X196428Y330946D01*
X196222Y330589D01*
X196193Y330546D01*
X195942Y330218D01*
X195908Y330179D01*
X195616Y329887D01*
X195577Y329853D01*
X195250Y329602D01*
X195235Y329592D01*
X195207Y329573D01*
X194849Y329367D01*
X194826Y329356D01*
X194803Y329344D01*
X194422Y329186D01*
X194408Y329181D01*
X194373Y329169D01*
X193974Y329063D01*
X193933Y329054D01*
X193923Y329052D01*
X193514Y328999D01*
X193462Y328995D01*
X193462D01*
D01*
X193050D01*
D01*
X193050D01*
X192998Y328999D01*
X192589Y329052D01*
X192572Y329056D01*
X192538Y329063D01*
X192139Y329169D01*
X192115Y329178D01*
X192090Y329186D01*
X191709Y329344D01*
X191663Y329367D01*
X191305Y329573D01*
X191262Y329602D01*
X190935Y329853D01*
X190896Y329887D01*
X190604Y330179D01*
X190570Y330218D01*
X190319Y330546D01*
X190309Y330560D01*
X190290Y330589D01*
X190083Y330946D01*
X190072Y330969D01*
X190060Y330992D01*
X189902Y331374D01*
X189898Y331388D01*
X189886Y331423D01*
X189779Y331821D01*
X189771Y331862D01*
X189769Y331872D01*
X189715Y332281D01*
X189712Y332333D01*
Y332333D01*
D01*
Y332539D01*
Y341988D01*
X189715Y342040D01*
X189725Y342090D01*
X189742Y342139D01*
X189765Y342185D01*
X189793Y342228D01*
X189827Y342267D01*
X189866Y342301D01*
X189909Y342330D01*
X189955Y342353D01*
X190004Y342369D01*
X190055Y342379D01*
X190106Y342383D01*
X196405D01*
X196457Y342379D01*
D02*
G37*
G36*
X186457D02*
X186508Y342369D01*
X186556Y342353D01*
X186603Y342330D01*
X186646Y342301D01*
X186685Y342267D01*
X186718Y342228D01*
X186747Y342185D01*
X186770Y342139D01*
X186787Y342090D01*
X186797Y342040D01*
X186800Y341988D01*
Y330650D01*
Y330525D01*
X186799Y330513D01*
Y330500D01*
X186797Y330487D01*
X186797Y330474D01*
X186794Y330461D01*
X186793Y330449D01*
X186744Y330205D01*
X186741Y330193D01*
X186738Y330180D01*
X186734Y330168D01*
X186731Y330155D01*
X186726Y330143D01*
X186722Y330131D01*
X186627Y329902D01*
X186621Y329890D01*
X186616Y329878D01*
X186609Y329867D01*
X186604Y329856D01*
X186597Y329845D01*
X186590Y329834D01*
X186452Y329627D01*
X186444Y329617D01*
X186437Y329606D01*
X186429Y329597D01*
X186421Y329586D01*
X186412Y329577D01*
X186403Y329568D01*
X186228Y329392D01*
X186218Y329383D01*
X186209Y329374D01*
X186199Y329367D01*
X186189Y329358D01*
X186178Y329351D01*
X186168Y329343D01*
X185962Y329205D01*
X185950Y329199D01*
X185940Y329191D01*
X185928Y329186D01*
X185917Y329179D01*
X185905Y329174D01*
X185893Y329169D01*
X185664Y329074D01*
X185652Y329069D01*
X185640Y329065D01*
X185628Y329061D01*
X185615Y329057D01*
X185603Y329055D01*
X185590Y329051D01*
X185347Y329003D01*
X185334Y329001D01*
X185321Y328999D01*
X185308Y328998D01*
X185296Y328996D01*
X185283D01*
X185270Y328995D01*
X181242D01*
X181229Y328996D01*
X181216D01*
X181203Y328998D01*
X181191Y328999D01*
X181178Y329001D01*
X181165Y329003D01*
X180922Y329051D01*
X180909Y329055D01*
X180896Y329057D01*
X180884Y329061D01*
X180872Y329065D01*
X180860Y329069D01*
X180848Y329074D01*
X180618Y329169D01*
X180607Y329174D01*
X180595Y329179D01*
X180584Y329186D01*
X180572Y329191D01*
X180561Y329199D01*
X180550Y329205D01*
X180344Y329343D01*
X180334Y329351D01*
X180323Y329358D01*
X180313Y329366D01*
X180303Y329374D01*
X180294Y329383D01*
X180284Y329392D01*
X180109Y329568D01*
X180100Y329577D01*
X180091Y329586D01*
X180083Y329596D01*
X180075Y329606D01*
X180067Y329617D01*
X180060Y329627D01*
X179922Y329834D01*
X179915Y329845D01*
X179908Y329856D01*
X179902Y329867D01*
X179896Y329878D01*
X179891Y329890D01*
X179885Y329902D01*
X179790Y330131D01*
X179786Y330143D01*
X179781Y330155D01*
X179778Y330168D01*
X179774Y330180D01*
X179771Y330193D01*
X179768Y330205D01*
X179719Y330449D01*
X179718Y330461D01*
X179715Y330474D01*
X179714Y330487D01*
X179713Y330500D01*
Y330513D01*
X179712Y330525D01*
Y330650D01*
Y341988D01*
X179715Y342040D01*
X179725Y342090D01*
X179742Y342139D01*
X179765Y342185D01*
X179793Y342228D01*
X179827Y342267D01*
X179866Y342301D01*
X179909Y342330D01*
X179955Y342353D01*
X180004Y342369D01*
X180055Y342379D01*
X180106Y342383D01*
X186406D01*
X186457Y342379D01*
D02*
G37*
G36*
X176457D02*
X176508Y342369D01*
X176557Y342353D01*
X176603Y342330D01*
X176646Y342301D01*
X176684Y342267D01*
X176718Y342228D01*
X176747Y342185D01*
X176770Y342139D01*
X176787Y342090D01*
X176797Y342040D01*
X176800Y341988D01*
Y332539D01*
Y332333D01*
D01*
Y332333D01*
X176797Y332281D01*
X176743Y331872D01*
X176741Y331862D01*
X176733Y331821D01*
X176626Y331423D01*
X176614Y331388D01*
X176609Y331374D01*
X176451Y330992D01*
X176440Y330969D01*
X176428Y330946D01*
X176222Y330589D01*
X176203Y330560D01*
X176193Y330546D01*
X175942Y330218D01*
X175908Y330179D01*
X175616Y329887D01*
X175577Y329853D01*
X175250Y329602D01*
X175207Y329573D01*
X174849Y329367D01*
X174803Y329344D01*
X174422Y329186D01*
X174397Y329178D01*
X174373Y329169D01*
X173974Y329063D01*
X173940Y329056D01*
X173923Y329052D01*
X173514Y328999D01*
X173462Y328995D01*
X173462D01*
D01*
X173049D01*
D01*
X173049D01*
X172998Y328999D01*
X172589Y329052D01*
X172579Y329054D01*
X172538Y329063D01*
X172139Y329169D01*
X172104Y329181D01*
X172090Y329186D01*
X171709Y329344D01*
X171685Y329356D01*
X171663Y329367D01*
X171305Y329573D01*
X171276Y329592D01*
X171262Y329602D01*
X170935Y329853D01*
X170896Y329887D01*
X170604Y330179D01*
X170570Y330218D01*
X170318Y330546D01*
X170290Y330589D01*
X170083Y330946D01*
X170061Y330992D01*
X169903Y331374D01*
X169894Y331398D01*
X169886Y331423D01*
X169779Y331821D01*
X169772Y331855D01*
X169769Y331872D01*
X169715Y332281D01*
X169712Y332333D01*
Y332333D01*
D01*
Y332539D01*
Y332539D01*
Y341988D01*
X169715Y342040D01*
X169725Y342090D01*
X169742Y342139D01*
X169765Y342185D01*
X169793Y342228D01*
X169827Y342267D01*
X169866Y342301D01*
X169909Y342330D01*
X169955Y342353D01*
X170004Y342369D01*
X170055Y342379D01*
X170106Y342383D01*
X176406D01*
X176457Y342379D01*
D02*
G37*
G36*
X166457D02*
X166508Y342369D01*
X166557Y342353D01*
X166603Y342330D01*
X166646Y342301D01*
X166684Y342267D01*
X166718Y342228D01*
X166747Y342185D01*
X166770Y342139D01*
X166787Y342090D01*
X166797Y342040D01*
X166800Y341988D01*
Y332539D01*
Y332333D01*
D01*
Y332333D01*
X166797Y332281D01*
X166743Y331872D01*
X166741Y331862D01*
X166733Y331821D01*
X166626Y331423D01*
X166614Y331388D01*
X166609Y331374D01*
X166451Y330992D01*
X166440Y330969D01*
X166428Y330946D01*
X166222Y330589D01*
X166203Y330560D01*
X166193Y330546D01*
X165942Y330218D01*
X165908Y330179D01*
X165616Y329887D01*
X165577Y329853D01*
X165250Y329602D01*
X165207Y329573D01*
X164849Y329367D01*
X164803Y329344D01*
X164421Y329186D01*
X164397Y329178D01*
X164373Y329169D01*
X163974Y329063D01*
X163940Y329056D01*
X163923Y329052D01*
X163514Y328999D01*
X163462Y328995D01*
X163462D01*
D01*
X163049D01*
D01*
X163049D01*
X162998Y328999D01*
X162589Y329052D01*
X162579Y329054D01*
X162538Y329063D01*
X162139Y329169D01*
X162104Y329181D01*
X162090Y329186D01*
X161709Y329344D01*
X161685Y329356D01*
X161663Y329367D01*
X161305Y329573D01*
X161276Y329592D01*
X161262Y329602D01*
X160935Y329853D01*
X160896Y329887D01*
X160604Y330179D01*
X160570Y330218D01*
X160319Y330546D01*
X160290Y330589D01*
X160083Y330946D01*
X160061Y330992D01*
X159903Y331374D01*
X159894Y331398D01*
X159886Y331423D01*
X159779Y331821D01*
X159772Y331855D01*
X159769Y331872D01*
X159715Y332281D01*
X159712Y332333D01*
Y332333D01*
D01*
Y332539D01*
Y332539D01*
Y341988D01*
X159715Y342040D01*
X159725Y342090D01*
X159742Y342139D01*
X159765Y342185D01*
X159793Y342228D01*
X159827Y342267D01*
X159866Y342301D01*
X159909Y342330D01*
X159955Y342353D01*
X160004Y342369D01*
X160055Y342379D01*
X160106Y342383D01*
X166405D01*
X166457Y342379D01*
D02*
G37*
G36*
X156457D02*
X156508Y342369D01*
X156556Y342353D01*
X156603Y342330D01*
X156646Y342301D01*
X156685Y342267D01*
X156719Y342228D01*
X156747Y342185D01*
X156770Y342139D01*
X156787Y342090D01*
X156797Y342040D01*
X156800Y341988D01*
Y332539D01*
Y332333D01*
D01*
Y332333D01*
X156797Y332281D01*
X156743Y331872D01*
X156741Y331862D01*
X156733Y331821D01*
X156626Y331423D01*
X156614Y331388D01*
X156609Y331374D01*
X156451Y330992D01*
X156440Y330969D01*
X156428Y330946D01*
X156222Y330589D01*
X156203Y330560D01*
X156193Y330546D01*
X155942Y330218D01*
X155908Y330179D01*
X155616Y329887D01*
X155577Y329853D01*
X155250Y329602D01*
X155207Y329573D01*
X154849Y329367D01*
X154803Y329344D01*
X154421Y329186D01*
X154397Y329178D01*
X154373Y329169D01*
X153974Y329063D01*
X153940Y329056D01*
X153923Y329052D01*
X153514Y328999D01*
X153462Y328995D01*
X153462D01*
D01*
X153050D01*
D01*
X153050D01*
X152998Y328999D01*
X152589Y329052D01*
X152579Y329054D01*
X152538Y329063D01*
X152139Y329169D01*
X152104Y329181D01*
X152090Y329186D01*
X151709Y329344D01*
X151685Y329356D01*
X151663Y329367D01*
X151305Y329573D01*
X151276Y329592D01*
X151262Y329602D01*
X150935Y329853D01*
X150896Y329887D01*
X150604Y330179D01*
X150570Y330218D01*
X150319Y330546D01*
X150290Y330589D01*
X150083Y330946D01*
X150060Y330992D01*
X149902Y331374D01*
X149894Y331398D01*
X149886Y331423D01*
X149779Y331821D01*
X149772Y331855D01*
X149769Y331872D01*
X149715Y332281D01*
X149712Y332333D01*
Y332333D01*
D01*
Y332539D01*
Y332539D01*
Y341988D01*
X149715Y342040D01*
X149725Y342090D01*
X149742Y342139D01*
X149765Y342185D01*
X149793Y342228D01*
X149827Y342267D01*
X149866Y342301D01*
X149909Y342330D01*
X149955Y342353D01*
X150004Y342369D01*
X150055Y342379D01*
X150106Y342383D01*
X156405D01*
X156457Y342379D01*
D02*
G37*
G36*
X146457D02*
X146508Y342369D01*
X146556Y342353D01*
X146603Y342330D01*
X146646Y342301D01*
X146685Y342267D01*
X146719Y342228D01*
X146747Y342185D01*
X146770Y342139D01*
X146787Y342090D01*
X146797Y342040D01*
X146800Y341988D01*
Y332539D01*
Y332333D01*
D01*
Y332333D01*
X146797Y332281D01*
X146743Y331872D01*
X146741Y331862D01*
X146733Y331821D01*
X146626Y331423D01*
X146614Y331388D01*
X146609Y331374D01*
X146451Y330992D01*
X146440Y330969D01*
X146428Y330946D01*
X146222Y330589D01*
X146203Y330560D01*
X146193Y330546D01*
X145942Y330218D01*
X145908Y330179D01*
X145616Y329887D01*
X145577Y329853D01*
X145250Y329602D01*
X145207Y329573D01*
X144849Y329367D01*
X144803Y329344D01*
X144422Y329186D01*
X144397Y329178D01*
X144373Y329169D01*
X143974Y329063D01*
X143940Y329056D01*
X143923Y329052D01*
X143514Y328999D01*
X143462Y328995D01*
X143462D01*
D01*
X143050D01*
D01*
X143050D01*
X142998Y328999D01*
X142589Y329052D01*
X142579Y329054D01*
X142538Y329063D01*
X142139Y329169D01*
X142104Y329181D01*
X142090Y329186D01*
X141709Y329344D01*
X141685Y329356D01*
X141663Y329367D01*
X141305Y329573D01*
X141276Y329592D01*
X141262Y329602D01*
X140935Y329853D01*
X140896Y329887D01*
X140604Y330179D01*
X140570Y330218D01*
X140319Y330546D01*
X140290Y330589D01*
X140083Y330946D01*
X140060Y330992D01*
X139902Y331374D01*
X139894Y331398D01*
X139886Y331423D01*
X139779Y331821D01*
X139772Y331855D01*
X139769Y331872D01*
X139715Y332281D01*
X139712Y332333D01*
Y332333D01*
D01*
Y332539D01*
Y332539D01*
Y341988D01*
X139715Y342040D01*
X139725Y342090D01*
X139742Y342139D01*
X139765Y342185D01*
X139793Y342228D01*
X139827Y342267D01*
X139866Y342301D01*
X139909Y342330D01*
X139955Y342353D01*
X140004Y342369D01*
X140055Y342379D01*
X140106Y342383D01*
X146405D01*
X146457Y342379D01*
D02*
G37*
G36*
X136457D02*
X136508Y342369D01*
X136556Y342353D01*
X136603Y342330D01*
X136646Y342301D01*
X136685Y342267D01*
X136718Y342228D01*
X136747Y342185D01*
X136770Y342139D01*
X136787Y342090D01*
X136797Y342040D01*
X136800Y341988D01*
Y330650D01*
Y330525D01*
X136799Y330513D01*
Y330500D01*
X136797Y330487D01*
X136797Y330474D01*
X136794Y330461D01*
X136793Y330449D01*
X136744Y330205D01*
X136741Y330193D01*
X136738Y330180D01*
X136734Y330168D01*
X136731Y330155D01*
X136726Y330143D01*
X136722Y330131D01*
X136627Y329902D01*
X136621Y329890D01*
X136616Y329878D01*
X136609Y329867D01*
X136604Y329856D01*
X136597Y329845D01*
X136590Y329834D01*
X136452Y329627D01*
X136444Y329617D01*
X136437Y329606D01*
X136429Y329596D01*
X136421Y329586D01*
X136412Y329577D01*
X136403Y329568D01*
X136228Y329392D01*
X136218Y329383D01*
X136209Y329374D01*
X136199Y329366D01*
X136189Y329358D01*
X136178Y329351D01*
X136168Y329343D01*
X135962Y329205D01*
X135950Y329199D01*
X135940Y329191D01*
X135928Y329186D01*
X135917Y329179D01*
X135905Y329174D01*
X135893Y329169D01*
X135664Y329074D01*
X135652Y329069D01*
X135640Y329065D01*
X135628Y329061D01*
X135615Y329057D01*
X135603Y329055D01*
X135590Y329051D01*
X135347Y329003D01*
X135334Y329001D01*
X135321Y328999D01*
X135308Y328998D01*
X135296Y328996D01*
X135283D01*
X135270Y328995D01*
X131242D01*
X131229Y328996D01*
X131216D01*
X131203Y328998D01*
X131191Y328999D01*
X131178Y329001D01*
X131165Y329003D01*
X130922Y329051D01*
X130909Y329055D01*
X130896Y329057D01*
X130884Y329061D01*
X130872Y329065D01*
X130860Y329069D01*
X130848Y329074D01*
X130618Y329169D01*
X130607Y329174D01*
X130595Y329179D01*
X130584Y329186D01*
X130572Y329191D01*
X130561Y329199D01*
X130550Y329205D01*
X130344Y329343D01*
X130334Y329351D01*
X130323Y329358D01*
X130313Y329367D01*
X130303Y329374D01*
X130294Y329383D01*
X130284Y329392D01*
X130109Y329568D01*
X130100Y329577D01*
X130091Y329586D01*
X130083Y329597D01*
X130075Y329606D01*
X130067Y329617D01*
X130060Y329627D01*
X129922Y329834D01*
X129915Y329845D01*
X129908Y329856D01*
X129902Y329867D01*
X129896Y329878D01*
X129891Y329890D01*
X129885Y329902D01*
X129790Y330131D01*
X129786Y330143D01*
X129781Y330155D01*
X129778Y330168D01*
X129774Y330180D01*
X129771Y330193D01*
X129768Y330205D01*
X129719Y330449D01*
X129718Y330461D01*
X129715Y330474D01*
X129714Y330487D01*
X129713Y330500D01*
Y330513D01*
X129712Y330525D01*
Y330650D01*
Y341988D01*
X129715Y342040D01*
X129725Y342090D01*
X129742Y342139D01*
X129765Y342185D01*
X129793Y342228D01*
X129827Y342267D01*
X129866Y342301D01*
X129909Y342330D01*
X129955Y342353D01*
X130004Y342369D01*
X130055Y342379D01*
X130106Y342383D01*
X136406D01*
X136457Y342379D01*
D02*
G37*
G36*
X126457D02*
X126508Y342369D01*
X126557Y342353D01*
X126603Y342330D01*
X126646Y342301D01*
X126684Y342267D01*
X126718Y342228D01*
X126747Y342185D01*
X126770Y342139D01*
X126787Y342090D01*
X126797Y342040D01*
X126800Y341988D01*
Y332539D01*
Y332333D01*
D01*
Y332333D01*
X126797Y332281D01*
X126743Y331872D01*
X126741Y331862D01*
X126733Y331821D01*
X126626Y331423D01*
X126614Y331388D01*
X126609Y331374D01*
X126451Y330992D01*
X126440Y330969D01*
X126428Y330946D01*
X126222Y330589D01*
X126203Y330560D01*
X126193Y330546D01*
X125942Y330218D01*
X125908Y330179D01*
X125616Y329887D01*
X125577Y329853D01*
X125250Y329602D01*
X125207Y329573D01*
X124849Y329367D01*
X124803Y329344D01*
X124422Y329186D01*
X124397Y329178D01*
X124373Y329169D01*
X123974Y329063D01*
X123940Y329056D01*
X123923Y329052D01*
X123514Y328999D01*
X123462Y328995D01*
X123462D01*
D01*
X123049D01*
D01*
X123049D01*
X122998Y328999D01*
X122589Y329052D01*
X122579Y329054D01*
X122538Y329063D01*
X122139Y329169D01*
X122104Y329181D01*
X122090Y329186D01*
X121709Y329344D01*
X121685Y329356D01*
X121663Y329367D01*
X121305Y329573D01*
X121276Y329592D01*
X121262Y329602D01*
X120935Y329853D01*
X120896Y329887D01*
X120604Y330179D01*
X120570Y330218D01*
X120318Y330546D01*
X120290Y330589D01*
X120083Y330946D01*
X120061Y330992D01*
X119903Y331374D01*
X119894Y331398D01*
X119886Y331423D01*
X119779Y331821D01*
X119772Y331855D01*
X119769Y331872D01*
X119715Y332281D01*
X119712Y332333D01*
Y332333D01*
D01*
Y332539D01*
Y332539D01*
Y341988D01*
X119715Y342040D01*
X119725Y342090D01*
X119742Y342139D01*
X119765Y342185D01*
X119793Y342228D01*
X119827Y342267D01*
X119866Y342301D01*
X119909Y342330D01*
X119955Y342353D01*
X120004Y342369D01*
X120055Y342379D01*
X120106Y342383D01*
X126406D01*
X126457Y342379D01*
D02*
G37*
G36*
X116457D02*
X116508Y342369D01*
X116557Y342353D01*
X116603Y342330D01*
X116646Y342301D01*
X116684Y342267D01*
X116718Y342228D01*
X116747Y342185D01*
X116770Y342139D01*
X116787Y342090D01*
X116797Y342040D01*
X116800Y341988D01*
Y332539D01*
Y332333D01*
D01*
Y332333D01*
X116797Y332281D01*
X116743Y331872D01*
X116741Y331862D01*
X116733Y331821D01*
X116626Y331423D01*
X116614Y331388D01*
X116609Y331374D01*
X116451Y330992D01*
X116440Y330969D01*
X116428Y330946D01*
X116222Y330589D01*
X116203Y330560D01*
X116193Y330546D01*
X115942Y330218D01*
X115908Y330179D01*
X115616Y329887D01*
X115577Y329853D01*
X115250Y329602D01*
X115207Y329573D01*
X114849Y329367D01*
X114803Y329344D01*
X114421Y329186D01*
X114397Y329178D01*
X114373Y329169D01*
X113974Y329063D01*
X113940Y329056D01*
X113923Y329052D01*
X113514Y328999D01*
X113462Y328995D01*
X113462D01*
D01*
X113049D01*
D01*
X113049D01*
X112998Y328999D01*
X112589Y329052D01*
X112579Y329054D01*
X112538Y329063D01*
X112139Y329169D01*
X112104Y329181D01*
X112090Y329186D01*
X111709Y329344D01*
X111685Y329356D01*
X111663Y329367D01*
X111305Y329573D01*
X111276Y329592D01*
X111262Y329602D01*
X110935Y329853D01*
X110896Y329887D01*
X110604Y330179D01*
X110570Y330218D01*
X110319Y330546D01*
X110290Y330589D01*
X110083Y330946D01*
X110061Y330992D01*
X109903Y331374D01*
X109894Y331398D01*
X109886Y331423D01*
X109779Y331821D01*
X109772Y331855D01*
X109769Y331872D01*
X109715Y332281D01*
X109712Y332333D01*
Y332333D01*
D01*
Y332539D01*
Y332539D01*
Y341988D01*
X109715Y342040D01*
X109725Y342090D01*
X109742Y342139D01*
X109765Y342185D01*
X109793Y342228D01*
X109827Y342267D01*
X109866Y342301D01*
X109909Y342330D01*
X109955Y342353D01*
X110004Y342369D01*
X110055Y342379D01*
X110106Y342383D01*
X116405D01*
X116457Y342379D01*
D02*
G37*
G36*
X311607Y311041D02*
X311657Y311031D01*
X311706Y311014D01*
X311752Y310991D01*
X311795Y310963D01*
X311834Y310929D01*
X311868Y310890D01*
X311897Y310847D01*
X311920Y310801D01*
X311936Y310752D01*
X311946Y310701D01*
X311950Y310650D01*
Y304350D01*
X311946Y304299D01*
X311936Y304248D01*
X311920Y304199D01*
X311897Y304153D01*
X311868Y304110D01*
X311834Y304071D01*
X311795Y304037D01*
X311752Y304009D01*
X311706Y303986D01*
X311657Y303969D01*
X311607Y303959D01*
X311555Y303956D01*
X302106D01*
X302106D01*
X302106D01*
X301900Y303956D01*
X301848Y303959D01*
X301848Y303959D01*
X301439Y304013D01*
X301429Y304015D01*
X301388Y304023D01*
X300990Y304130D01*
X300965Y304138D01*
X300941Y304147D01*
X300559Y304305D01*
X300513Y304328D01*
X300155Y304534D01*
X300113Y304563D01*
X299785Y304814D01*
X299746Y304848D01*
X299454Y305140D01*
X299420Y305179D01*
X299169Y305506D01*
X299159Y305521D01*
X299140Y305549D01*
X298934Y305907D01*
X298922Y305929D01*
X298911Y305953D01*
X298753Y306334D01*
X298748Y306348D01*
X298736Y306383D01*
X298629Y306782D01*
X298621Y306823D01*
X298619Y306833D01*
X298566Y307242D01*
X298562Y307294D01*
Y307294D01*
D01*
Y307500D01*
Y307706D01*
D01*
Y307706D01*
X298566Y307758D01*
X298619Y308167D01*
X298623Y308184D01*
X298629Y308218D01*
X298736Y308617D01*
X298745Y308641D01*
X298753Y308666D01*
X298911Y309047D01*
X298934Y309093D01*
X299140Y309451D01*
X299169Y309494D01*
X299420Y309821D01*
X299454Y309860D01*
X299746Y310152D01*
X299785Y310186D01*
X300113Y310437D01*
X300127Y310447D01*
X300155Y310466D01*
X300513Y310672D01*
X300536Y310684D01*
X300559Y310695D01*
X300941Y310853D01*
X300955Y310858D01*
X300990Y310870D01*
X301388Y310977D01*
X301429Y310985D01*
X301439Y310987D01*
X301848Y311041D01*
X301900Y311044D01*
X301900D01*
D01*
X311555D01*
X311607Y311041D01*
D02*
G37*
G36*
Y301041D02*
X311657Y301031D01*
X311706Y301014D01*
X311752Y300991D01*
X311795Y300963D01*
X311834Y300929D01*
X311868Y300890D01*
X311897Y300847D01*
X311920Y300801D01*
X311936Y300752D01*
X311946Y300701D01*
X311950Y300650D01*
Y294350D01*
X311946Y294299D01*
X311936Y294248D01*
X311920Y294199D01*
X311897Y294153D01*
X311868Y294110D01*
X311834Y294071D01*
X311795Y294037D01*
X311752Y294009D01*
X311706Y293986D01*
X311657Y293969D01*
X311607Y293959D01*
X311555Y293956D01*
X300093D01*
X300079Y293957D01*
X300067D01*
X300054Y293958D01*
X300041Y293959D01*
X300028Y293962D01*
X300015Y293963D01*
X299772Y294012D01*
X299760Y294015D01*
X299747Y294018D01*
X299735Y294022D01*
X299722Y294025D01*
X299710Y294030D01*
X299698Y294034D01*
X299469Y294129D01*
X299457Y294135D01*
X299445Y294140D01*
X299434Y294146D01*
X299423Y294152D01*
X299412Y294159D01*
X299401Y294166D01*
X299194Y294304D01*
X299184Y294311D01*
X299173Y294319D01*
X299164Y294327D01*
X299153Y294335D01*
X299144Y294344D01*
X299134Y294353D01*
X298959Y294528D01*
X298950Y294538D01*
X298941Y294547D01*
X298934Y294557D01*
X298925Y294567D01*
X298918Y294578D01*
X298910Y294588D01*
X298772Y294794D01*
X298765Y294806D01*
X298758Y294816D01*
X298753Y294828D01*
X298746Y294839D01*
X298741Y294851D01*
X298736Y294863D01*
X298641Y295092D01*
X298636Y295104D01*
X298632Y295116D01*
X298628Y295128D01*
X298624Y295141D01*
X298622Y295153D01*
X298618Y295166D01*
X298570Y295409D01*
X298568Y295422D01*
X298566Y295435D01*
X298565Y295447D01*
X298563Y295460D01*
Y295473D01*
X298562Y295486D01*
Y295610D01*
Y299390D01*
Y299514D01*
X298563Y299527D01*
Y299540D01*
X298565Y299552D01*
X298566Y299565D01*
X298568Y299578D01*
X298570Y299591D01*
X298618Y299834D01*
X298622Y299847D01*
X298624Y299859D01*
X298628Y299872D01*
X298632Y299884D01*
X298636Y299896D01*
X298641Y299908D01*
X298736Y300137D01*
X298741Y300149D01*
X298746Y300161D01*
X298753Y300172D01*
X298758Y300184D01*
X298765Y300195D01*
X298772Y300206D01*
X298910Y300412D01*
X298918Y300422D01*
X298925Y300433D01*
X298933Y300443D01*
X298941Y300453D01*
X298950Y300462D01*
X298959Y300472D01*
X299134Y300647D01*
X299144Y300656D01*
X299153Y300665D01*
X299164Y300673D01*
X299173Y300681D01*
X299184Y300689D01*
X299194Y300696D01*
X299401Y300834D01*
X299412Y300841D01*
X299423Y300848D01*
X299434Y300854D01*
X299445Y300860D01*
X299457Y300865D01*
X299469Y300871D01*
X299698Y300966D01*
X299710Y300970D01*
X299722Y300975D01*
X299735Y300978D01*
X299747Y300982D01*
X299760Y300985D01*
X299772Y300988D01*
X300015Y301037D01*
X300028Y301038D01*
X300041Y301041D01*
X300054Y301042D01*
X300067Y301043D01*
X300079D01*
X300093Y301044D01*
X311555D01*
X311607Y301041D01*
D02*
G37*
G36*
Y291041D02*
X311657Y291031D01*
X311706Y291014D01*
X311752Y290991D01*
X311795Y290963D01*
X311834Y290929D01*
X311868Y290890D01*
X311897Y290847D01*
X311920Y290801D01*
X311936Y290752D01*
X311946Y290701D01*
X311950Y290650D01*
Y284350D01*
X311946Y284299D01*
X311936Y284248D01*
X311920Y284199D01*
X311897Y284153D01*
X311868Y284110D01*
X311834Y284071D01*
X311795Y284037D01*
X311752Y284009D01*
X311706Y283986D01*
X311657Y283969D01*
X311607Y283959D01*
X311555Y283956D01*
X302106D01*
X302106D01*
X302106D01*
X301900Y283956D01*
X301848Y283959D01*
X301848Y283959D01*
X301439Y284013D01*
X301429Y284015D01*
X301388Y284023D01*
X300990Y284130D01*
X300965Y284138D01*
X300941Y284147D01*
X300559Y284305D01*
X300513Y284328D01*
X300155Y284534D01*
X300113Y284563D01*
X299785Y284814D01*
X299746Y284848D01*
X299454Y285140D01*
X299420Y285179D01*
X299169Y285506D01*
X299159Y285521D01*
X299140Y285549D01*
X298934Y285907D01*
X298922Y285929D01*
X298911Y285953D01*
X298753Y286334D01*
X298748Y286348D01*
X298736Y286383D01*
X298629Y286782D01*
X298621Y286823D01*
X298619Y286833D01*
X298566Y287242D01*
X298562Y287294D01*
Y287294D01*
D01*
Y287500D01*
Y287706D01*
D01*
Y287706D01*
X298566Y287758D01*
X298619Y288167D01*
X298623Y288184D01*
X298629Y288218D01*
X298736Y288617D01*
X298745Y288641D01*
X298753Y288666D01*
X298911Y289047D01*
X298934Y289093D01*
X299140Y289451D01*
X299169Y289494D01*
X299420Y289821D01*
X299454Y289860D01*
X299746Y290152D01*
X299785Y290186D01*
X300113Y290437D01*
X300127Y290447D01*
X300155Y290466D01*
X300513Y290672D01*
X300536Y290684D01*
X300559Y290695D01*
X300941Y290853D01*
X300955Y290858D01*
X300990Y290870D01*
X301388Y290977D01*
X301429Y290985D01*
X301439Y290987D01*
X301848Y291041D01*
X301900Y291044D01*
X301900D01*
D01*
X311555D01*
X311607Y291041D01*
D02*
G37*
G36*
X303514Y266001D02*
X303923Y265948D01*
X303940Y265944D01*
X303974Y265937D01*
X304373Y265831D01*
X304397Y265822D01*
X304421Y265814D01*
X304803Y265656D01*
X304849Y265633D01*
X305207Y265427D01*
X305250Y265398D01*
X305577Y265147D01*
X305616Y265113D01*
X305908Y264821D01*
X305942Y264782D01*
X306193Y264454D01*
X306203Y264440D01*
X306222Y264411D01*
X306429Y264054D01*
X306440Y264031D01*
X306451Y264008D01*
X306609Y263626D01*
X306614Y263612D01*
X306626Y263577D01*
X306733Y263178D01*
X306741Y263138D01*
X306743Y263128D01*
X306797Y262719D01*
X306800Y262667D01*
Y262667D01*
D01*
Y262461D01*
Y253012D01*
X306797Y252960D01*
X306787Y252910D01*
X306770Y252861D01*
X306747Y252815D01*
X306718Y252772D01*
X306684Y252733D01*
X306646Y252699D01*
X306603Y252670D01*
X306557Y252647D01*
X306508Y252631D01*
X306457Y252621D01*
X306405Y252617D01*
X300106D01*
X300055Y252621D01*
X300004Y252631D01*
X299955Y252647D01*
X299909Y252670D01*
X299866Y252699D01*
X299827Y252733D01*
X299793Y252772D01*
X299765Y252815D01*
X299742Y252861D01*
X299725Y252910D01*
X299715Y252960D01*
X299712Y253012D01*
Y262461D01*
Y262461D01*
Y262461D01*
X299712Y262667D01*
X299715Y262719D01*
X299715Y262719D01*
X299769Y263128D01*
X299771Y263138D01*
X299779Y263178D01*
X299886Y263577D01*
X299894Y263602D01*
X299903Y263626D01*
X300061Y264008D01*
X300083Y264054D01*
X300290Y264411D01*
X300319Y264454D01*
X300570Y264782D01*
X300604Y264821D01*
X300896Y265113D01*
X300935Y265147D01*
X301262Y265398D01*
X301276Y265408D01*
X301305Y265427D01*
X301663Y265633D01*
X301685Y265644D01*
X301709Y265656D01*
X302090Y265814D01*
X302104Y265819D01*
X302139Y265831D01*
X302538Y265937D01*
X302579Y265946D01*
X302589Y265948D01*
X302998Y266001D01*
X303049Y266005D01*
X303049D01*
D01*
X303462D01*
D01*
X303462D01*
X303514Y266001D01*
D02*
G37*
G36*
X293514D02*
X293923Y265948D01*
X293940Y265944D01*
X293974Y265937D01*
X294373Y265831D01*
X294397Y265822D01*
X294422Y265814D01*
X294803Y265656D01*
X294849Y265633D01*
X295207Y265427D01*
X295250Y265398D01*
X295577Y265147D01*
X295616Y265113D01*
X295908Y264821D01*
X295942Y264782D01*
X296193Y264454D01*
X296203Y264440D01*
X296222Y264411D01*
X296428Y264054D01*
X296440Y264031D01*
X296451Y264008D01*
X296609Y263626D01*
X296614Y263612D01*
X296626Y263577D01*
X296733Y263178D01*
X296741Y263138D01*
X296743Y263128D01*
X296797Y262719D01*
X296800Y262667D01*
Y262667D01*
D01*
Y262461D01*
Y253012D01*
X296797Y252960D01*
X296787Y252910D01*
X296770Y252861D01*
X296747Y252815D01*
X296719Y252772D01*
X296685Y252733D01*
X296646Y252699D01*
X296603Y252670D01*
X296556Y252647D01*
X296508Y252631D01*
X296457Y252621D01*
X296406Y252617D01*
X290106D01*
X290055Y252621D01*
X290004Y252631D01*
X289955Y252647D01*
X289909Y252670D01*
X289866Y252699D01*
X289827Y252733D01*
X289793Y252772D01*
X289765Y252815D01*
X289742Y252861D01*
X289725Y252910D01*
X289715Y252960D01*
X289712Y253012D01*
Y262461D01*
Y262461D01*
Y262461D01*
X289712Y262667D01*
X289715Y262719D01*
X289715Y262719D01*
X289769Y263128D01*
X289771Y263138D01*
X289779Y263178D01*
X289886Y263577D01*
X289894Y263602D01*
X289903Y263626D01*
X290060Y264008D01*
X290083Y264054D01*
X290290Y264411D01*
X290318Y264454D01*
X290570Y264782D01*
X290604Y264821D01*
X290896Y265113D01*
X290935Y265147D01*
X291262Y265398D01*
X291276Y265408D01*
X291305Y265427D01*
X291663Y265633D01*
X291685Y265644D01*
X291709Y265656D01*
X292090Y265814D01*
X292104Y265819D01*
X292139Y265831D01*
X292538Y265937D01*
X292579Y265946D01*
X292589Y265948D01*
X292998Y266001D01*
X293050Y266005D01*
X293050D01*
D01*
X293462D01*
D01*
X293462D01*
X293514Y266001D01*
D02*
G37*
G36*
X273514D02*
X273923Y265948D01*
X273940Y265944D01*
X273974Y265937D01*
X274373Y265831D01*
X274397Y265822D01*
X274422Y265814D01*
X274803Y265656D01*
X274849Y265633D01*
X275207Y265427D01*
X275250Y265398D01*
X275577Y265147D01*
X275616Y265113D01*
X275908Y264821D01*
X275942Y264782D01*
X276193Y264454D01*
X276203Y264440D01*
X276222Y264411D01*
X276429Y264054D01*
X276440Y264031D01*
X276451Y264008D01*
X276609Y263626D01*
X276614Y263612D01*
X276626Y263577D01*
X276733Y263178D01*
X276741Y263138D01*
X276743Y263128D01*
X276797Y262719D01*
X276800Y262667D01*
Y262667D01*
D01*
Y262461D01*
Y253012D01*
X276797Y252960D01*
X276787Y252910D01*
X276770Y252861D01*
X276747Y252815D01*
X276718Y252772D01*
X276684Y252733D01*
X276646Y252699D01*
X276603Y252670D01*
X276556Y252647D01*
X276508Y252631D01*
X276457Y252621D01*
X276406Y252617D01*
X270106D01*
X270055Y252621D01*
X270004Y252631D01*
X269955Y252647D01*
X269909Y252670D01*
X269866Y252699D01*
X269827Y252733D01*
X269793Y252772D01*
X269765Y252815D01*
X269742Y252861D01*
X269725Y252910D01*
X269715Y252960D01*
X269712Y253012D01*
Y262461D01*
Y262461D01*
Y262461D01*
X269712Y262667D01*
X269715Y262719D01*
X269715Y262719D01*
X269769Y263128D01*
X269771Y263138D01*
X269779Y263178D01*
X269886Y263577D01*
X269894Y263602D01*
X269903Y263626D01*
X270060Y264008D01*
X270083Y264054D01*
X270290Y264411D01*
X270319Y264454D01*
X270570Y264782D01*
X270604Y264821D01*
X270896Y265113D01*
X270935Y265147D01*
X271262Y265398D01*
X271276Y265408D01*
X271305Y265427D01*
X271663Y265633D01*
X271685Y265644D01*
X271709Y265656D01*
X272090Y265814D01*
X272104Y265819D01*
X272139Y265831D01*
X272538Y265937D01*
X272579Y265946D01*
X272589Y265948D01*
X272998Y266001D01*
X273049Y266005D01*
X273049D01*
D01*
X273462D01*
D01*
X273462D01*
X273514Y266001D01*
D02*
G37*
G36*
X263514D02*
X263923Y265948D01*
X263940Y265944D01*
X263974Y265937D01*
X264373Y265831D01*
X264397Y265822D01*
X264422Y265814D01*
X264803Y265656D01*
X264849Y265633D01*
X265207Y265427D01*
X265250Y265398D01*
X265577Y265147D01*
X265616Y265113D01*
X265908Y264821D01*
X265942Y264782D01*
X266193Y264454D01*
X266203Y264440D01*
X266222Y264411D01*
X266428Y264054D01*
X266440Y264031D01*
X266451Y264008D01*
X266609Y263626D01*
X266614Y263612D01*
X266626Y263577D01*
X266733Y263178D01*
X266741Y263138D01*
X266743Y263128D01*
X266797Y262719D01*
X266800Y262667D01*
Y262667D01*
D01*
Y262461D01*
Y253012D01*
X266797Y252960D01*
X266787Y252910D01*
X266770Y252861D01*
X266747Y252815D01*
X266719Y252772D01*
X266685Y252733D01*
X266646Y252699D01*
X266603Y252670D01*
X266557Y252647D01*
X266508Y252631D01*
X266457Y252621D01*
X266406Y252617D01*
X260106D01*
X260055Y252621D01*
X260004Y252631D01*
X259955Y252647D01*
X259909Y252670D01*
X259866Y252699D01*
X259827Y252733D01*
X259793Y252772D01*
X259765Y252815D01*
X259742Y252861D01*
X259725Y252910D01*
X259715Y252960D01*
X259712Y253012D01*
Y262461D01*
Y262461D01*
Y262461D01*
X259712Y262667D01*
X259715Y262719D01*
X259715Y262719D01*
X259769Y263128D01*
X259771Y263138D01*
X259779Y263178D01*
X259886Y263577D01*
X259894Y263602D01*
X259903Y263626D01*
X260061Y264008D01*
X260083Y264054D01*
X260290Y264411D01*
X260318Y264454D01*
X260570Y264782D01*
X260604Y264821D01*
X260896Y265113D01*
X260935Y265147D01*
X261262Y265398D01*
X261276Y265408D01*
X261305Y265427D01*
X261663Y265633D01*
X261685Y265644D01*
X261709Y265656D01*
X262090Y265814D01*
X262104Y265819D01*
X262139Y265831D01*
X262538Y265937D01*
X262579Y265946D01*
X262589Y265948D01*
X262998Y266001D01*
X263050Y266005D01*
X263050D01*
D01*
X263462D01*
D01*
X263462D01*
X263514Y266001D01*
D02*
G37*
G36*
X253514D02*
X253923Y265948D01*
X253940Y265944D01*
X253974Y265937D01*
X254373Y265831D01*
X254397Y265822D01*
X254421Y265814D01*
X254803Y265656D01*
X254849Y265633D01*
X255207Y265427D01*
X255250Y265398D01*
X255577Y265147D01*
X255616Y265113D01*
X255908Y264821D01*
X255942Y264782D01*
X256193Y264454D01*
X256203Y264440D01*
X256222Y264411D01*
X256429Y264054D01*
X256440Y264031D01*
X256451Y264008D01*
X256609Y263626D01*
X256614Y263612D01*
X256626Y263577D01*
X256733Y263178D01*
X256741Y263138D01*
X256743Y263128D01*
X256797Y262719D01*
X256800Y262667D01*
Y262667D01*
D01*
Y262461D01*
Y253012D01*
X256797Y252960D01*
X256787Y252910D01*
X256770Y252861D01*
X256747Y252815D01*
X256718Y252772D01*
X256684Y252733D01*
X256646Y252699D01*
X256603Y252670D01*
X256557Y252647D01*
X256508Y252631D01*
X256457Y252621D01*
X256405Y252617D01*
X250106D01*
X250055Y252621D01*
X250004Y252631D01*
X249955Y252647D01*
X249909Y252670D01*
X249866Y252699D01*
X249827Y252733D01*
X249793Y252772D01*
X249765Y252815D01*
X249742Y252861D01*
X249725Y252910D01*
X249715Y252960D01*
X249712Y253012D01*
Y262461D01*
Y262461D01*
Y262461D01*
X249712Y262667D01*
X249715Y262719D01*
X249715Y262719D01*
X249769Y263128D01*
X249771Y263138D01*
X249779Y263178D01*
X249886Y263577D01*
X249894Y263602D01*
X249903Y263626D01*
X250061Y264008D01*
X250083Y264054D01*
X250290Y264411D01*
X250319Y264454D01*
X250570Y264782D01*
X250604Y264821D01*
X250896Y265113D01*
X250935Y265147D01*
X251262Y265398D01*
X251276Y265408D01*
X251305Y265427D01*
X251663Y265633D01*
X251685Y265644D01*
X251709Y265656D01*
X252090Y265814D01*
X252104Y265819D01*
X252139Y265831D01*
X252538Y265937D01*
X252579Y265946D01*
X252589Y265948D01*
X252998Y266001D01*
X253049Y266005D01*
X253049D01*
D01*
X253462D01*
D01*
X253462D01*
X253514Y266001D01*
D02*
G37*
G36*
X243514D02*
X243923Y265948D01*
X243940Y265944D01*
X243974Y265937D01*
X244373Y265831D01*
X244397Y265822D01*
X244422Y265814D01*
X244803Y265656D01*
X244849Y265633D01*
X245207Y265427D01*
X245250Y265398D01*
X245577Y265147D01*
X245616Y265113D01*
X245908Y264821D01*
X245942Y264782D01*
X246193Y264454D01*
X246203Y264440D01*
X246222Y264411D01*
X246428Y264054D01*
X246440Y264031D01*
X246451Y264008D01*
X246609Y263626D01*
X246614Y263612D01*
X246626Y263577D01*
X246733Y263178D01*
X246741Y263138D01*
X246743Y263128D01*
X246797Y262719D01*
X246800Y262667D01*
Y262667D01*
D01*
Y262461D01*
Y253012D01*
X246797Y252960D01*
X246787Y252910D01*
X246770Y252861D01*
X246747Y252815D01*
X246719Y252772D01*
X246685Y252733D01*
X246646Y252699D01*
X246603Y252670D01*
X246556Y252647D01*
X246508Y252631D01*
X246457Y252621D01*
X246406Y252617D01*
X240106D01*
X240055Y252621D01*
X240004Y252631D01*
X239955Y252647D01*
X239909Y252670D01*
X239866Y252699D01*
X239827Y252733D01*
X239793Y252772D01*
X239765Y252815D01*
X239742Y252861D01*
X239725Y252910D01*
X239715Y252960D01*
X239712Y253012D01*
Y262461D01*
Y262461D01*
Y262461D01*
X239712Y262667D01*
X239715Y262719D01*
X239715Y262719D01*
X239769Y263128D01*
X239771Y263138D01*
X239779Y263178D01*
X239886Y263577D01*
X239894Y263602D01*
X239903Y263626D01*
X240060Y264008D01*
X240083Y264054D01*
X240290Y264411D01*
X240318Y264454D01*
X240570Y264782D01*
X240604Y264821D01*
X240896Y265113D01*
X240935Y265147D01*
X241262Y265398D01*
X241276Y265408D01*
X241305Y265427D01*
X241663Y265633D01*
X241685Y265644D01*
X241709Y265656D01*
X242090Y265814D01*
X242104Y265819D01*
X242139Y265831D01*
X242538Y265937D01*
X242579Y265946D01*
X242589Y265948D01*
X242998Y266001D01*
X243050Y266005D01*
X243050D01*
D01*
X243462D01*
D01*
X243462D01*
X243514Y266001D01*
D02*
G37*
G36*
X223514D02*
X223923Y265948D01*
X223940Y265944D01*
X223974Y265937D01*
X224373Y265831D01*
X224397Y265822D01*
X224422Y265814D01*
X224803Y265656D01*
X224849Y265633D01*
X225207Y265427D01*
X225250Y265398D01*
X225577Y265147D01*
X225616Y265113D01*
X225908Y264821D01*
X225942Y264782D01*
X226193Y264454D01*
X226203Y264440D01*
X226222Y264411D01*
X226429Y264054D01*
X226440Y264031D01*
X226451Y264008D01*
X226609Y263626D01*
X226614Y263612D01*
X226626Y263577D01*
X226733Y263178D01*
X226741Y263138D01*
X226743Y263128D01*
X226797Y262719D01*
X226800Y262667D01*
Y262667D01*
D01*
Y262461D01*
Y253012D01*
X226797Y252960D01*
X226787Y252910D01*
X226770Y252861D01*
X226747Y252815D01*
X226718Y252772D01*
X226684Y252733D01*
X226646Y252699D01*
X226603Y252670D01*
X226556Y252647D01*
X226508Y252631D01*
X226457Y252621D01*
X226406Y252617D01*
X220106D01*
X220055Y252621D01*
X220004Y252631D01*
X219955Y252647D01*
X219909Y252670D01*
X219866Y252699D01*
X219827Y252733D01*
X219793Y252772D01*
X219765Y252815D01*
X219742Y252861D01*
X219725Y252910D01*
X219715Y252960D01*
X219712Y253012D01*
Y262461D01*
Y262461D01*
Y262461D01*
X219712Y262667D01*
X219715Y262719D01*
X219715Y262719D01*
X219769Y263128D01*
X219771Y263138D01*
X219779Y263178D01*
X219886Y263577D01*
X219894Y263602D01*
X219903Y263626D01*
X220060Y264008D01*
X220083Y264054D01*
X220290Y264411D01*
X220319Y264454D01*
X220570Y264782D01*
X220604Y264821D01*
X220896Y265113D01*
X220935Y265147D01*
X221262Y265398D01*
X221276Y265408D01*
X221305Y265427D01*
X221663Y265633D01*
X221685Y265644D01*
X221709Y265656D01*
X222090Y265814D01*
X222104Y265819D01*
X222139Y265831D01*
X222538Y265937D01*
X222579Y265946D01*
X222589Y265948D01*
X222998Y266001D01*
X223049Y266005D01*
X223049D01*
D01*
X223462D01*
D01*
X223462D01*
X223514Y266001D01*
D02*
G37*
G36*
X213514D02*
X213923Y265948D01*
X213940Y265944D01*
X213974Y265937D01*
X214373Y265831D01*
X214397Y265822D01*
X214422Y265814D01*
X214803Y265656D01*
X214849Y265633D01*
X215207Y265427D01*
X215250Y265398D01*
X215577Y265147D01*
X215616Y265113D01*
X215908Y264821D01*
X215942Y264782D01*
X216193Y264454D01*
X216203Y264440D01*
X216222Y264411D01*
X216428Y264054D01*
X216440Y264031D01*
X216451Y264008D01*
X216609Y263626D01*
X216614Y263612D01*
X216626Y263577D01*
X216733Y263178D01*
X216741Y263138D01*
X216743Y263128D01*
X216797Y262719D01*
X216800Y262667D01*
Y262667D01*
D01*
Y262461D01*
Y253012D01*
X216797Y252960D01*
X216787Y252910D01*
X216770Y252861D01*
X216747Y252815D01*
X216719Y252772D01*
X216685Y252733D01*
X216646Y252699D01*
X216603Y252670D01*
X216557Y252647D01*
X216508Y252631D01*
X216457Y252621D01*
X216406Y252617D01*
X210106D01*
X210055Y252621D01*
X210004Y252631D01*
X209955Y252647D01*
X209909Y252670D01*
X209866Y252699D01*
X209827Y252733D01*
X209793Y252772D01*
X209765Y252815D01*
X209742Y252861D01*
X209725Y252910D01*
X209715Y252960D01*
X209712Y253012D01*
Y262461D01*
Y262461D01*
Y262461D01*
X209712Y262667D01*
X209715Y262719D01*
X209715Y262719D01*
X209769Y263128D01*
X209771Y263138D01*
X209779Y263178D01*
X209886Y263577D01*
X209894Y263602D01*
X209903Y263626D01*
X210061Y264008D01*
X210083Y264054D01*
X210290Y264411D01*
X210318Y264454D01*
X210570Y264782D01*
X210604Y264821D01*
X210896Y265113D01*
X210935Y265147D01*
X211262Y265398D01*
X211276Y265408D01*
X211305Y265427D01*
X211663Y265633D01*
X211685Y265644D01*
X211709Y265656D01*
X212090Y265814D01*
X212104Y265819D01*
X212139Y265831D01*
X212538Y265937D01*
X212579Y265946D01*
X212589Y265948D01*
X212998Y266001D01*
X213050Y266005D01*
X213050D01*
D01*
X213462D01*
D01*
X213462D01*
X213514Y266001D01*
D02*
G37*
G36*
X203514D02*
X203923Y265948D01*
X203940Y265944D01*
X203974Y265937D01*
X204373Y265831D01*
X204397Y265822D01*
X204421Y265814D01*
X204803Y265656D01*
X204849Y265633D01*
X205207Y265427D01*
X205250Y265398D01*
X205577Y265147D01*
X205616Y265113D01*
X205908Y264821D01*
X205942Y264782D01*
X206193Y264454D01*
X206203Y264440D01*
X206222Y264411D01*
X206429Y264054D01*
X206440Y264031D01*
X206451Y264008D01*
X206609Y263626D01*
X206614Y263612D01*
X206626Y263577D01*
X206733Y263178D01*
X206741Y263138D01*
X206743Y263128D01*
X206797Y262719D01*
X206800Y262667D01*
Y262667D01*
D01*
Y262461D01*
Y253012D01*
X206797Y252960D01*
X206787Y252910D01*
X206770Y252861D01*
X206747Y252815D01*
X206718Y252772D01*
X206684Y252733D01*
X206646Y252699D01*
X206603Y252670D01*
X206557Y252647D01*
X206508Y252631D01*
X206457Y252621D01*
X206405Y252617D01*
X200106D01*
X200055Y252621D01*
X200004Y252631D01*
X199955Y252647D01*
X199909Y252670D01*
X199866Y252699D01*
X199827Y252733D01*
X199793Y252772D01*
X199765Y252815D01*
X199742Y252861D01*
X199725Y252910D01*
X199715Y252960D01*
X199712Y253012D01*
Y262461D01*
Y262461D01*
Y262461D01*
X199712Y262667D01*
X199715Y262719D01*
X199715Y262719D01*
X199769Y263128D01*
X199771Y263138D01*
X199779Y263178D01*
X199886Y263577D01*
X199894Y263602D01*
X199902Y263626D01*
X200061Y264008D01*
X200083Y264054D01*
X200290Y264411D01*
X200319Y264454D01*
X200570Y264782D01*
X200604Y264821D01*
X200896Y265113D01*
X200935Y265147D01*
X201262Y265398D01*
X201276Y265408D01*
X201305Y265427D01*
X201663Y265633D01*
X201685Y265644D01*
X201709Y265656D01*
X202090Y265814D01*
X202104Y265819D01*
X202139Y265831D01*
X202538Y265937D01*
X202579Y265946D01*
X202589Y265948D01*
X202998Y266001D01*
X203049Y266005D01*
X203049D01*
D01*
X203462D01*
D01*
X203462D01*
X203514Y266001D01*
D02*
G37*
G36*
X193514D02*
X193923Y265948D01*
X193940Y265944D01*
X193974Y265937D01*
X194373Y265831D01*
X194397Y265822D01*
X194422Y265814D01*
X194803Y265656D01*
X194849Y265633D01*
X195207Y265427D01*
X195250Y265398D01*
X195577Y265147D01*
X195616Y265113D01*
X195908Y264821D01*
X195942Y264782D01*
X196193Y264454D01*
X196203Y264440D01*
X196222Y264411D01*
X196428Y264054D01*
X196440Y264031D01*
X196451Y264008D01*
X196609Y263626D01*
X196614Y263612D01*
X196626Y263577D01*
X196733Y263178D01*
X196741Y263138D01*
X196743Y263128D01*
X196797Y262719D01*
X196800Y262667D01*
Y262667D01*
D01*
Y262461D01*
Y253012D01*
X196797Y252960D01*
X196787Y252910D01*
X196770Y252861D01*
X196747Y252815D01*
X196719Y252772D01*
X196685Y252733D01*
X196646Y252699D01*
X196603Y252670D01*
X196556Y252647D01*
X196508Y252631D01*
X196457Y252621D01*
X196405Y252617D01*
X190106D01*
X190055Y252621D01*
X190004Y252631D01*
X189955Y252647D01*
X189909Y252670D01*
X189866Y252699D01*
X189827Y252733D01*
X189793Y252772D01*
X189765Y252815D01*
X189742Y252861D01*
X189725Y252910D01*
X189715Y252960D01*
X189712Y253012D01*
Y262461D01*
Y262461D01*
Y262461D01*
X189712Y262667D01*
X189715Y262719D01*
X189715Y262719D01*
X189769Y263128D01*
X189771Y263138D01*
X189779Y263178D01*
X189886Y263577D01*
X189894Y263602D01*
X189902Y263626D01*
X190060Y264008D01*
X190083Y264054D01*
X190290Y264411D01*
X190319Y264454D01*
X190570Y264782D01*
X190604Y264821D01*
X190896Y265113D01*
X190935Y265147D01*
X191262Y265398D01*
X191276Y265408D01*
X191305Y265427D01*
X191663Y265633D01*
X191685Y265644D01*
X191709Y265656D01*
X192090Y265814D01*
X192104Y265819D01*
X192139Y265831D01*
X192538Y265937D01*
X192579Y265946D01*
X192589Y265948D01*
X192998Y266001D01*
X193050Y266005D01*
X193050D01*
D01*
X193462D01*
D01*
X193462D01*
X193514Y266001D01*
D02*
G37*
G36*
X173514D02*
X173923Y265948D01*
X173940Y265944D01*
X173974Y265937D01*
X174373Y265831D01*
X174397Y265822D01*
X174422Y265814D01*
X174803Y265656D01*
X174849Y265633D01*
X175207Y265427D01*
X175250Y265398D01*
X175577Y265147D01*
X175616Y265113D01*
X175908Y264821D01*
X175942Y264782D01*
X176193Y264454D01*
X176203Y264440D01*
X176222Y264411D01*
X176428Y264054D01*
X176440Y264031D01*
X176451Y264008D01*
X176609Y263626D01*
X176614Y263612D01*
X176626Y263577D01*
X176733Y263178D01*
X176741Y263138D01*
X176743Y263128D01*
X176797Y262719D01*
X176800Y262667D01*
Y262667D01*
D01*
Y262461D01*
Y253012D01*
X176797Y252960D01*
X176787Y252910D01*
X176770Y252861D01*
X176747Y252815D01*
X176718Y252772D01*
X176684Y252733D01*
X176646Y252699D01*
X176603Y252670D01*
X176557Y252647D01*
X176508Y252631D01*
X176457Y252621D01*
X176406Y252617D01*
X170106D01*
X170055Y252621D01*
X170004Y252631D01*
X169955Y252647D01*
X169909Y252670D01*
X169866Y252699D01*
X169827Y252733D01*
X169793Y252772D01*
X169765Y252815D01*
X169742Y252861D01*
X169725Y252910D01*
X169715Y252960D01*
X169712Y253012D01*
Y262461D01*
Y262461D01*
Y262461D01*
X169712Y262667D01*
X169715Y262719D01*
X169715Y262719D01*
X169769Y263128D01*
X169771Y263138D01*
X169779Y263178D01*
X169886Y263577D01*
X169894Y263602D01*
X169903Y263626D01*
X170061Y264008D01*
X170083Y264054D01*
X170290Y264411D01*
X170318Y264454D01*
X170570Y264782D01*
X170604Y264821D01*
X170896Y265113D01*
X170935Y265147D01*
X171262Y265398D01*
X171276Y265408D01*
X171305Y265427D01*
X171663Y265633D01*
X171685Y265644D01*
X171709Y265656D01*
X172090Y265814D01*
X172104Y265819D01*
X172139Y265831D01*
X172538Y265937D01*
X172579Y265946D01*
X172589Y265948D01*
X172998Y266001D01*
X173049Y266005D01*
X173049D01*
D01*
X173462D01*
D01*
X173462D01*
X173514Y266001D01*
D02*
G37*
G36*
X163514D02*
X163923Y265948D01*
X163940Y265944D01*
X163974Y265937D01*
X164373Y265831D01*
X164397Y265822D01*
X164421Y265814D01*
X164803Y265656D01*
X164849Y265633D01*
X165207Y265427D01*
X165250Y265398D01*
X165577Y265147D01*
X165616Y265113D01*
X165908Y264821D01*
X165942Y264782D01*
X166193Y264454D01*
X166203Y264440D01*
X166222Y264411D01*
X166428Y264054D01*
X166440Y264031D01*
X166451Y264008D01*
X166609Y263626D01*
X166614Y263612D01*
X166626Y263577D01*
X166733Y263178D01*
X166741Y263138D01*
X166743Y263128D01*
X166797Y262719D01*
X166800Y262667D01*
Y262667D01*
D01*
Y262461D01*
Y253012D01*
X166797Y252960D01*
X166787Y252910D01*
X166770Y252861D01*
X166747Y252815D01*
X166718Y252772D01*
X166684Y252733D01*
X166646Y252699D01*
X166603Y252670D01*
X166557Y252647D01*
X166508Y252631D01*
X166457Y252621D01*
X166405Y252617D01*
X160106D01*
X160055Y252621D01*
X160004Y252631D01*
X159955Y252647D01*
X159909Y252670D01*
X159866Y252699D01*
X159827Y252733D01*
X159793Y252772D01*
X159765Y252815D01*
X159742Y252861D01*
X159725Y252910D01*
X159715Y252960D01*
X159712Y253012D01*
Y262461D01*
Y262461D01*
Y262461D01*
X159712Y262667D01*
X159715Y262719D01*
X159715Y262719D01*
X159769Y263128D01*
X159771Y263138D01*
X159779Y263178D01*
X159886Y263577D01*
X159894Y263602D01*
X159903Y263626D01*
X160061Y264008D01*
X160083Y264054D01*
X160290Y264411D01*
X160319Y264454D01*
X160570Y264782D01*
X160604Y264821D01*
X160896Y265113D01*
X160935Y265147D01*
X161262Y265398D01*
X161276Y265408D01*
X161305Y265427D01*
X161663Y265633D01*
X161685Y265644D01*
X161709Y265656D01*
X162090Y265814D01*
X162104Y265819D01*
X162139Y265831D01*
X162538Y265937D01*
X162579Y265946D01*
X162589Y265948D01*
X162998Y266001D01*
X163049Y266005D01*
X163049D01*
D01*
X163462D01*
D01*
X163462D01*
X163514Y266001D01*
D02*
G37*
G36*
X153514D02*
X153923Y265948D01*
X153940Y265944D01*
X153974Y265937D01*
X154373Y265831D01*
X154397Y265822D01*
X154421Y265814D01*
X154803Y265656D01*
X154849Y265633D01*
X155207Y265427D01*
X155250Y265398D01*
X155577Y265147D01*
X155616Y265113D01*
X155908Y264821D01*
X155942Y264782D01*
X156193Y264454D01*
X156203Y264440D01*
X156222Y264411D01*
X156428Y264054D01*
X156440Y264031D01*
X156451Y264008D01*
X156609Y263626D01*
X156614Y263612D01*
X156626Y263577D01*
X156733Y263178D01*
X156741Y263138D01*
X156743Y263128D01*
X156797Y262719D01*
X156800Y262667D01*
Y262667D01*
D01*
Y262461D01*
Y253012D01*
X156797Y252960D01*
X156787Y252910D01*
X156770Y252861D01*
X156747Y252815D01*
X156719Y252772D01*
X156685Y252733D01*
X156646Y252699D01*
X156603Y252670D01*
X156556Y252647D01*
X156508Y252631D01*
X156457Y252621D01*
X156405Y252617D01*
X150106D01*
X150055Y252621D01*
X150004Y252631D01*
X149955Y252647D01*
X149909Y252670D01*
X149866Y252699D01*
X149827Y252733D01*
X149793Y252772D01*
X149765Y252815D01*
X149742Y252861D01*
X149725Y252910D01*
X149715Y252960D01*
X149712Y253012D01*
Y262461D01*
Y262461D01*
Y262461D01*
X149712Y262667D01*
X149715Y262719D01*
X149715Y262719D01*
X149769Y263128D01*
X149771Y263138D01*
X149779Y263178D01*
X149886Y263577D01*
X149894Y263602D01*
X149902Y263626D01*
X150060Y264008D01*
X150083Y264054D01*
X150290Y264411D01*
X150319Y264454D01*
X150570Y264782D01*
X150604Y264821D01*
X150896Y265113D01*
X150935Y265147D01*
X151262Y265398D01*
X151276Y265408D01*
X151305Y265427D01*
X151663Y265633D01*
X151685Y265644D01*
X151709Y265656D01*
X152090Y265814D01*
X152104Y265819D01*
X152139Y265831D01*
X152538Y265937D01*
X152579Y265946D01*
X152589Y265948D01*
X152998Y266001D01*
X153050Y266005D01*
X153050D01*
D01*
X153462D01*
D01*
X153462D01*
X153514Y266001D01*
D02*
G37*
G36*
X143514D02*
X143923Y265948D01*
X143940Y265944D01*
X143974Y265937D01*
X144373Y265831D01*
X144397Y265822D01*
X144422Y265814D01*
X144803Y265656D01*
X144849Y265633D01*
X145207Y265427D01*
X145250Y265398D01*
X145577Y265147D01*
X145616Y265113D01*
X145908Y264821D01*
X145942Y264782D01*
X146193Y264454D01*
X146203Y264440D01*
X146222Y264411D01*
X146428Y264054D01*
X146440Y264031D01*
X146451Y264008D01*
X146609Y263626D01*
X146614Y263612D01*
X146626Y263577D01*
X146733Y263178D01*
X146741Y263138D01*
X146743Y263128D01*
X146797Y262719D01*
X146800Y262667D01*
Y262667D01*
D01*
Y262461D01*
Y253012D01*
X146797Y252960D01*
X146787Y252910D01*
X146770Y252861D01*
X146747Y252815D01*
X146719Y252772D01*
X146685Y252733D01*
X146646Y252699D01*
X146603Y252670D01*
X146556Y252647D01*
X146508Y252631D01*
X146457Y252621D01*
X146405Y252617D01*
X140106D01*
X140055Y252621D01*
X140004Y252631D01*
X139955Y252647D01*
X139909Y252670D01*
X139866Y252699D01*
X139827Y252733D01*
X139793Y252772D01*
X139765Y252815D01*
X139742Y252861D01*
X139725Y252910D01*
X139715Y252960D01*
X139712Y253012D01*
Y262461D01*
Y262461D01*
Y262461D01*
X139712Y262667D01*
X139715Y262719D01*
X139715Y262719D01*
X139769Y263128D01*
X139771Y263138D01*
X139779Y263178D01*
X139886Y263577D01*
X139894Y263602D01*
X139902Y263626D01*
X140060Y264008D01*
X140083Y264054D01*
X140290Y264411D01*
X140319Y264454D01*
X140570Y264782D01*
X140604Y264821D01*
X140896Y265113D01*
X140935Y265147D01*
X141262Y265398D01*
X141276Y265408D01*
X141305Y265427D01*
X141663Y265633D01*
X141685Y265644D01*
X141709Y265656D01*
X142090Y265814D01*
X142104Y265819D01*
X142139Y265831D01*
X142538Y265937D01*
X142579Y265946D01*
X142589Y265948D01*
X142998Y266001D01*
X143050Y266005D01*
X143050D01*
D01*
X143462D01*
D01*
X143462D01*
X143514Y266001D01*
D02*
G37*
G36*
X123514D02*
X123923Y265948D01*
X123940Y265944D01*
X123974Y265937D01*
X124373Y265831D01*
X124397Y265822D01*
X124422Y265814D01*
X124803Y265656D01*
X124849Y265633D01*
X125207Y265427D01*
X125250Y265398D01*
X125577Y265147D01*
X125616Y265113D01*
X125908Y264821D01*
X125942Y264782D01*
X126193Y264454D01*
X126203Y264440D01*
X126222Y264411D01*
X126428Y264054D01*
X126440Y264031D01*
X126451Y264008D01*
X126609Y263626D01*
X126614Y263612D01*
X126626Y263577D01*
X126733Y263178D01*
X126741Y263138D01*
X126743Y263128D01*
X126797Y262719D01*
X126800Y262667D01*
Y262667D01*
D01*
Y262461D01*
Y253012D01*
X126797Y252960D01*
X126787Y252910D01*
X126770Y252861D01*
X126747Y252815D01*
X126718Y252772D01*
X126684Y252733D01*
X126646Y252699D01*
X126603Y252670D01*
X126557Y252647D01*
X126508Y252631D01*
X126457Y252621D01*
X126406Y252617D01*
X120106D01*
X120055Y252621D01*
X120004Y252631D01*
X119955Y252647D01*
X119909Y252670D01*
X119866Y252699D01*
X119827Y252733D01*
X119793Y252772D01*
X119765Y252815D01*
X119742Y252861D01*
X119725Y252910D01*
X119715Y252960D01*
X119712Y253012D01*
Y262461D01*
Y262461D01*
Y262461D01*
X119712Y262667D01*
X119715Y262719D01*
X119715Y262719D01*
X119769Y263128D01*
X119771Y263138D01*
X119779Y263178D01*
X119886Y263577D01*
X119894Y263602D01*
X119903Y263626D01*
X120061Y264008D01*
X120083Y264054D01*
X120290Y264411D01*
X120318Y264454D01*
X120570Y264782D01*
X120604Y264821D01*
X120896Y265113D01*
X120935Y265147D01*
X121262Y265398D01*
X121276Y265408D01*
X121305Y265427D01*
X121663Y265633D01*
X121685Y265644D01*
X121709Y265656D01*
X122090Y265814D01*
X122104Y265819D01*
X122139Y265831D01*
X122538Y265937D01*
X122579Y265946D01*
X122589Y265948D01*
X122998Y266001D01*
X123049Y266005D01*
X123049D01*
D01*
X123462D01*
D01*
X123462D01*
X123514Y266001D01*
D02*
G37*
G36*
X113514D02*
X113923Y265948D01*
X113940Y265944D01*
X113974Y265937D01*
X114373Y265831D01*
X114397Y265822D01*
X114421Y265814D01*
X114803Y265656D01*
X114849Y265633D01*
X115207Y265427D01*
X115250Y265398D01*
X115577Y265147D01*
X115616Y265113D01*
X115908Y264821D01*
X115942Y264782D01*
X116193Y264454D01*
X116203Y264440D01*
X116222Y264411D01*
X116428Y264054D01*
X116440Y264031D01*
X116451Y264008D01*
X116609Y263626D01*
X116614Y263612D01*
X116626Y263577D01*
X116733Y263178D01*
X116741Y263138D01*
X116743Y263128D01*
X116797Y262719D01*
X116800Y262667D01*
Y262667D01*
D01*
Y262461D01*
Y253012D01*
X116797Y252960D01*
X116787Y252910D01*
X116770Y252861D01*
X116747Y252815D01*
X116718Y252772D01*
X116684Y252733D01*
X116646Y252699D01*
X116603Y252670D01*
X116557Y252647D01*
X116508Y252631D01*
X116457Y252621D01*
X116405Y252617D01*
X110106D01*
X110055Y252621D01*
X110004Y252631D01*
X109955Y252647D01*
X109909Y252670D01*
X109866Y252699D01*
X109827Y252733D01*
X109793Y252772D01*
X109765Y252815D01*
X109742Y252861D01*
X109725Y252910D01*
X109715Y252960D01*
X109712Y253012D01*
Y262461D01*
Y262461D01*
Y262461D01*
X109712Y262667D01*
X109715Y262719D01*
X109715Y262719D01*
X109769Y263128D01*
X109771Y263138D01*
X109779Y263178D01*
X109886Y263577D01*
X109894Y263602D01*
X109903Y263626D01*
X110061Y264008D01*
X110083Y264054D01*
X110290Y264411D01*
X110319Y264454D01*
X110570Y264782D01*
X110604Y264821D01*
X110896Y265113D01*
X110935Y265147D01*
X111262Y265398D01*
X111276Y265408D01*
X111305Y265427D01*
X111663Y265633D01*
X111685Y265644D01*
X111709Y265656D01*
X112090Y265814D01*
X112104Y265819D01*
X112139Y265831D01*
X112538Y265937D01*
X112579Y265946D01*
X112589Y265948D01*
X112998Y266001D01*
X113049Y266005D01*
X113049D01*
D01*
X113462D01*
D01*
X113462D01*
X113514Y266001D01*
D02*
G37*
G36*
X285283Y266004D02*
X285296D01*
X285308Y266002D01*
X285321Y266001D01*
X285334Y265999D01*
X285347Y265997D01*
X285590Y265949D01*
X285603Y265945D01*
X285615Y265943D01*
X285628Y265939D01*
X285640Y265935D01*
X285652Y265931D01*
X285664Y265926D01*
X285893Y265831D01*
X285905Y265826D01*
X285917Y265821D01*
X285928Y265814D01*
X285940Y265809D01*
X285950Y265801D01*
X285962Y265795D01*
X286168Y265657D01*
X286178Y265649D01*
X286189Y265642D01*
X286199Y265634D01*
X286209Y265626D01*
X286218Y265616D01*
X286228Y265608D01*
X286403Y265433D01*
X286412Y265423D01*
X286421Y265414D01*
X286429Y265404D01*
X286437Y265394D01*
X286444Y265383D01*
X286452Y265373D01*
X286590Y265166D01*
X286597Y265155D01*
X286604Y265144D01*
X286610Y265133D01*
X286616Y265122D01*
X286621Y265110D01*
X286627Y265098D01*
X286722Y264869D01*
X286726Y264857D01*
X286731Y264845D01*
X286734Y264832D01*
X286738Y264820D01*
X286741Y264807D01*
X286744Y264795D01*
X286792Y264551D01*
X286794Y264539D01*
X286797Y264526D01*
X286797Y264513D01*
X286799Y264500D01*
Y264487D01*
X286800Y264475D01*
Y264350D01*
Y253012D01*
X286797Y252960D01*
X286787Y252910D01*
X286770Y252861D01*
X286747Y252815D01*
X286719Y252772D01*
X286684Y252733D01*
X286646Y252699D01*
X286603Y252670D01*
X286557Y252647D01*
X286508Y252631D01*
X286457Y252621D01*
X286405Y252617D01*
X280106D01*
X280055Y252621D01*
X280004Y252631D01*
X279955Y252647D01*
X279909Y252670D01*
X279866Y252699D01*
X279827Y252733D01*
X279793Y252772D01*
X279765Y252815D01*
X279742Y252861D01*
X279725Y252910D01*
X279715Y252960D01*
X279712Y253012D01*
Y264350D01*
Y264475D01*
X279713Y264487D01*
Y264500D01*
X279714Y264513D01*
X279715Y264526D01*
X279718Y264539D01*
X279719Y264551D01*
X279768Y264795D01*
X279771Y264807D01*
X279774Y264820D01*
X279778Y264832D01*
X279781Y264845D01*
X279786Y264857D01*
X279790Y264869D01*
X279885Y265098D01*
X279891Y265110D01*
X279896Y265122D01*
X279902Y265133D01*
X279908Y265144D01*
X279915Y265155D01*
X279922Y265166D01*
X280060Y265373D01*
X280067Y265383D01*
X280075Y265394D01*
X280083Y265403D01*
X280091Y265414D01*
X280100Y265423D01*
X280109Y265433D01*
X280284Y265608D01*
X280294Y265616D01*
X280303Y265626D01*
X280313Y265633D01*
X280323Y265642D01*
X280334Y265649D01*
X280344Y265657D01*
X280550Y265795D01*
X280561Y265801D01*
X280572Y265809D01*
X280584Y265814D01*
X280595Y265821D01*
X280607Y265826D01*
X280618Y265831D01*
X280848Y265926D01*
X280860Y265931D01*
X280872Y265935D01*
X280884Y265939D01*
X280896Y265943D01*
X280909Y265945D01*
X280922Y265949D01*
X281165Y265997D01*
X281178Y265999D01*
X281191Y266001D01*
X281203Y266002D01*
X281216Y266004D01*
X281229D01*
X281242Y266005D01*
X285270D01*
X285283Y266004D01*
D02*
G37*
G36*
X235283D02*
X235296D01*
X235308Y266002D01*
X235321Y266001D01*
X235334Y265999D01*
X235347Y265997D01*
X235590Y265949D01*
X235603Y265945D01*
X235615Y265943D01*
X235628Y265939D01*
X235640Y265935D01*
X235652Y265931D01*
X235664Y265926D01*
X235893Y265831D01*
X235905Y265826D01*
X235917Y265821D01*
X235928Y265814D01*
X235940Y265809D01*
X235950Y265801D01*
X235962Y265795D01*
X236168Y265657D01*
X236178Y265649D01*
X236189Y265642D01*
X236199Y265634D01*
X236209Y265626D01*
X236218Y265616D01*
X236228Y265608D01*
X236403Y265433D01*
X236412Y265423D01*
X236421Y265414D01*
X236429Y265404D01*
X236437Y265394D01*
X236444Y265383D01*
X236452Y265373D01*
X236590Y265166D01*
X236597Y265155D01*
X236604Y265144D01*
X236610Y265133D01*
X236616Y265122D01*
X236621Y265110D01*
X236627Y265098D01*
X236722Y264869D01*
X236726Y264857D01*
X236731Y264845D01*
X236734Y264832D01*
X236738Y264820D01*
X236741Y264807D01*
X236744Y264795D01*
X236792Y264551D01*
X236794Y264539D01*
X236797Y264526D01*
X236797Y264513D01*
X236799Y264500D01*
Y264487D01*
X236800Y264475D01*
Y264350D01*
Y253012D01*
X236797Y252960D01*
X236787Y252910D01*
X236770Y252861D01*
X236747Y252815D01*
X236719Y252772D01*
X236684Y252733D01*
X236646Y252699D01*
X236603Y252670D01*
X236557Y252647D01*
X236508Y252631D01*
X236457Y252621D01*
X236405Y252617D01*
X230106D01*
X230055Y252621D01*
X230004Y252631D01*
X229955Y252647D01*
X229909Y252670D01*
X229866Y252699D01*
X229827Y252733D01*
X229793Y252772D01*
X229765Y252815D01*
X229742Y252861D01*
X229725Y252910D01*
X229715Y252960D01*
X229712Y253012D01*
Y264350D01*
Y264475D01*
X229713Y264487D01*
Y264500D01*
X229714Y264513D01*
X229715Y264526D01*
X229718Y264539D01*
X229719Y264551D01*
X229768Y264795D01*
X229771Y264807D01*
X229774Y264820D01*
X229778Y264832D01*
X229781Y264845D01*
X229786Y264857D01*
X229790Y264869D01*
X229885Y265098D01*
X229891Y265110D01*
X229896Y265122D01*
X229902Y265133D01*
X229908Y265144D01*
X229915Y265155D01*
X229922Y265166D01*
X230060Y265373D01*
X230067Y265383D01*
X230075Y265394D01*
X230083Y265403D01*
X230091Y265414D01*
X230100Y265423D01*
X230109Y265433D01*
X230284Y265608D01*
X230294Y265616D01*
X230303Y265626D01*
X230313Y265633D01*
X230323Y265642D01*
X230334Y265649D01*
X230344Y265657D01*
X230550Y265795D01*
X230561Y265801D01*
X230572Y265809D01*
X230584Y265814D01*
X230595Y265821D01*
X230607Y265826D01*
X230618Y265831D01*
X230848Y265926D01*
X230860Y265931D01*
X230872Y265935D01*
X230884Y265939D01*
X230896Y265943D01*
X230909Y265945D01*
X230922Y265949D01*
X231165Y265997D01*
X231178Y265999D01*
X231191Y266001D01*
X231203Y266002D01*
X231216Y266004D01*
X231229D01*
X231242Y266005D01*
X235270D01*
X235283Y266004D01*
D02*
G37*
G36*
X185283D02*
X185296D01*
X185308Y266002D01*
X185321Y266001D01*
X185334Y265999D01*
X185347Y265997D01*
X185590Y265949D01*
X185603Y265945D01*
X185615Y265943D01*
X185628Y265939D01*
X185640Y265935D01*
X185652Y265931D01*
X185664Y265926D01*
X185893Y265831D01*
X185905Y265826D01*
X185917Y265821D01*
X185928Y265814D01*
X185940Y265809D01*
X185950Y265801D01*
X185962Y265795D01*
X186168Y265657D01*
X186178Y265649D01*
X186189Y265642D01*
X186199Y265634D01*
X186209Y265626D01*
X186218Y265616D01*
X186228Y265608D01*
X186403Y265433D01*
X186412Y265423D01*
X186421Y265414D01*
X186429Y265404D01*
X186437Y265394D01*
X186444Y265383D01*
X186452Y265373D01*
X186590Y265166D01*
X186597Y265155D01*
X186604Y265144D01*
X186609Y265133D01*
X186616Y265122D01*
X186621Y265110D01*
X186627Y265098D01*
X186722Y264869D01*
X186726Y264857D01*
X186731Y264845D01*
X186734Y264832D01*
X186738Y264820D01*
X186741Y264807D01*
X186744Y264795D01*
X186793Y264551D01*
X186794Y264539D01*
X186797Y264526D01*
X186797Y264513D01*
X186799Y264500D01*
Y264487D01*
X186800Y264475D01*
Y264350D01*
Y253012D01*
X186797Y252960D01*
X186787Y252910D01*
X186770Y252861D01*
X186747Y252815D01*
X186718Y252772D01*
X186685Y252733D01*
X186646Y252699D01*
X186603Y252670D01*
X186556Y252647D01*
X186508Y252631D01*
X186457Y252621D01*
X186406Y252617D01*
X180106D01*
X180055Y252621D01*
X180004Y252631D01*
X179955Y252647D01*
X179909Y252670D01*
X179866Y252699D01*
X179827Y252733D01*
X179793Y252772D01*
X179765Y252815D01*
X179742Y252861D01*
X179725Y252910D01*
X179715Y252960D01*
X179712Y253012D01*
Y264350D01*
Y264475D01*
X179713Y264487D01*
Y264500D01*
X179714Y264513D01*
X179715Y264526D01*
X179718Y264539D01*
X179719Y264551D01*
X179768Y264795D01*
X179771Y264807D01*
X179774Y264820D01*
X179778Y264832D01*
X179781Y264845D01*
X179786Y264857D01*
X179790Y264869D01*
X179885Y265098D01*
X179891Y265110D01*
X179896Y265122D01*
X179902Y265133D01*
X179908Y265144D01*
X179915Y265155D01*
X179922Y265166D01*
X180060Y265373D01*
X180067Y265383D01*
X180075Y265394D01*
X180083Y265403D01*
X180091Y265414D01*
X180100Y265423D01*
X180109Y265433D01*
X180284Y265608D01*
X180294Y265616D01*
X180303Y265626D01*
X180313Y265633D01*
X180323Y265642D01*
X180334Y265649D01*
X180344Y265657D01*
X180550Y265795D01*
X180561Y265801D01*
X180572Y265809D01*
X180584Y265814D01*
X180595Y265821D01*
X180607Y265826D01*
X180618Y265831D01*
X180848Y265926D01*
X180860Y265931D01*
X180872Y265935D01*
X180884Y265939D01*
X180896Y265943D01*
X180909Y265945D01*
X180922Y265949D01*
X181165Y265997D01*
X181178Y265999D01*
X181191Y266001D01*
X181203Y266002D01*
X181216Y266004D01*
X181229D01*
X181242Y266005D01*
X185270D01*
X185283Y266004D01*
D02*
G37*
G36*
X135245D02*
X135258D01*
X135271Y266002D01*
X135284Y266001D01*
X135296Y265999D01*
X135309Y265997D01*
X135552Y265949D01*
X135565Y265945D01*
X135577Y265943D01*
X135590Y265939D01*
X135602Y265935D01*
X135614Y265931D01*
X135626Y265926D01*
X135856Y265831D01*
X135867Y265826D01*
X135879Y265821D01*
X135890Y265814D01*
X135902Y265809D01*
X135913Y265801D01*
X135924Y265795D01*
X136130Y265657D01*
X136141Y265649D01*
X136151Y265642D01*
X136161Y265634D01*
X136171Y265626D01*
X136180Y265616D01*
X136190Y265608D01*
X136365Y265433D01*
X136374Y265423D01*
X136383Y265414D01*
X136391Y265404D01*
X136399Y265394D01*
X136407Y265383D01*
X136415Y265373D01*
X136552Y265166D01*
X136559Y265155D01*
X136566Y265144D01*
X136572Y265133D01*
X136578Y265122D01*
X136583Y265110D01*
X136589Y265098D01*
X136684Y264869D01*
X136688Y264857D01*
X136693Y264845D01*
X136696Y264832D01*
X136700Y264820D01*
X136703Y264807D01*
X136706Y264795D01*
X136755Y264551D01*
X136756Y264539D01*
X136759Y264526D01*
X136760Y264513D01*
X136761Y264500D01*
Y264487D01*
X136762Y264475D01*
Y264350D01*
Y253012D01*
X136759Y252960D01*
X136749Y252910D01*
X136732Y252861D01*
X136709Y252815D01*
X136681Y252772D01*
X136647Y252733D01*
X136608Y252699D01*
X136565Y252670D01*
X136519Y252647D01*
X136470Y252631D01*
X136419Y252621D01*
X136368Y252617D01*
X130069D01*
X130017Y252621D01*
X129966Y252631D01*
X129918Y252647D01*
X129871Y252670D01*
X129828Y252699D01*
X129790Y252733D01*
X129755Y252772D01*
X129727Y252815D01*
X129704Y252861D01*
X129687Y252910D01*
X129677Y252960D01*
X129674Y253012D01*
Y264350D01*
Y264475D01*
X129675Y264487D01*
Y264500D01*
X129676Y264513D01*
X129677Y264526D01*
X129680Y264539D01*
X129682Y264551D01*
X129730Y264795D01*
X129733Y264807D01*
X129736Y264820D01*
X129740Y264832D01*
X129743Y264845D01*
X129748Y264857D01*
X129752Y264869D01*
X129847Y265098D01*
X129853Y265110D01*
X129858Y265122D01*
X129865Y265133D01*
X129870Y265144D01*
X129877Y265155D01*
X129884Y265166D01*
X130022Y265373D01*
X130030Y265383D01*
X130037Y265394D01*
X130045Y265403D01*
X130053Y265414D01*
X130062Y265423D01*
X130071Y265433D01*
X130246Y265608D01*
X130256Y265616D01*
X130265Y265626D01*
X130275Y265633D01*
X130285Y265642D01*
X130296Y265649D01*
X130306Y265657D01*
X130512Y265795D01*
X130524Y265801D01*
X130534Y265809D01*
X130546Y265814D01*
X130557Y265821D01*
X130569Y265826D01*
X130581Y265831D01*
X130810Y265926D01*
X130822Y265931D01*
X130834Y265935D01*
X130847Y265939D01*
X130859Y265943D01*
X130871Y265945D01*
X130884Y265949D01*
X131127Y265997D01*
X131140Y265999D01*
X131153Y266001D01*
X131166Y266002D01*
X131178Y266004D01*
X131191D01*
X131204Y266005D01*
X135232D01*
X135245Y266004D01*
D02*
G37*
G36*
X119625Y227569D02*
X119667D01*
Y227527D01*
X119709D01*
Y227485D01*
X119750D01*
Y227444D01*
X119792D01*
Y227402D01*
X119834D01*
Y227360D01*
X119876D01*
Y227318D01*
X119918D01*
Y227277D01*
X119959D01*
Y227235D01*
X120001D01*
Y227193D01*
X120043D01*
Y227151D01*
X120085D01*
Y227110D01*
X120126D01*
Y227068D01*
X120168D01*
Y227026D01*
X120210D01*
Y226984D01*
X120252D01*
Y226943D01*
X120293D01*
Y226901D01*
X120335D01*
Y226859D01*
X120377D01*
Y226817D01*
X120419D01*
Y226776D01*
X120460D01*
Y226734D01*
X120502D01*
Y226692D01*
X120544D01*
Y226650D01*
X120586D01*
Y226609D01*
X120627D01*
Y226567D01*
X120669D01*
Y226525D01*
X120711D01*
Y226483D01*
X120753D01*
Y226442D01*
X120794D01*
Y226400D01*
X120836D01*
Y226358D01*
X120878D01*
Y226316D01*
X120920D01*
Y226274D01*
X120961D01*
Y226233D01*
X121003D01*
Y226191D01*
X121045D01*
Y226149D01*
X121087D01*
Y226108D01*
X121128D01*
Y226066D01*
X121170D01*
Y226024D01*
X121212D01*
Y225982D01*
X121254D01*
Y225940D01*
X121295D01*
Y225899D01*
X121337D01*
Y225857D01*
X121379D01*
Y225815D01*
X121421D01*
Y225774D01*
X121462D01*
Y225732D01*
X121504D01*
Y225690D01*
X121546D01*
Y225648D01*
X121588D01*
Y225606D01*
X121629D01*
Y225565D01*
X121671D01*
Y225523D01*
X121713D01*
Y225481D01*
X121755D01*
Y225440D01*
X121797D01*
Y225398D01*
X121838D01*
Y225356D01*
X121880D01*
Y225314D01*
X121922D01*
Y225272D01*
X121964D01*
Y225231D01*
X122005D01*
Y225189D01*
X122047D01*
Y225147D01*
X122089D01*
Y225105D01*
X122131D01*
Y225064D01*
X122172D01*
Y225022D01*
X122214D01*
Y224980D01*
X122256D01*
Y224938D01*
X122298D01*
Y224897D01*
X122339D01*
Y224646D01*
X122381D01*
Y211536D01*
X122298D01*
Y211494D01*
X122172D01*
Y211452D01*
X122047D01*
Y211410D01*
X121922D01*
Y211368D01*
X121797D01*
Y211327D01*
X121629D01*
Y211285D01*
X121546D01*
Y211243D01*
X121379D01*
Y211202D01*
X121295D01*
Y211160D01*
X121087D01*
Y211118D01*
X121045D01*
Y211076D01*
X120836D01*
Y211034D01*
X120794D01*
Y210993D01*
X120586D01*
Y210951D01*
X120502D01*
Y210909D01*
X120335D01*
Y210867D01*
X120252D01*
Y210826D01*
X120085D01*
Y210784D01*
X119959D01*
Y210742D01*
X119876D01*
Y210700D01*
X119709D01*
Y210659D01*
X119625D01*
Y210617D01*
X119416D01*
Y210659D01*
X119375D01*
Y210700D01*
X119333D01*
Y210742D01*
X119291D01*
Y210784D01*
X119249D01*
Y210826D01*
X119208D01*
Y210867D01*
X119166D01*
Y210909D01*
X119124D01*
Y210951D01*
X119082D01*
Y210993D01*
X119041D01*
Y211034D01*
X118999D01*
Y211076D01*
X118957D01*
Y211118D01*
X118915D01*
Y211160D01*
X118874D01*
Y211202D01*
X118832D01*
Y211243D01*
X118790D01*
Y211285D01*
X118748D01*
Y211327D01*
X118707D01*
Y211368D01*
X118665D01*
Y211410D01*
X118623D01*
Y211452D01*
X118581D01*
Y211494D01*
X118540D01*
Y211536D01*
X118498D01*
Y211577D01*
X118456D01*
Y211619D01*
X118414D01*
Y211661D01*
X118373D01*
Y211702D01*
X118331D01*
Y211744D01*
X118289D01*
Y211786D01*
X118247D01*
Y211828D01*
X118206D01*
Y211870D01*
X118164D01*
Y211911D01*
X118122D01*
Y211953D01*
X118080D01*
Y211995D01*
X118039D01*
Y212036D01*
X117997D01*
Y212078D01*
X117955D01*
Y212120D01*
X117913D01*
Y212162D01*
X117872D01*
Y212204D01*
X117830D01*
Y212245D01*
X117788D01*
Y212287D01*
X117746D01*
Y212329D01*
X117705D01*
Y212371D01*
X117663D01*
Y212412D01*
X117621D01*
Y212454D01*
X117579D01*
Y212496D01*
X117538D01*
Y212538D01*
X117496D01*
Y212621D01*
X117454D01*
Y212663D01*
X117412D01*
Y212705D01*
X117371D01*
Y212746D01*
X117329D01*
Y212788D01*
X117287D01*
Y212830D01*
X117245D01*
Y212872D01*
X117203D01*
Y212913D01*
X117162D01*
Y212955D01*
X117120D01*
Y212997D01*
X117078D01*
Y213039D01*
X117036D01*
Y213080D01*
X116995D01*
Y213122D01*
X116953D01*
Y213164D01*
X116911D01*
Y213206D01*
X116869D01*
Y213247D01*
X116828D01*
Y213289D01*
X116786D01*
Y213331D01*
X116702D01*
Y213373D01*
X116661D01*
Y213414D01*
X116619D01*
Y213456D01*
X116577D01*
Y213498D01*
X116535D01*
Y217339D01*
X116661D01*
Y217298D01*
X116702D01*
Y217214D01*
X116744D01*
Y217172D01*
X116786D01*
Y217130D01*
X116828D01*
Y217089D01*
X116869D01*
Y217047D01*
X116911D01*
Y217005D01*
X116953D01*
Y216964D01*
X116995D01*
Y216922D01*
X117036D01*
Y216880D01*
X117078D01*
Y216838D01*
X117120D01*
Y216796D01*
X117162D01*
Y216755D01*
X117203D01*
Y216713D01*
X117245D01*
Y216671D01*
X117287D01*
Y216629D01*
X117329D01*
Y216588D01*
X117371D01*
Y216546D01*
X117412D01*
Y216504D01*
X117454D01*
Y216462D01*
X117496D01*
Y216421D01*
X117538D01*
Y216379D01*
X117579D01*
Y216337D01*
X117621D01*
Y216295D01*
X117663D01*
Y216254D01*
X117705D01*
Y216212D01*
X117746D01*
Y216170D01*
X117788D01*
Y216128D01*
X117830D01*
Y216087D01*
X117872D01*
Y216045D01*
X117913D01*
Y216003D01*
X117955D01*
Y215961D01*
X117997D01*
Y215920D01*
X118039D01*
Y215878D01*
X118080D01*
Y215836D01*
X118122D01*
Y215794D01*
X118164D01*
Y215753D01*
X118206D01*
Y215711D01*
X118247D01*
Y215669D01*
X118289D01*
Y215627D01*
X118373D01*
Y215586D01*
X118414D01*
Y215544D01*
X118456D01*
Y215502D01*
X118498D01*
Y215460D01*
X118540D01*
Y215419D01*
X118581D01*
Y215377D01*
X118623D01*
Y215335D01*
X118665D01*
Y215293D01*
X118707D01*
Y215252D01*
X118748D01*
Y215210D01*
X118790D01*
Y215168D01*
X118832D01*
Y215126D01*
X118874D01*
Y215085D01*
X118915D01*
Y215043D01*
X118957D01*
Y215001D01*
X118999D01*
Y214959D01*
X119041D01*
Y214917D01*
X119082D01*
Y214876D01*
X119124D01*
Y214834D01*
X119166D01*
Y214792D01*
X119208D01*
Y214751D01*
X119249D01*
Y214709D01*
X119291D01*
Y214667D01*
X119333D01*
Y214625D01*
X119375D01*
Y214583D01*
X119416D01*
Y214542D01*
X119458D01*
Y214500D01*
X119500D01*
Y218174D01*
Y218216D01*
Y227652D01*
X119625D01*
Y227569D01*
D02*
G37*
G36*
X123341Y223895D02*
X123383D01*
Y223853D01*
X123425D01*
Y223811D01*
X123467D01*
Y223728D01*
X123508D01*
Y223686D01*
X123550D01*
Y223644D01*
X123592D01*
Y223602D01*
X123634D01*
Y223561D01*
X123675D01*
Y223519D01*
X123717D01*
Y223477D01*
X123759D01*
Y223435D01*
X123801D01*
Y223394D01*
X123842D01*
Y223352D01*
X123884D01*
Y223310D01*
X123926D01*
Y223268D01*
X123968D01*
Y223226D01*
X124009D01*
Y223185D01*
X124051D01*
Y223143D01*
X124093D01*
Y223101D01*
X124135D01*
Y223060D01*
X124176D01*
Y223018D01*
X124218D01*
Y222976D01*
X124260D01*
Y222934D01*
X124302D01*
Y222892D01*
X124343D01*
Y222851D01*
X124385D01*
Y222809D01*
X124427D01*
Y222767D01*
X124469D01*
Y222726D01*
X124510D01*
Y222684D01*
X124552D01*
Y222642D01*
X124594D01*
Y222600D01*
X124636D01*
Y222558D01*
X124677D01*
Y222517D01*
X124719D01*
Y222475D01*
X124761D01*
Y222433D01*
X124803D01*
Y222391D01*
X124845D01*
Y222350D01*
X124886D01*
Y222308D01*
X124928D01*
Y222266D01*
X124970D01*
Y222224D01*
X125012D01*
Y222183D01*
X125053D01*
Y222141D01*
X125095D01*
Y222099D01*
X125137D01*
Y222057D01*
X125179D01*
Y222016D01*
X125220D01*
Y221974D01*
X125262D01*
Y221932D01*
X125304D01*
Y221890D01*
X125346D01*
Y221849D01*
X125387D01*
Y221807D01*
X125429D01*
Y221765D01*
X125471D01*
Y221723D01*
X125513D01*
Y221682D01*
X125554D01*
Y221640D01*
X125596D01*
Y221598D01*
X125638D01*
Y221556D01*
X125680D01*
Y221515D01*
X125721D01*
Y221473D01*
X125805D01*
Y221431D01*
X125847D01*
Y221389D01*
X125888D01*
Y221348D01*
X125930D01*
Y221306D01*
X125972D01*
Y221264D01*
X126014D01*
Y221222D01*
X126055D01*
Y221181D01*
X126097D01*
Y221097D01*
X126139D01*
Y220930D01*
X126097D01*
Y217590D01*
X126139D01*
Y217548D01*
X126097D01*
Y217423D01*
X126139D01*
Y217381D01*
X126097D01*
Y217298D01*
X126139D01*
Y217256D01*
X126097D01*
Y217214D01*
X126055D01*
Y217172D01*
X126014D01*
Y217130D01*
X125972D01*
Y217089D01*
X125930D01*
Y217047D01*
X125888D01*
Y217005D01*
X125847D01*
Y216964D01*
X125805D01*
Y216922D01*
X125763D01*
Y216880D01*
X125721D01*
Y216838D01*
X125680D01*
Y216796D01*
X125638D01*
Y216755D01*
X125596D01*
Y216713D01*
X125554D01*
Y216671D01*
X125513D01*
Y216629D01*
X125471D01*
Y216588D01*
X125429D01*
Y216546D01*
X125387D01*
Y216504D01*
X125346D01*
Y216462D01*
X125304D01*
Y216421D01*
X125262D01*
Y216379D01*
X125220D01*
Y216337D01*
X125179D01*
Y216295D01*
X125137D01*
Y216254D01*
X125095D01*
Y216212D01*
X125053D01*
Y216170D01*
X125012D01*
Y216128D01*
X124970D01*
Y216087D01*
X124928D01*
Y216045D01*
X124886D01*
Y216003D01*
X124845D01*
Y215961D01*
X124803D01*
Y215920D01*
X124761D01*
Y215878D01*
X124719D01*
Y215836D01*
X124677D01*
Y215794D01*
X124636D01*
Y215753D01*
X124594D01*
Y215711D01*
X124552D01*
Y215669D01*
X124510D01*
Y215627D01*
X124469D01*
Y215586D01*
X124427D01*
Y215544D01*
X124385D01*
Y215502D01*
X124343D01*
Y215460D01*
X124302D01*
Y215419D01*
X124260D01*
Y215377D01*
X124218D01*
Y215335D01*
X124176D01*
Y215293D01*
X124135D01*
Y215252D01*
X124093D01*
Y215210D01*
X124051D01*
Y215168D01*
X124009D01*
Y215126D01*
X123968D01*
Y215085D01*
X123926D01*
Y215043D01*
X123884D01*
Y215001D01*
X123842D01*
Y214959D01*
X123801D01*
Y214917D01*
X123759D01*
Y214876D01*
X123717D01*
Y214834D01*
X123675D01*
Y214792D01*
X123634D01*
Y214751D01*
X123592D01*
Y214709D01*
X123550D01*
Y214667D01*
X123508D01*
Y214625D01*
X123467D01*
Y214583D01*
X123425D01*
Y214542D01*
X123383D01*
Y214500D01*
X123341D01*
Y214458D01*
X123216D01*
Y218258D01*
X123258D01*
Y218300D01*
X123300D01*
Y218341D01*
X123341D01*
Y218383D01*
X123383D01*
Y218425D01*
X123425D01*
Y218467D01*
X123467D01*
Y218508D01*
X123508D01*
Y218550D01*
X123550D01*
Y218592D01*
X123592D01*
Y218634D01*
X123634D01*
Y218675D01*
X123675D01*
Y218717D01*
X123717D01*
Y218759D01*
X123759D01*
Y218801D01*
X123801D01*
Y218842D01*
X123842D01*
Y218884D01*
X123884D01*
Y218926D01*
X123926D01*
Y218968D01*
X123968D01*
Y219009D01*
X124009D01*
Y219051D01*
X124051D01*
Y219093D01*
X124093D01*
Y219176D01*
X124135D01*
Y219260D01*
X124093D01*
Y219302D01*
X124051D01*
Y219343D01*
X124009D01*
Y219385D01*
X123968D01*
Y219427D01*
X123926D01*
Y219469D01*
X123884D01*
Y219510D01*
X123842D01*
Y219552D01*
X123801D01*
Y219594D01*
X123759D01*
Y219636D01*
X123717D01*
Y219677D01*
X123675D01*
Y219719D01*
X123634D01*
Y219761D01*
X123592D01*
Y219803D01*
X123550D01*
Y219845D01*
X123508D01*
Y219886D01*
X123467D01*
Y219928D01*
X123425D01*
Y219970D01*
X123383D01*
Y220011D01*
X123341D01*
Y220053D01*
X123300D01*
Y220095D01*
X123258D01*
Y223936D01*
X123341D01*
Y223895D01*
D02*
G37*
G36*
X115659Y220095D02*
X115617D01*
Y220053D01*
X115575D01*
Y220011D01*
X115533D01*
Y219970D01*
X115492D01*
Y219928D01*
X115450D01*
Y219886D01*
X115408D01*
Y219845D01*
X115366D01*
Y219803D01*
X115325D01*
Y219761D01*
X115283D01*
Y219719D01*
X115241D01*
Y219677D01*
X115199D01*
Y219636D01*
X115158D01*
Y219594D01*
X115116D01*
Y219552D01*
X115074D01*
Y219510D01*
X115032D01*
Y219469D01*
X114991D01*
Y219427D01*
X114949D01*
Y219385D01*
X114907D01*
Y219343D01*
X114865D01*
Y219302D01*
X114824D01*
Y219260D01*
X114782D01*
Y219176D01*
X114824D01*
Y219135D01*
X114865D01*
Y219093D01*
X114907D01*
Y219051D01*
X114949D01*
Y219009D01*
X114991D01*
Y218968D01*
X115032D01*
Y218926D01*
X115074D01*
Y218884D01*
X115116D01*
Y218842D01*
X115158D01*
Y218801D01*
X115199D01*
Y218759D01*
X115241D01*
Y218717D01*
X115283D01*
Y218675D01*
X115325D01*
Y218634D01*
X115366D01*
Y218592D01*
X115408D01*
Y218550D01*
X115450D01*
Y218508D01*
X115492D01*
Y218467D01*
X115533D01*
Y218425D01*
X115575D01*
Y218383D01*
X115617D01*
Y218341D01*
X115659D01*
Y218300D01*
X115700D01*
Y217924D01*
Y217882D01*
Y214458D01*
X115575D01*
Y214500D01*
X115533D01*
Y214542D01*
X115492D01*
Y214583D01*
X115450D01*
Y214625D01*
X115408D01*
Y214667D01*
X115366D01*
Y214709D01*
X115325D01*
Y214751D01*
X115283D01*
Y214792D01*
X115241D01*
Y214834D01*
X115199D01*
Y214876D01*
X115158D01*
Y214917D01*
X115116D01*
Y214959D01*
X115074D01*
Y215001D01*
X115032D01*
Y215043D01*
X114991D01*
Y215085D01*
X114949D01*
Y215126D01*
X114907D01*
Y215168D01*
X114865D01*
Y215210D01*
X114824D01*
Y215252D01*
X114782D01*
Y215293D01*
X114740D01*
Y215335D01*
X114698D01*
Y215377D01*
X114657D01*
Y215419D01*
X114615D01*
Y215460D01*
X114573D01*
Y215502D01*
X114531D01*
Y215544D01*
X114490D01*
Y215586D01*
X114448D01*
Y215627D01*
X114406D01*
Y215669D01*
X114364D01*
Y215711D01*
X114322D01*
Y215753D01*
X114281D01*
Y215794D01*
X114239D01*
Y215836D01*
X114197D01*
Y215878D01*
X114155D01*
Y215920D01*
X114114D01*
Y215961D01*
X114072D01*
Y216003D01*
X114030D01*
Y216045D01*
X113988D01*
Y216087D01*
X113947D01*
Y216128D01*
X113905D01*
Y216170D01*
X113863D01*
Y216212D01*
X113821D01*
Y216254D01*
X113780D01*
Y216295D01*
X113738D01*
Y216337D01*
X113696D01*
Y216379D01*
X113654D01*
Y216421D01*
X113613D01*
Y216462D01*
X113571D01*
Y216504D01*
X113529D01*
Y216546D01*
X113488D01*
Y216588D01*
X113446D01*
Y216629D01*
X113404D01*
Y216671D01*
X113362D01*
Y216713D01*
X113321D01*
Y216755D01*
X113279D01*
Y216796D01*
X113237D01*
Y216838D01*
X113195D01*
Y216880D01*
X113153D01*
Y216922D01*
X113112D01*
Y216964D01*
X113070D01*
Y217005D01*
X113028D01*
Y217047D01*
X112986D01*
Y217089D01*
X112945D01*
Y217130D01*
X112903D01*
Y217172D01*
X112861D01*
Y217214D01*
X112819D01*
Y221181D01*
X112861D01*
Y221222D01*
X112945D01*
Y221264D01*
X112986D01*
Y221306D01*
X113028D01*
Y221348D01*
X113070D01*
Y221389D01*
X113112D01*
Y221431D01*
X113153D01*
Y221473D01*
X113195D01*
Y221515D01*
X113237D01*
Y221556D01*
X113279D01*
Y221598D01*
X113321D01*
Y221640D01*
X113362D01*
Y221682D01*
X113404D01*
Y221723D01*
X113446D01*
Y221765D01*
X113488D01*
Y221807D01*
X113529D01*
Y221849D01*
X113571D01*
Y221890D01*
X113613D01*
Y221932D01*
X113654D01*
Y221974D01*
X113696D01*
Y222016D01*
X113738D01*
Y222057D01*
X113780D01*
Y222099D01*
X113821D01*
Y222141D01*
X113863D01*
Y222183D01*
X113905D01*
Y222224D01*
X113947D01*
Y222266D01*
X113988D01*
Y222308D01*
X114030D01*
Y222350D01*
X114072D01*
Y222391D01*
X114114D01*
Y222433D01*
X114155D01*
Y222475D01*
X114197D01*
Y222517D01*
X114239D01*
Y222558D01*
X114281D01*
Y222600D01*
X114322D01*
Y222642D01*
X114364D01*
Y222684D01*
X114406D01*
Y222726D01*
X114448D01*
Y222767D01*
X114490D01*
Y222809D01*
X114531D01*
Y222851D01*
X114573D01*
Y222892D01*
X114615D01*
Y222934D01*
X114657D01*
Y222976D01*
X114698D01*
Y223018D01*
X114740D01*
Y223060D01*
X114782D01*
Y223101D01*
X114824D01*
Y223143D01*
X114865D01*
Y223185D01*
X114907D01*
Y223226D01*
X114949D01*
Y223268D01*
X114991D01*
Y223310D01*
X115032D01*
Y223352D01*
X115074D01*
Y223394D01*
X115116D01*
Y223435D01*
X115158D01*
Y223477D01*
X115199D01*
Y223519D01*
X115241D01*
Y223561D01*
X115283D01*
Y223602D01*
X115325D01*
Y223644D01*
X115366D01*
Y223686D01*
X115408D01*
Y223728D01*
X115450D01*
Y223769D01*
X115492D01*
Y223811D01*
X115533D01*
Y223853D01*
X115575D01*
Y223936D01*
X115659D01*
Y220095D01*
D02*
G37*
%LPC*%
G36*
X134048Y383612D02*
X133844D01*
X133764Y383605D01*
X133669Y383583D01*
X133552Y383561D01*
X133428Y383525D01*
X133304Y383474D01*
X133188Y383401D01*
X133180Y383394D01*
X133159Y383379D01*
X133129Y383350D01*
X133093Y383321D01*
X133056Y383277D01*
X133027Y383233D01*
X133005Y383190D01*
X132998Y383138D01*
Y383131D01*
Y383124D01*
X133013Y383080D01*
X133035Y383029D01*
X133056Y383000D01*
X133086Y382978D01*
X133093Y382971D01*
X133115Y382963D01*
X133151Y382942D01*
X133210Y382927D01*
X133275Y382905D01*
X133355Y382883D01*
X133450Y382876D01*
X133552Y382869D01*
X133596D01*
X133647Y382876D01*
X133713Y382883D01*
X133800Y382891D01*
X133895Y382912D01*
X133997Y382934D01*
X134114Y382963D01*
X134121D01*
X134128Y382971D01*
X134165Y382978D01*
X134230Y383000D01*
X134303Y383036D01*
X134398Y383073D01*
X134493Y383117D01*
X134595Y383175D01*
X134689Y383233D01*
Y383525D01*
X134682D01*
X134668Y383532D01*
X134646D01*
X134617Y383539D01*
X134536Y383554D01*
X134434Y383569D01*
X134318Y383583D01*
X134186Y383598D01*
X134048Y383612D01*
D02*
G37*
G36*
X129761Y385704D02*
X129032D01*
Y382978D01*
X129834D01*
X129914Y382985D01*
X130002Y382993D01*
X130104Y383007D01*
X130206Y383029D01*
X130308Y383058D01*
X130396Y383095D01*
X130410Y383102D01*
X130439Y383124D01*
X130491Y383153D01*
X130549Y383204D01*
X130614Y383255D01*
X130680Y383328D01*
X130746Y383401D01*
X130804Y383488D01*
X130811Y383503D01*
X130826Y383532D01*
X130848Y383590D01*
X130877Y383663D01*
X130906Y383751D01*
X130928Y383860D01*
X130942Y383977D01*
X130950Y384115D01*
Y384443D01*
Y384451D01*
Y384458D01*
Y384502D01*
X130942Y384560D01*
X130935Y384640D01*
X130921Y384735D01*
X130891Y384830D01*
X130862Y384932D01*
X130818Y385027D01*
Y385034D01*
X130811Y385041D01*
X130782Y385092D01*
X130746Y385158D01*
X130687Y385238D01*
X130622Y385326D01*
X130549Y385413D01*
X130461Y385493D01*
X130374Y385559D01*
X130367Y385566D01*
X130330Y385581D01*
X130279Y385602D01*
X130206Y385632D01*
X130119Y385661D01*
X130017Y385683D01*
X129893Y385697D01*
X129761Y385704D01*
D02*
G37*
G36*
X121495Y384764D02*
X121436D01*
X121371Y384757D01*
X121291Y384742D01*
X121188Y384728D01*
X121086Y384699D01*
X120984Y384662D01*
X120882Y384611D01*
X120868Y384604D01*
X120838Y384582D01*
X120795Y384553D01*
X120736Y384502D01*
X120671Y384436D01*
X120598Y384363D01*
X120532Y384268D01*
X120467Y384166D01*
X122530D01*
X122522Y384181D01*
X122501Y384217D01*
X122464Y384268D01*
X122420Y384334D01*
X122355Y384407D01*
X122282Y384480D01*
X122202Y384553D01*
X122107Y384611D01*
X122092Y384618D01*
X122063Y384633D01*
X122005Y384662D01*
X121932Y384691D01*
X121844Y384713D01*
X121742Y384742D01*
X121626Y384757D01*
X121495Y384764D01*
D02*
G37*
G36*
X117383D02*
X117339D01*
X117303Y384757D01*
X117266D01*
X117215Y384750D01*
X117106Y384728D01*
X116982Y384691D01*
X116851Y384633D01*
X116720Y384560D01*
X116596Y384458D01*
X116581Y384443D01*
X116545Y384407D01*
X116494Y384341D01*
X116443Y384261D01*
X116384Y384159D01*
X116333Y384035D01*
X116297Y383904D01*
X116289Y383831D01*
X116282Y383758D01*
Y383744D01*
X116289Y383700D01*
X116297Y383642D01*
X116319Y383561D01*
X116362Y383467D01*
X116413Y383364D01*
X116494Y383255D01*
X116537Y383197D01*
X116596Y383146D01*
X116603D01*
X116610Y383131D01*
X116654Y383102D01*
X116720Y383058D01*
X116814Y383007D01*
X116931Y382956D01*
X117062Y382912D01*
X117215Y382883D01*
X117383Y382869D01*
X117427D01*
X117463Y382876D01*
X117500D01*
X117551Y382883D01*
X117660Y382905D01*
X117784Y382934D01*
X117915Y382985D01*
X118054Y383051D01*
X118178Y383146D01*
X118185D01*
X118192Y383160D01*
X118229Y383197D01*
X118280Y383255D01*
X118338Y383328D01*
X118396Y383423D01*
X118447Y383525D01*
X118484Y383642D01*
X118498Y383700D01*
Y383765D01*
Y383773D01*
Y383780D01*
Y383824D01*
X118484Y383889D01*
X118469Y383969D01*
X118440Y384064D01*
X118396Y384166D01*
X118331Y384276D01*
X118251Y384378D01*
Y384385D01*
X118236Y384392D01*
X118214Y384414D01*
X118192Y384436D01*
X118119Y384502D01*
X118017Y384575D01*
X117893Y384640D01*
X117747Y384706D01*
X117573Y384750D01*
X117485Y384757D01*
X117383Y384764D01*
D02*
G37*
G36*
X117522Y378277D02*
X117317D01*
X117237Y378270D01*
X117142Y378248D01*
X117026Y378226D01*
X116902Y378190D01*
X116778Y378139D01*
X116661Y378066D01*
X116654Y378059D01*
X116632Y378044D01*
X116603Y378015D01*
X116567Y377986D01*
X116530Y377942D01*
X116501Y377898D01*
X116479Y377855D01*
X116472Y377804D01*
Y377796D01*
Y377789D01*
X116486Y377745D01*
X116508Y377694D01*
X116530Y377665D01*
X116559Y377643D01*
X116567Y377636D01*
X116588Y377629D01*
X116625Y377607D01*
X116683Y377592D01*
X116749Y377570D01*
X116829Y377549D01*
X116924Y377541D01*
X117026Y377534D01*
X117070D01*
X117121Y377541D01*
X117186Y377549D01*
X117274Y377556D01*
X117368Y377578D01*
X117471Y377600D01*
X117587Y377629D01*
X117594D01*
X117602Y377636D01*
X117638Y377643D01*
X117704Y377665D01*
X117777Y377702D01*
X117871Y377738D01*
X117966Y377782D01*
X118068Y377840D01*
X118163Y377898D01*
Y378190D01*
X118156D01*
X118141Y378197D01*
X118119D01*
X118090Y378205D01*
X118010Y378219D01*
X117908Y378234D01*
X117791Y378248D01*
X117660Y378263D01*
X117522Y378277D01*
D02*
G37*
G36*
X142555Y379429D02*
X142512D01*
X142475Y379422D01*
X142439D01*
X142388Y379415D01*
X142278Y379393D01*
X142154Y379356D01*
X142023Y379298D01*
X141892Y379225D01*
X141768Y379123D01*
X141753Y379109D01*
X141717Y379072D01*
X141666Y379007D01*
X141615Y378926D01*
X141557Y378824D01*
X141506Y378700D01*
X141469Y378569D01*
X141462Y378496D01*
X141455Y378423D01*
Y378409D01*
X141462Y378365D01*
X141469Y378307D01*
X141491Y378226D01*
X141535Y378132D01*
X141586Y378030D01*
X141666Y377920D01*
X141710Y377862D01*
X141768Y377811D01*
X141775D01*
X141783Y377796D01*
X141826Y377767D01*
X141892Y377724D01*
X141987Y377672D01*
X142103Y377621D01*
X142235Y377578D01*
X142388Y377549D01*
X142555Y377534D01*
X142599D01*
X142636Y377541D01*
X142672D01*
X142723Y377549D01*
X142832Y377570D01*
X142956Y377600D01*
X143088Y377651D01*
X143226Y377716D01*
X143350Y377811D01*
X143357D01*
X143365Y377825D01*
X143401Y377862D01*
X143452Y377920D01*
X143510Y377993D01*
X143569Y378088D01*
X143620Y378190D01*
X143656Y378307D01*
X143671Y378365D01*
Y378431D01*
Y378438D01*
Y378445D01*
Y378489D01*
X143656Y378555D01*
X143642Y378635D01*
X143612Y378730D01*
X143569Y378832D01*
X143503Y378941D01*
X143423Y379043D01*
Y379050D01*
X143408Y379058D01*
X143386Y379079D01*
X143365Y379101D01*
X143292Y379167D01*
X143190Y379240D01*
X143066Y379305D01*
X142920Y379371D01*
X142745Y379415D01*
X142657Y379422D01*
X142555Y379429D01*
D02*
G37*
%LPD*%
D16*
X219957Y357000D02*
D03*
Y354441D02*
D03*
Y351882D02*
D03*
Y349323D02*
D03*
X231378Y357000D02*
D03*
Y354441D02*
D03*
Y351882D02*
D03*
D17*
Y349323D02*
D03*
D19*
X238500Y346000D02*
D03*
Y349000D02*
D03*
D20*
X320500Y293000D02*
D03*
Y263000D02*
D03*
Y283000D02*
D03*
Y273000D02*
D03*
Y303000D02*
D03*
Y323000D02*
D03*
Y313000D02*
D03*
D21*
Y333000D02*
D03*
D22*
X175000Y352579D02*
D03*
X196000Y348657D02*
D03*
D23*
X175000Y362421D02*
D03*
X196000Y368342D02*
D03*
D24*
X300315Y374500D02*
D03*
X322500Y222000D02*
D03*
D25*
X302815D02*
D03*
X320000Y374500D02*
D03*
D26*
X274500Y233000D02*
D03*
X174500Y380500D02*
D03*
X232500D02*
D03*
X170500Y233000D02*
D03*
D27*
X354000Y233500D02*
D03*
D28*
Y358500D02*
D03*
D29*
X216500Y233000D02*
D03*
X228500D02*
D03*
X220500Y380500D02*
D03*
X278500D02*
D03*
D30*
X238142Y217500D02*
D03*
D31*
X205858D02*
D03*
D32*
X293500Y323500D02*
D03*
X293000Y297500D02*
D03*
X283500Y348000D02*
D03*
X182500Y347000D02*
D03*
X173500D02*
D03*
X133500Y324000D02*
D03*
X183000Y271000D02*
D03*
X133000D02*
D03*
X233256Y270756D02*
D03*
X283000Y270500D02*
D03*
X221000Y345500D02*
D03*
X238500Y353500D02*
D03*
X244500Y351500D02*
D03*
X233425Y325500D02*
D03*
X153339Y325925D02*
D03*
M02*
