G04*
G04 #@! TF.GenerationSoftware,Altium Limited,Altium Designer,23.0.1 (38)*
G04*
G04 Layer_Color=16711935*
%FSLAX25Y25*%
%MOIN*%
G70*
G04*
G04 #@! TF.SameCoordinates,BC8FEE28-448D-4E3F-B38E-86C11A945C97*
G04*
G04*
G04 #@! TF.FilePolarity,Negative*
G04*
G01*
G75*
%ADD20C,0.07119*%
%ADD21R,0.07119X0.07119*%
%ADD22C,0.04724*%
%ADD23R,0.04724X0.04724*%
%ADD24C,0.07887*%
%ADD25R,0.07887X0.07887*%
%ADD26R,0.05400X0.05400*%
%ADD27C,0.06800*%
%ADD28R,0.06800X0.06800*%
%ADD29C,0.05400*%
%ADD30R,0.05524X0.05524*%
%ADD31C,0.05524*%
%ADD32C,0.03950*%
D20*
X320500Y293000D02*
D03*
Y263000D02*
D03*
Y283000D02*
D03*
Y273000D02*
D03*
Y303000D02*
D03*
Y323000D02*
D03*
Y313000D02*
D03*
D21*
Y333000D02*
D03*
D22*
X175000Y352579D02*
D03*
X196000Y348657D02*
D03*
D23*
X175000Y362421D02*
D03*
X196000Y368342D02*
D03*
D24*
X300315Y374500D02*
D03*
X322500Y222000D02*
D03*
D25*
X302815D02*
D03*
X320000Y374500D02*
D03*
D26*
X274500Y233000D02*
D03*
X174500Y380500D02*
D03*
X232500D02*
D03*
X170500Y233000D02*
D03*
D27*
X354000Y233500D02*
D03*
D28*
Y358500D02*
D03*
D29*
X216500Y233000D02*
D03*
X228500D02*
D03*
X220500Y380500D02*
D03*
X278500D02*
D03*
D30*
X238142Y217500D02*
D03*
D31*
X205858D02*
D03*
D32*
X293500Y323500D02*
D03*
X293000Y297500D02*
D03*
X283500Y348000D02*
D03*
X182500Y347000D02*
D03*
X173500D02*
D03*
X133500Y324000D02*
D03*
X183000Y271000D02*
D03*
X133000D02*
D03*
X233256Y270756D02*
D03*
X283000Y270500D02*
D03*
X221000Y345500D02*
D03*
X238500Y353500D02*
D03*
X244500Y351500D02*
D03*
X233425Y325500D02*
D03*
X153339Y325925D02*
D03*
M02*
