G04*
G04 #@! TF.GenerationSoftware,Altium Limited,Altium Designer,23.0.1 (38)*
G04*
G04 Layer_Color=255*
%FSLAX25Y25*%
%MOIN*%
G70*
G04*
G04 #@! TF.SameCoordinates,BC8FEE28-448D-4E3F-B38E-86C11A945C97*
G04*
G04*
G04 #@! TF.FilePolarity,Positive*
G04*
G01*
G75*
G04:AMPARAMS|DCode=16|XSize=59.06mil|YSize=15.35mil|CornerRadius=7.68mil|HoleSize=0mil|Usage=FLASHONLY|Rotation=180.000|XOffset=0mil|YOffset=0mil|HoleType=Round|Shape=RoundedRectangle|*
%AMROUNDEDRECTD16*
21,1,0.05906,0.00000,0,0,180.0*
21,1,0.04370,0.01535,0,0,180.0*
1,1,0.01535,-0.02185,0.00000*
1,1,0.01535,0.02185,0.00000*
1,1,0.01535,0.02185,0.00000*
1,1,0.01535,-0.02185,0.00000*
%
%ADD16ROUNDEDRECTD16*%
%ADD17R,0.05906X0.01535*%
%ADD18R,0.02000X0.01000*%
%ADD22C,0.04724*%
%ADD23R,0.04724X0.04724*%
%ADD26R,0.05400X0.05400*%
%ADD27C,0.06800*%
%ADD28R,0.06800X0.06800*%
%ADD29C,0.05400*%
%ADD35C,0.06319*%
%ADD36R,0.06319X0.06319*%
%ADD37C,0.07087*%
%ADD38R,0.07087X0.07087*%
%ADD39R,0.04724X0.04724*%
G36*
G01X311555Y304350D02*
G01Y310650D01*
G01X302106D01*
G03X298957Y307500I0J-3150D01*
G03X302106Y304350I3150J0D01*
G01X311555D01*
D02*
G37*
G36*
G01Y294350D02*
G01Y300650D01*
G01X300217D01*
G03X298957Y299390I0J-1260D01*
G01Y295610D01*
G03X300217Y294350I1260J0D01*
G01X311555D01*
D02*
G37*
G36*
G01Y284350D02*
G01Y290650D01*
G01X302106D01*
G03X298957Y287500I0J-3150D01*
G03X302106Y284350I3150J0D01*
G01X311555D01*
D02*
G37*
G36*
G01X116405Y253012D02*
G01Y262461D01*
G03X113256Y265610I-3150J0D01*
G03X110106Y262461I0J-3150D01*
G01Y253012D01*
G01X116405D01*
D02*
G37*
G36*
G01X285146Y329390D02*
G03X286405Y330650I0J1260D01*
G01Y341988D01*
G01X280106D01*
G01Y330650D01*
G03X281366Y329390I1260J0D01*
G01X285146D01*
D02*
G37*
G36*
G01X235146D02*
G03X236405Y330650I0J1260D01*
G01Y341988D01*
G01X230106D01*
G01Y330650D01*
G03X231366Y329390I1260J0D01*
G01X235146D01*
D02*
G37*
G36*
G01X185146D02*
G03X186406Y330650I0J1260D01*
G01Y341988D01*
G01X180106D01*
G01Y330650D01*
G03X181366Y329390I1260J0D01*
G01X185146D01*
D02*
G37*
G36*
G01X303256D02*
G03X306405Y332539I0J3150D01*
G01Y341988D01*
G01X300106D01*
G01Y332539D01*
G03X303256Y329390I3150J0D01*
D02*
G37*
G36*
G01X293256D02*
G03X296406Y332539I0J3150D01*
G01Y341988D01*
G01X290106D01*
G01Y332539D01*
G03X293256Y329390I3150J0D01*
D02*
G37*
G36*
G01X273256D02*
G03X276406Y332539I0J3150D01*
G01Y341988D01*
G01X270106D01*
G01Y332539D01*
G03X273256Y329390I3150J0D01*
D02*
G37*
G36*
G01X263256D02*
G03X266406Y332539I0J3150D01*
G01Y341988D01*
G01X260106D01*
G01Y332539D01*
G03X263256Y329390I3150J0D01*
D02*
G37*
G36*
G01X253256D02*
G03X256405Y332539I0J3150D01*
G01Y341988D01*
G01X250106D01*
G01Y332539D01*
G03X253256Y329390I3150J0D01*
D02*
G37*
G36*
G01X243256D02*
G03X246406Y332539I0J3150D01*
G01Y341988D01*
G01X240106D01*
G01Y332539D01*
G03X243256Y329390I3150J0D01*
D02*
G37*
G36*
G01X223256D02*
G03X226406Y332539I0J3150D01*
G01Y341988D01*
G01X220106D01*
G01Y332539D01*
G03X223256Y329390I3150J0D01*
D02*
G37*
G36*
G01X213256D02*
G03X216406Y332539I0J3150D01*
G01Y341988D01*
G01X210106D01*
G01Y332539D01*
G03X213256Y329390I3150J0D01*
D02*
G37*
G36*
G01X203256D02*
G03X206405Y332539I0J3150D01*
G01Y341988D01*
G01X200106D01*
G01Y332539D01*
G03X203256Y329390I3150J0D01*
D02*
G37*
G36*
G01X193256D02*
G03X196405Y332539I0J3150D01*
G01Y341988D01*
G01X190106D01*
G01Y332539D01*
G03X193256Y329390I3150J0D01*
D02*
G37*
G36*
G01X176406Y332539D02*
G02X173256Y329390I-3150J0D01*
G02X170106Y332539I0J3150D01*
G01Y341988D01*
G01X176406D01*
G01Y332539D01*
D02*
G37*
G36*
G01X166405D02*
G02X163256Y329390I-3150J0D01*
G02X160106Y332539I0J3150D01*
G01Y341988D01*
G01X166405D01*
G01Y332539D01*
D02*
G37*
G36*
G01X156405D02*
G02X153256Y329390I-3150J0D01*
G02X150106Y332539I0J3150D01*
G01Y341988D01*
G01X156405D01*
G01Y332539D01*
D02*
G37*
G36*
G01X146405D02*
G02X143256Y329390I-3150J0D01*
G02X140106Y332539I0J3150D01*
G01Y341988D01*
G01X146405D01*
G01Y332539D01*
D02*
G37*
G36*
G01X126406D02*
G02X123256Y329390I-3150J0D01*
G02X120106Y332539I0J3150D01*
G01Y341988D01*
G01X126406D01*
G01Y332539D01*
D02*
G37*
G36*
G01X286405Y253012D02*
G01Y264350D01*
G03X285146Y265610I-1260J0D01*
G01X281366D01*
G03X280106Y264350I0J-1260D01*
G01Y253012D01*
G01X286405D01*
D02*
G37*
G36*
G01X236405D02*
G01Y264350D01*
G03X235146Y265610I-1260J0D01*
G01X231366D01*
G03X230106Y264350I0J-1260D01*
G01Y253012D01*
G01X236405D01*
D02*
G37*
G36*
G01X186406D02*
G01Y264350D01*
G03X185146Y265610I-1260J0D01*
G01X181366D01*
G03X180106Y264350I0J-1260D01*
G01Y253012D01*
G01X186406D01*
D02*
G37*
G36*
G01X136368D02*
G01Y264350D01*
G03X135108Y265610I-1260J0D01*
G01X131328D01*
G03X130069Y264350I0J-1260D01*
G01Y253012D01*
G01X136368D01*
D02*
G37*
G36*
G01X306405D02*
G01Y262461D01*
G03X303256Y265610I-3150J0D01*
G03X300106Y262461I0J-3150D01*
G01Y253012D01*
G01X306405D01*
D02*
G37*
G36*
G01X296406D02*
G01Y262461D01*
G03X293256Y265610I-3150J0D01*
G03X290106Y262461I0J-3150D01*
G01Y253012D01*
G01X296406D01*
D02*
G37*
G36*
G01X276406D02*
G01Y262461D01*
G03X273256Y265610I-3150J0D01*
G03X270106Y262461I0J-3150D01*
G01Y253012D01*
G01X276406D01*
D02*
G37*
G36*
G01X266406D02*
G01Y262461D01*
G03X263256Y265610I-3150J0D01*
G03X260106Y262461I0J-3150D01*
G01Y253012D01*
G01X266406D01*
D02*
G37*
G36*
G01X256405D02*
G01Y262461D01*
G03X253256Y265610I-3150J0D01*
G03X250106Y262461I0J-3150D01*
G01Y253012D01*
G01X256405D01*
D02*
G37*
G36*
G01X246406D02*
G01Y262461D01*
G03X243256Y265610I-3150J0D01*
G03X240106Y262461I0J-3150D01*
G01Y253012D01*
G01X246406D01*
D02*
G37*
G36*
G01X226406D02*
G01Y262461D01*
G03X223256Y265610I-3150J0D01*
G03X220106Y262461I0J-3150D01*
G01Y253012D01*
G01X226406D01*
D02*
G37*
G36*
G01X216406D02*
G01Y262461D01*
G03X213256Y265610I-3150J0D01*
G03X210106Y262461I0J-3150D01*
G01Y253012D01*
G01X216406D01*
D02*
G37*
G36*
G01X206405D02*
G01Y262461D01*
G03X203256Y265610I-3150J0D01*
G03X200106Y262461I0J-3150D01*
G01Y253012D01*
G01X206405D01*
D02*
G37*
G36*
G01X196405D02*
G01Y262461D01*
G03X193256Y265610I-3150J0D01*
G03X190106Y262461I0J-3150D01*
G01Y253012D01*
G01X196405D01*
D02*
G37*
G36*
G01X176406D02*
G01Y262461D01*
G03X173256Y265610I-3150J0D01*
G03X170106Y262461I0J-3150D01*
G01Y253012D01*
G01X176406D01*
D02*
G37*
G36*
G01X166405D02*
G01Y262461D01*
G03X163256Y265610I-3150J0D01*
G03X160106Y262461I0J-3150D01*
G01Y253012D01*
G01X166405D01*
D02*
G37*
G36*
G01X156405D02*
G01Y262461D01*
G03X153256Y265610I-3150J0D01*
G03X150106Y262461I0J-3150D01*
G01Y253012D01*
G01X156405D01*
D02*
G37*
G36*
G01X146405D02*
G01Y262461D01*
G03X143256Y265610I-3150J0D01*
G03X140106Y262461I0J-3150D01*
G01Y253012D01*
G01X146405D01*
D02*
G37*
G36*
G01X126406D02*
G01Y262461D01*
G03X123256Y265610I-3150J0D01*
G03X120106Y262461I0J-3150D01*
G01Y253012D01*
G01X126406D01*
D02*
G37*
G36*
G01X136406Y330650D02*
G02X135146Y329390I-1260J0D01*
G01X131366D01*
G02X130106Y330650I0J1260D01*
G01Y341988D01*
G01X136406D01*
G01Y330650D01*
D02*
G37*
G36*
G01X116405Y332539D02*
G02X113256Y329390I-3150J0D01*
G02X110106Y332539I0J3150D01*
G01Y341988D01*
G01X116405D01*
G01Y332539D01*
D02*
G37*
D16*
X219957Y357000D02*
D03*
Y354441D02*
D03*
Y351882D02*
D03*
Y349323D02*
D03*
X231378Y357000D02*
D03*
Y354441D02*
D03*
Y351882D02*
D03*
D17*
Y349323D02*
D03*
D18*
X238500Y346000D02*
D03*
Y349000D02*
D03*
D22*
X175000Y352579D02*
D03*
X196000Y348657D02*
D03*
X205858Y217500D02*
D03*
D23*
X175000Y362421D02*
D03*
X196000Y368342D02*
D03*
D26*
X274500Y233000D02*
D03*
X174500Y380500D02*
D03*
X232500D02*
D03*
X170500Y233000D02*
D03*
D27*
X354000Y233500D02*
D03*
D28*
Y358500D02*
D03*
D29*
X216500Y233000D02*
D03*
X228500D02*
D03*
X220500Y380500D02*
D03*
X278500D02*
D03*
D35*
X320500Y293000D02*
D03*
Y263000D02*
D03*
Y283000D02*
D03*
Y273000D02*
D03*
Y303000D02*
D03*
Y323000D02*
D03*
Y313000D02*
D03*
D36*
Y333000D02*
D03*
D37*
X300315Y374500D02*
D03*
X322500Y222000D02*
D03*
D38*
X302815D02*
D03*
X320000Y374500D02*
D03*
D39*
X238142Y217500D02*
D03*
M02*
