G04*
G04 #@! TF.GenerationSoftware,Altium Limited,Altium Designer,23.0.1 (38)*
G04*
G04 Layer_Color=128*
%FSLAX25Y25*%
%MOIN*%
G70*
G04*
G04 #@! TF.SameCoordinates,BC8FEE28-448D-4E3F-B38E-86C11A945C97*
G04*
G04*
G04 #@! TF.FilePolarity,Positive*
G04*
G01*
G75*
%ADD12C,0.00500*%
D12*
X318394Y293000D02*
X322606D01*
X320500Y290894D02*
Y295106D01*
X318394Y263000D02*
X322606D01*
X320500Y260894D02*
Y265106D01*
X318394Y283000D02*
X322606D01*
X320500Y280894D02*
Y285106D01*
X318394Y273000D02*
X322606D01*
X320500Y270894D02*
Y275106D01*
X318394Y333000D02*
X322606D01*
X320500Y330894D02*
Y335106D01*
X318394Y303000D02*
X322606D01*
X320500Y300894D02*
Y305106D01*
X318394Y323000D02*
X322606D01*
X320500Y320894D02*
Y325106D01*
X318394Y313000D02*
X322606D01*
X320500Y310894D02*
Y315106D01*
X173622Y352579D02*
X176378D01*
X175000Y351201D02*
Y353957D01*
X173622Y362421D02*
X176378D01*
X175000Y361043D02*
Y363799D01*
X194622Y348657D02*
X197378D01*
X196000Y347280D02*
Y350035D01*
X194622Y368342D02*
X197378D01*
X196000Y366965D02*
Y369721D01*
X297953Y374500D02*
X302677D01*
X300315Y372138D02*
Y376862D01*
X300453Y222000D02*
X305177D01*
X302815Y219638D02*
Y224362D01*
X272800Y233000D02*
X276200D01*
X274500Y231300D02*
Y234700D01*
X320138Y222000D02*
X324862D01*
X322500Y219638D02*
Y224362D01*
X317638Y374500D02*
X322362D01*
X320000Y372138D02*
Y376862D01*
X351600Y233500D02*
X356400D01*
X354000Y231100D02*
Y235900D01*
X351600Y358500D02*
X356400D01*
X354000Y356100D02*
Y360900D01*
X214800Y233000D02*
X218200D01*
X216500Y231300D02*
Y234700D01*
X226800Y233000D02*
X230200D01*
X228500Y231300D02*
Y234700D01*
X236567Y217500D02*
X239717D01*
X238142Y215925D02*
Y219075D01*
X172800Y380500D02*
X176200D01*
X174500Y378800D02*
Y382200D01*
X218800Y380500D02*
X222200D01*
X220500Y378800D02*
Y382200D01*
X230800Y380500D02*
X234200D01*
X232500Y378800D02*
Y382200D01*
X276800Y380500D02*
X280200D01*
X278500Y378800D02*
Y382200D01*
X204283Y217500D02*
X207433D01*
X205858Y215925D02*
Y219075D01*
X168800Y233000D02*
X172200D01*
X170500Y231300D02*
Y234700D01*
X292713Y323500D02*
X294287D01*
X293500Y322713D02*
Y324287D01*
X292213Y297500D02*
X293787D01*
X293000Y296713D02*
Y298287D01*
X282713Y348000D02*
X284287D01*
X283500Y347213D02*
Y348787D01*
X181713Y347000D02*
X183287D01*
X182500Y346213D02*
Y347787D01*
X172713Y347000D02*
X174287D01*
X173500Y346213D02*
Y347787D01*
X132713Y324000D02*
X134287D01*
X133500Y323213D02*
Y324787D01*
X182213Y271000D02*
X183787D01*
X183000Y270213D02*
Y271787D01*
X132213Y271000D02*
X133787D01*
X133000Y270213D02*
Y271787D01*
X232469Y270756D02*
X234043D01*
X233256Y269969D02*
Y271543D01*
X282213Y270500D02*
X283787D01*
X283000Y269713D02*
Y271287D01*
X220213Y345500D02*
X221787D01*
X221000Y344713D02*
Y346287D01*
X237713Y353500D02*
X239287D01*
X238500Y352713D02*
Y354287D01*
X243713Y351500D02*
X245287D01*
X244500Y350713D02*
Y352287D01*
X232638Y325500D02*
X234213D01*
X233425Y324713D02*
Y326287D01*
X152552Y325925D02*
X154126D01*
X153339Y325138D02*
Y326713D01*
M02*
