G04*
G04 #@! TF.GenerationSoftware,Altium Limited,Altium Designer,23.1.1 (15)*
G04*
G04 Layer_Color=128*
%FSLAX25Y25*%
%MOIN*%
G70*
G04*
G04 #@! TF.SameCoordinates,D35DB840-2654-421D-A1CD-60E11C52D8AA*
G04*
G04*
G04 #@! TF.FilePolarity,Positive*
G04*
G01*
G75*
%ADD12C,0.00500*%
D12*
X194622Y368342D02*
X197378D01*
X196000Y366965D02*
Y369721D01*
X194622Y348657D02*
X197378D01*
X196000Y347280D02*
Y350035D01*
X173425Y354921D02*
X176181D01*
X174803Y353543D02*
Y356299D01*
X173425Y364764D02*
X176181D01*
X174803Y363386D02*
Y366142D01*
X318394Y313000D02*
X322606D01*
X320500Y310894D02*
Y315106D01*
X318394Y323000D02*
X322606D01*
X320500Y320894D02*
Y325106D01*
X318394Y303000D02*
X322606D01*
X320500Y300894D02*
Y305106D01*
X318394Y333000D02*
X322606D01*
X320500Y330894D02*
Y335106D01*
X318394Y273000D02*
X322606D01*
X320500Y270894D02*
Y275106D01*
X318394Y283000D02*
X322606D01*
X320500Y280894D02*
Y285106D01*
X318394Y263000D02*
X322606D01*
X320500Y260894D02*
Y265106D01*
X318394Y293000D02*
X322606D01*
X320500Y290894D02*
Y295106D01*
X297953Y374500D02*
X302677D01*
X300315Y372138D02*
Y376862D01*
X300453Y222000D02*
X305177D01*
X302815Y219638D02*
Y224362D01*
X272800Y233000D02*
X276200D01*
X274500Y231300D02*
Y234700D01*
X320138Y222000D02*
X324862D01*
X322500Y219638D02*
Y224362D01*
X317638Y374500D02*
X322362D01*
X320000Y372138D02*
Y376862D01*
X351600Y233500D02*
X356400D01*
X354000Y231100D02*
Y235900D01*
X351600Y358500D02*
X356400D01*
X354000Y356100D02*
Y360900D01*
X214800Y233000D02*
X218200D01*
X216500Y231300D02*
Y234700D01*
X226800Y233000D02*
X230200D01*
X228500Y231300D02*
Y234700D01*
X236567Y217500D02*
X239717D01*
X238142Y215925D02*
Y219075D01*
X172800Y380500D02*
X176200D01*
X174500Y378800D02*
Y382200D01*
X218800Y380500D02*
X222200D01*
X220500Y378800D02*
Y382200D01*
X230800Y380500D02*
X234200D01*
X232500Y378800D02*
Y382200D01*
X276800Y380500D02*
X280200D01*
X278500Y378800D02*
Y382200D01*
X204283Y217500D02*
X207433D01*
X205858Y215925D02*
Y219075D01*
X168800Y233000D02*
X172200D01*
X170500Y231300D02*
Y234700D01*
X281770Y270841D02*
X284571D01*
X283171Y269441D02*
Y272241D01*
X131845Y271033D02*
X134645D01*
X133245Y269633D02*
Y272433D01*
X171828Y346850D02*
X174628D01*
X173228Y345450D02*
Y348250D01*
X231856Y324201D02*
X234656D01*
X233256Y322801D02*
Y325601D01*
X250962Y275984D02*
X253762D01*
X252362Y274584D02*
Y277384D01*
X190726Y275984D02*
X193526D01*
X192126Y274584D02*
Y277384D01*
X213386Y345669D02*
X214961D01*
X214173Y344882D02*
Y346457D01*
X220213Y345500D02*
X221787D01*
X221000Y344713D02*
Y346287D01*
X182065Y346850D02*
X184865D01*
X183465Y345450D02*
Y348250D01*
X292713Y323500D02*
X294287D01*
X293500Y322713D02*
Y324287D01*
X291600Y297500D02*
X294400D01*
X293000Y296100D02*
Y298900D01*
X282100Y348000D02*
X284900D01*
X283500Y346600D02*
Y349400D01*
X132100Y324000D02*
X134900D01*
X133500Y322600D02*
Y325400D01*
X181600Y271000D02*
X184400D01*
X183000Y269600D02*
Y272400D01*
X231856Y270756D02*
X234656D01*
X233256Y269356D02*
Y272156D01*
X237713Y353500D02*
X239287D01*
X238500Y352713D02*
Y354287D01*
M02*
