G04*
G04 #@! TF.GenerationSoftware,Altium Limited,Altium Designer,23.1.1 (15)*
G04*
G04 Layer_Color=32896*
%FSLAX25Y25*%
%MOIN*%
G70*
G04*
G04 #@! TF.SameCoordinates,D35DB840-2654-421D-A1CD-60E11C52D8AA*
G04*
G04*
G04 #@! TF.FilePolarity,Positive*
G04*
G01*
G75*
%ADD10C,0.00787*%
%ADD14C,0.01000*%
%ADD34C,0.02000*%
%ADD48C,0.00602*%
D10*
X254134Y383858D02*
X256890D01*
X254134Y377559D02*
X256890D01*
X229134Y356496D02*
Y359252D01*
X222835Y356496D02*
Y359252D01*
X130213Y212411D02*
Y209787D01*
Y211099D01*
X129557Y211755D01*
X128901Y212411D01*
X128245D01*
X124309Y209787D02*
X125621D01*
X126277Y210443D01*
Y211755D01*
X125621Y212411D01*
X124309D01*
X123653Y211755D01*
Y211099D01*
X126277D01*
X122341Y212411D02*
X121029Y209787D01*
X119717Y212411D01*
X118405Y209787D02*
Y210443D01*
X117749D01*
Y209787D01*
X118405D01*
X111190D02*
X109878D01*
X110534D01*
Y213723D01*
X111190Y213067D01*
D14*
X256905Y373259D02*
X257905Y374259D01*
X259904D01*
X260904Y373259D01*
Y369261D01*
X259904Y368261D01*
X257905D01*
X256905Y369261D01*
X251907Y368261D02*
Y374259D01*
X254906Y371260D01*
X250907D01*
X226590Y374047D02*
X227590Y375046D01*
X229589D01*
X230589Y374047D01*
Y370048D01*
X229589Y369048D01*
X227590D01*
X226590Y370048D01*
X220592Y369048D02*
X224591D01*
X220592Y373047D01*
Y374047D01*
X221592Y375046D01*
X223591D01*
X224591Y374047D01*
D34*
X275500Y296500D02*
Y308307D01*
X269596D01*
X267629Y306339D01*
Y302404D01*
X269596Y300436D01*
X275500D01*
X263693Y296500D02*
X259757D01*
X261725D01*
Y304372D01*
X263693D01*
X245982D02*
X251886D01*
X253854Y302404D01*
Y298468D01*
X251886Y296500D01*
X245982D01*
X240078D02*
X236143D01*
X234175Y298468D01*
Y302404D01*
X236143Y304372D01*
X240078D01*
X242046Y302404D01*
Y298468D01*
X240078Y296500D01*
X230239D02*
Y308307D01*
X224336D01*
X222368Y306339D01*
Y302404D01*
X224336Y300436D01*
X230239D01*
X216464Y296500D02*
X212528D01*
X210560Y298468D01*
Y302404D01*
X212528Y304372D01*
X216464D01*
X218432Y302404D01*
Y298468D01*
X216464Y296500D01*
X206625Y304372D02*
Y298468D01*
X204657Y296500D01*
X202689Y298468D01*
X200721Y296500D01*
X198753Y298468D01*
Y304372D01*
X188914Y296500D02*
X192850D01*
X194817Y298468D01*
Y302404D01*
X192850Y304372D01*
X188914D01*
X186946Y302404D01*
Y300436D01*
X194817D01*
X183010Y304372D02*
Y296500D01*
Y300436D01*
X181042Y302404D01*
X179075Y304372D01*
X177107D01*
X171203Y296500D02*
Y308307D01*
X167267Y304372D01*
X163332Y308307D01*
Y296500D01*
X153492D02*
X157428D01*
X159396Y298468D01*
Y302404D01*
X157428Y304372D01*
X153492D01*
X151524Y302404D01*
Y300436D01*
X159396D01*
X145621Y306339D02*
Y304372D01*
X147589D01*
X143653D01*
X145621D01*
Y298468D01*
X143653Y296500D01*
X131846D02*
X135781D01*
X137749Y298468D01*
Y302404D01*
X135781Y304372D01*
X131846D01*
X129878Y302404D01*
Y300436D01*
X137749D01*
X125942Y304372D02*
Y296500D01*
Y300436D01*
X123974Y302404D01*
X122006Y304372D01*
X120038D01*
D48*
X275898Y290850D02*
Y286914D01*
Y288882D01*
X275242Y289538D01*
X273930D01*
X273274Y288882D01*
Y286914D01*
X271306Y290194D02*
Y289538D01*
X271962D01*
X270650D01*
X271306D01*
Y287570D01*
X270650Y286914D01*
X268026Y290194D02*
Y289538D01*
X268682D01*
X267370D01*
X268026D01*
Y287570D01*
X267370Y286914D01*
X265402Y285602D02*
Y289538D01*
X263435D01*
X262778Y288882D01*
Y287570D01*
X263435Y286914D01*
X265402D01*
X261467D02*
X259499D01*
X258843Y287570D01*
X259499Y288226D01*
X260811D01*
X261467Y288882D01*
X260811Y289538D01*
X258843D01*
X257531D02*
X256875D01*
Y288882D01*
X257531D01*
Y289538D01*
Y287570D02*
X256875D01*
Y286914D01*
X257531D01*
Y287570D01*
X254251Y286914D02*
X251627Y289538D01*
X250315Y286914D02*
X247691Y289538D01*
X245068Y285602D02*
X244412D01*
X243756Y286258D01*
Y289538D01*
X245724D01*
X246380Y288882D01*
Y287570D01*
X245724Y286914D01*
X243756D01*
X242444D02*
X241132D01*
X241788D01*
Y289538D01*
X242444D01*
X238508Y290194D02*
Y289538D01*
X239164D01*
X237852D01*
X238508D01*
Y287570D01*
X237852Y286914D01*
X235884Y290850D02*
Y286914D01*
Y288882D01*
X235228Y289538D01*
X233916D01*
X233260Y288882D01*
Y286914D01*
X231949Y289538D02*
Y287570D01*
X231293Y286914D01*
X229325D01*
Y289538D01*
X228013Y290850D02*
Y286914D01*
X226045D01*
X225389Y287570D01*
Y288226D01*
Y288882D01*
X226045Y289538D01*
X228013D01*
X224077Y286914D02*
Y287570D01*
X223421D01*
Y286914D01*
X224077D01*
X218174Y289538D02*
X220141D01*
X220797Y288882D01*
Y287570D01*
X220141Y286914D01*
X218174D01*
X216206D02*
X214894D01*
X214238Y287570D01*
Y288882D01*
X214894Y289538D01*
X216206D01*
X216862Y288882D01*
Y287570D01*
X216206Y286914D01*
X212926D02*
Y289538D01*
X212270D01*
X211614Y288882D01*
Y286914D01*
Y288882D01*
X210958Y289538D01*
X210302Y288882D01*
Y286914D01*
X208990D02*
X206366Y289538D01*
X205054Y285602D02*
X204398D01*
X203742Y286258D01*
Y289538D01*
X198495Y290850D02*
Y286914D01*
X200463D01*
X201119Y287570D01*
Y288882D01*
X200463Y289538D01*
X198495D01*
X196527Y290194D02*
Y289538D01*
X197183D01*
X195871D01*
X196527D01*
Y287570D01*
X195871Y286914D01*
X191935D02*
X193247D01*
X193903Y287570D01*
Y288882D01*
X193247Y289538D01*
X191935D01*
X191279Y288882D01*
Y288226D01*
X193903D01*
X187344Y289538D02*
X189311D01*
X189967Y288882D01*
Y287570D01*
X189311Y286914D01*
X187344D01*
X186032Y290850D02*
Y286914D01*
Y288882D01*
X185376Y289538D01*
X184064D01*
X183408Y288882D01*
Y286914D01*
X182096Y290194D02*
X181440Y290850D01*
X180128D01*
X179472Y290194D01*
Y289538D01*
X180128Y288882D01*
X180784D01*
X180128D01*
X179472Y288226D01*
Y287570D01*
X180128Y286914D01*
X181440D01*
X182096Y287570D01*
X178160Y286914D02*
X175536Y289538D01*
X174224Y286914D02*
Y290850D01*
X172257D01*
X171601Y290194D01*
Y288882D01*
X172257Y288226D01*
X174224D01*
X170289Y286914D02*
X168977D01*
X169633D01*
Y289538D01*
X170289D01*
X164385D02*
X166353D01*
X167009Y288882D01*
Y287570D01*
X166353Y286914D01*
X164385D01*
X162417D02*
X161105D01*
X160449Y287570D01*
Y288882D01*
X161105Y289538D01*
X162417D01*
X163073Y288882D01*
Y287570D01*
X162417Y286914D01*
X159137D02*
Y290850D01*
X157169D01*
X156514Y290194D01*
Y288882D01*
X157169Y288226D01*
X159137D01*
X154546Y286914D02*
X153234D01*
X152578Y287570D01*
Y288882D01*
X153234Y289538D01*
X154546D01*
X155202Y288882D01*
Y287570D01*
X154546Y286914D01*
X151266Y289538D02*
Y287570D01*
X150610Y286914D01*
X149954Y287570D01*
X149298Y286914D01*
X148642Y287570D01*
Y289538D01*
X145362Y286914D02*
X146674D01*
X147330Y287570D01*
Y288882D01*
X146674Y289538D01*
X145362D01*
X144706Y288882D01*
Y288226D01*
X147330D01*
X143394Y289538D02*
Y286914D01*
Y288226D01*
X142738Y288882D01*
X142083Y289538D01*
X141427D01*
X139459Y286914D02*
Y290850D01*
X138147Y289538D01*
X136835Y290850D01*
Y286914D01*
X133555D02*
X134867D01*
X135523Y287570D01*
Y288882D01*
X134867Y289538D01*
X133555D01*
X132899Y288882D01*
Y288226D01*
X135523D01*
X130931Y290194D02*
Y289538D01*
X131587D01*
X130275D01*
X130931D01*
Y287570D01*
X130275Y286914D01*
X126340D02*
X127652D01*
X128307Y287570D01*
Y288882D01*
X127652Y289538D01*
X126340D01*
X125684Y288882D01*
Y288226D01*
X128307D01*
X124372Y289538D02*
Y286914D01*
Y288226D01*
X123716Y288882D01*
X123060Y289538D01*
X122404D01*
M02*
